<svg width="329" height="328" viewBox="0 0 329 328" fill="none" xmlns="http://www.w3.org/2000/svg">
<g clip-path="url(#clip0_1459_38420)">
<path d="M328.5 250.854H0.5V251.018H328.5V250.854Z" fill="#EBEBEB"/>
<path d="M211.416 259.999H189.689V260.163H211.416V259.999Z" fill="#EBEBEB"/>
<path d="M273.246 258.221H267.545V258.385H273.246V258.221Z" fill="#EBEBEB"/>
<path d="M260.663 255.322H215.451V255.486H260.663V255.322Z" fill="#EBEBEB"/>
<path d="M148.191 259.192H128.314V259.356H148.191V259.192Z" fill="#EBEBEB"/>
<path d="M122.477 259.192H109.869V259.356H122.477V259.192Z" fill="#EBEBEB"/>
<path d="M65.6411 256.424H34.9141V256.588H65.6411V256.424Z" fill="#EBEBEB"/>
<path d="M155.973 221.597H29.3056C28.3133 221.595 27.3622 221.2 26.6612 220.497C25.9601 219.795 25.5664 218.843 25.5664 217.851V39.793C25.575 38.8064 25.9726 37.8631 26.6727 37.1679C27.3728 36.4727 28.319 36.0818 29.3056 36.0801H155.973C156.966 36.0801 157.919 36.4747 158.621 37.1772C159.324 37.8797 159.718 38.8324 159.718 39.8258V217.851C159.718 218.845 159.324 219.797 158.621 220.5C157.919 221.202 156.966 221.597 155.973 221.597ZM29.3056 36.2113C28.3568 36.213 27.4475 36.5911 26.7772 37.2627C26.1069 37.9342 25.7304 38.8442 25.7304 39.793V217.851C25.7304 218.8 26.1069 219.71 26.7772 220.381C27.4475 221.053 28.3568 221.431 29.3056 221.433H155.973C156.922 221.431 157.832 221.053 158.503 220.382C159.175 219.711 159.553 218.801 159.554 217.851V39.793C159.553 38.8436 159.175 37.9336 158.503 37.2623C157.832 36.5909 156.922 36.213 155.973 36.2113H29.3056Z" fill="#EBEBEB"/>
<path d="M297.871 221.597H171.197C170.204 221.595 169.252 221.2 168.55 220.498C167.848 219.796 167.453 218.844 167.451 217.851V39.793C167.462 38.8058 167.861 37.8625 168.562 37.1675C169.263 36.4724 170.21 36.0817 171.197 36.0801H297.871C298.856 36.0835 299.8 36.4752 300.499 37.1702C301.198 37.8652 301.595 38.8076 301.603 39.793V217.851C301.603 218.842 301.21 219.793 300.511 220.495C299.811 221.197 298.862 221.593 297.871 221.597ZM171.197 36.2113C170.248 36.213 169.337 36.5909 168.666 37.2623C167.995 37.9336 167.617 38.8436 167.615 39.793V217.851C167.617 218.801 167.995 219.711 168.666 220.382C169.337 221.053 170.248 221.431 171.197 221.433H297.871C298.82 221.431 299.73 221.053 300.401 220.382C301.073 219.711 301.451 218.801 301.452 217.851V39.793C301.451 38.8436 301.073 37.9336 300.401 37.2623C299.73 36.5909 298.82 36.213 297.871 36.2113H171.197Z" fill="#EBEBEB"/>
<path d="M38.1159 153.996H149.826V51.1484L38.1159 51.1484L38.1159 153.996Z" fill="#E6E6E6"/>
<path d="M35.4575 153.996H148.67V51.1484L35.4575 51.1484L35.4575 153.996Z" fill="#F5F5F5"/>
<path d="M143.914 148.853V56.2915L40.2201 56.2915V148.853H143.914Z" fill="#FAFAFA"/>
<path d="M131.103 148.847L96.2301 56.2915H81.5488L116.422 148.847H131.103Z" fill="white"/>
<path d="M112.257 148.847L77.3902 56.2915H67.2812L102.148 148.847H112.257Z" fill="white"/>
<path d="M80.998 148.853V56.2915H75.3171V148.853H80.998Z" fill="#E6E6E6"/>
<path d="M112.617 148.846V56.2847H106.936V148.846H112.617Z" fill="#E6E6E6"/>
<path d="M79.9805 152.107V52.4604H72.8038V152.107H79.9805Z" fill="#F5F5F5"/>
<path d="M111.594 152.113V52.4668H104.417V152.113H111.594Z" fill="#F5F5F5"/>
<path d="M40.7266 148.853L40.7266 56.2915H40.2214L40.2214 148.853H40.7266Z" fill="#E6E6E6"/>
<path d="M292.997 52.0864H178.072V132.473H292.997V52.0864Z" fill="#EBEBEB"/>
<path d="M292.99 132.473H293.961V52.0864H292.99V132.473Z" fill="#E0E0E0"/>
<path d="M288.969 128.445V56.1079L182.1 56.1079V128.445H288.969Z" fill="white"/>
<path d="M182.9 128.445V56.1079H182.1V128.445H182.9Z" fill="#E0E0E0"/>
<path d="M276.249 63.9141H250.141V100.598H276.249V63.9141Z" fill="#F5F5F5"/>
<path d="M216.58 70.7104H190.471V107.394H216.58V70.7104Z" fill="#F5F5F5"/>
<path d="M258.183 79.8354H232.074V116.519H258.183V79.8354Z" fill="#EBEBEB"/>
<path d="M222.38 81.4492H212.186V91.6435H222.38V81.4492Z" fill="#F5F5F5"/>
<path d="M219.421 102.297H209.227V112.491H219.421V102.297Z" fill="#F0F0F0"/>
<path d="M268.869 246.138C268.869 245.205 269.146 244.293 269.664 243.517C270.183 242.741 270.92 242.137 271.782 241.78C272.645 241.423 273.593 241.33 274.508 241.513C275.423 241.695 276.264 242.145 276.923 242.805C277.583 243.465 278.031 244.307 278.213 245.222C278.394 246.137 278.299 247.086 277.941 247.948C277.583 248.809 276.978 249.545 276.201 250.063C275.425 250.58 274.512 250.856 273.579 250.855C272.329 250.853 271.131 250.355 270.248 249.471C269.365 248.587 268.869 247.388 268.869 246.138Z" fill="#E0E0E0"/>
<path d="M276.82 246.138C276.82 245.205 277.097 244.293 277.615 243.518C278.133 242.742 278.87 242.137 279.732 241.78C280.594 241.423 281.542 241.33 282.457 241.512C283.372 241.694 284.212 242.143 284.872 242.803C285.532 243.463 285.981 244.303 286.163 245.218C286.345 246.133 286.252 247.081 285.895 247.943C285.538 248.805 284.933 249.542 284.157 250.06C283.382 250.578 282.47 250.855 281.537 250.855C280.286 250.855 279.086 250.358 278.202 249.473C277.317 248.589 276.82 247.389 276.82 246.138Z" fill="#E0E0E0"/>
<path d="M146.572 246.138C146.572 245.205 146.849 244.293 147.367 243.518C147.885 242.742 148.622 242.137 149.484 241.78C150.346 241.423 151.294 241.33 152.209 241.512C153.124 241.694 153.964 242.143 154.624 242.803C155.284 243.463 155.733 244.303 155.915 245.218C156.097 246.133 156.004 247.081 155.647 247.943C155.29 248.805 154.685 249.542 153.909 250.06C153.134 250.578 152.222 250.855 151.289 250.855C150.038 250.855 148.838 250.358 147.954 249.473C147.069 248.589 146.572 247.389 146.572 246.138Z" fill="#E0E0E0"/>
<path d="M154.529 246.138C154.529 245.205 154.806 244.294 155.324 243.518C155.842 242.743 156.578 242.138 157.439 241.781C158.301 241.424 159.249 241.33 160.164 241.512C161.078 241.693 161.919 242.142 162.579 242.801C163.239 243.46 163.688 244.299 163.871 245.214C164.054 246.128 163.961 247.076 163.605 247.938C163.249 248.8 162.646 249.538 161.871 250.057C161.096 250.576 160.185 250.853 159.252 250.855C158.633 250.856 158.019 250.734 157.446 250.498C156.872 250.261 156.352 249.914 155.913 249.476C155.474 249.037 155.126 248.517 154.889 247.945C154.652 247.372 154.529 246.758 154.529 246.138Z" fill="#E0E0E0"/>
<path d="M277.023 246.787H288.182V146.288H277.023V246.787Z" fill="#EBEBEB"/>
<path d="M277.03 146.288H145.607V246.787H277.03V146.288Z" fill="#F5F5F5"/>
<path d="M272.752 150.415H149.877V242.668H272.752V150.415Z" fill="#EBEBEB"/>
<path d="M271.008 189.21H151.629V240.962H271.008V189.21Z" fill="#F5F5F5"/>
<path d="M271.008 152.356H151.629V187.905H271.008V152.356Z" fill="#F5F5F5"/>
<path d="M173.349 190.089H249.288C249.52 190.088 249.742 189.994 249.905 189.83C250.068 189.665 250.16 189.442 250.16 189.21C250.158 188.979 250.066 188.759 249.903 188.595C249.739 188.432 249.518 188.34 249.288 188.338H173.349C173.118 188.34 172.897 188.432 172.734 188.595C172.571 188.759 172.478 188.979 172.477 189.21C172.477 189.442 172.568 189.665 172.732 189.83C172.895 189.994 173.117 190.088 173.349 190.089Z" fill="#EBEBEB"/>
<path d="M173.349 153.229H249.288C249.518 153.227 249.739 153.134 249.903 152.971C250.066 152.808 250.158 152.587 250.16 152.356C250.16 152.124 250.068 151.901 249.905 151.737C249.742 151.572 249.52 151.479 249.288 151.477H173.349C173.117 151.479 172.895 151.572 172.732 151.737C172.568 151.901 172.477 152.124 172.477 152.356C172.478 152.587 172.571 152.808 172.734 152.971C172.897 153.134 173.118 153.227 173.349 153.229Z" fill="#EBEBEB"/>
<path d="M100.298 199.536H42.4258V250.848H100.298V199.536Z" fill="#F5F5F5"/>
<path d="M100.297 250.854H122.791V199.542H100.297V250.854Z" fill="#EBEBEB"/>
<path d="M101.551 190.535H39.5723V199.535H101.551V190.535Z" fill="#EBEBEB"/>
<path d="M101.544 199.542H125.639V190.542H101.544V199.542Z" fill="#E0E0E0"/>
<path d="M164.5 280.479C234.747 280.479 291.692 277.155 291.692 273.053C291.692 268.952 234.747 265.627 164.5 265.627C94.2543 265.627 37.3086 268.952 37.3086 273.053C37.3086 277.155 94.2543 280.479 164.5 280.479Z" fill="#F5F5F5"/>
<path d="M268.601 122.6H267.945V130.419H268.601V122.6Z" fill="#263238"/>
<path d="M268.601 100.204H267.945V117.128H268.601V100.204Z" fill="#263238"/>
<path d="M259.075 86.5327H101.786C99.1957 86.5327 97.0957 88.6327 97.0957 91.2231V175.834C97.0957 178.424 99.1957 180.524 101.786 180.524H259.075C261.666 180.524 263.766 178.424 263.766 175.834V91.2231C263.766 88.6327 261.666 86.5327 259.075 86.5327Z" fill="#E0E0E0"/>
<path d="M261.47 84.1382H104.181C101.59 84.1382 99.4902 86.2382 99.4902 88.8286V173.439C99.4902 176.03 101.59 178.13 104.181 178.13H261.47C264.06 178.13 266.16 176.03 266.16 173.439V88.8286C266.16 86.2382 264.06 84.1382 261.47 84.1382Z" fill="white"/>
<path d="M261.476 178.432H104.181C102.85 178.43 101.575 177.901 100.634 176.96C99.6931 176.019 99.1638 174.744 99.1621 173.413V88.7894C99.1638 87.459 99.6931 86.1835 100.634 85.2428C101.575 84.302 102.85 83.7727 104.181 83.771H261.476C262.807 83.7727 264.082 84.302 265.023 85.2428C265.964 86.1835 266.493 87.459 266.495 88.7894V173.413C266.493 174.744 265.964 176.019 265.023 176.96C264.082 177.901 262.807 178.43 261.476 178.432ZM104.181 84.4664C103.024 84.4681 101.915 84.9283 101.098 85.746C100.28 86.5637 99.8198 87.6723 99.8181 88.8288V173.453C99.8198 174.609 100.28 175.718 101.098 176.536C101.915 177.353 103.024 177.813 104.181 177.815H261.476C262.633 177.813 263.741 177.353 264.559 176.536C265.377 175.718 265.837 174.609 265.839 173.453V88.8288C265.837 87.6723 265.377 86.5637 264.559 85.746C263.741 84.9283 262.633 84.4681 261.476 84.4664H104.181Z" fill="#263238"/>
<path d="M172.897 124.961H112.276C111.628 124.959 111.008 124.701 110.55 124.242C110.093 123.783 109.836 123.162 109.836 122.514V114.144C109.836 113.496 110.093 112.874 110.55 112.416C111.008 111.957 111.628 111.699 112.276 111.697H172.897C173.545 111.699 174.166 111.957 174.623 112.416C175.081 112.874 175.338 113.496 175.338 114.144V122.495C175.34 122.817 175.279 123.137 175.158 123.435C175.036 123.734 174.857 124.006 174.63 124.235C174.403 124.464 174.134 124.646 173.836 124.771C173.539 124.896 173.22 124.96 172.897 124.961ZM112.276 112.372C111.802 112.374 111.349 112.564 111.014 112.899C110.68 113.235 110.492 113.689 110.492 114.163V122.514C110.491 122.749 110.537 122.982 110.626 123.199C110.715 123.416 110.846 123.614 111.012 123.78C111.178 123.947 111.375 124.079 111.592 124.169C111.809 124.259 112.041 124.305 112.276 124.305H172.897C173.132 124.305 173.365 124.259 173.582 124.169C173.798 124.079 173.995 123.947 174.161 123.78C174.327 123.614 174.458 123.416 174.548 123.199C174.637 122.982 174.682 122.749 174.682 122.514V114.144C174.682 113.67 174.494 113.215 174.159 112.88C173.825 112.544 173.371 112.355 172.897 112.353L112.276 112.372Z" fill="#E0E0E0"/>
<path d="M204.831 142.666H112.276C111.63 142.665 111.01 142.407 110.553 141.95C110.095 141.493 109.838 140.873 109.836 140.226V131.856C109.836 131.208 110.093 130.586 110.55 130.128C111.008 129.669 111.628 129.41 112.276 129.409H204.831C205.479 129.41 206.1 129.669 206.557 130.128C207.015 130.586 207.272 131.208 207.272 131.856V140.213C207.272 140.534 207.21 140.853 207.088 141.15C206.966 141.447 206.786 141.717 206.56 141.945C206.333 142.173 206.064 142.354 205.767 142.478C205.471 142.601 205.153 142.666 204.831 142.666ZM112.276 130.078C111.802 130.08 111.349 130.269 111.014 130.605C110.68 130.94 110.492 131.395 110.492 131.869V140.226C110.492 140.699 110.68 141.153 111.015 141.488C111.349 141.822 111.803 142.01 112.276 142.01H204.831C205.305 142.01 205.758 141.822 206.093 141.488C206.428 141.153 206.616 140.699 206.616 140.226V131.856C206.616 131.382 206.428 130.927 206.093 130.592C205.759 130.256 205.305 130.066 204.831 130.065L112.276 130.078Z" fill="#E0E0E0"/>
<path d="M112.978 138.678C112.891 138.678 112.808 138.644 112.746 138.582C112.685 138.521 112.65 138.437 112.65 138.35V133.758C112.65 133.671 112.685 133.588 112.746 133.526C112.808 133.465 112.891 133.43 112.978 133.43C113.065 133.43 113.149 133.465 113.21 133.526C113.272 133.588 113.306 133.671 113.306 133.758V138.35C113.306 138.437 113.272 138.521 113.21 138.582C113.149 138.644 113.065 138.678 112.978 138.678Z" fill="#E0E0E0"/>
<path d="M245.561 124.961H184.94C184.293 124.959 183.672 124.701 183.214 124.242C182.757 123.783 182.5 123.162 182.5 122.514V114.144C182.5 113.496 182.757 112.874 183.214 112.416C183.672 111.957 184.293 111.699 184.94 111.697H245.561C246.209 111.699 246.83 111.957 247.287 112.416C247.745 112.874 248.002 113.496 248.002 114.144V122.495C248.004 122.817 247.943 123.137 247.822 123.435C247.7 123.734 247.521 124.006 247.294 124.235C247.067 124.464 246.798 124.646 246.5 124.771C246.203 124.896 245.884 124.96 245.561 124.961ZM184.94 112.372C184.466 112.374 184.013 112.564 183.678 112.899C183.344 113.235 183.156 113.689 183.156 114.163V122.514C183.155 122.749 183.201 122.982 183.29 123.199C183.379 123.416 183.511 123.614 183.676 123.78C183.842 123.947 184.039 124.079 184.256 124.169C184.473 124.259 184.705 124.305 184.94 124.305H245.561C245.796 124.305 246.029 124.259 246.246 124.169C246.463 124.079 246.66 123.947 246.825 123.78C246.991 123.614 247.122 123.416 247.212 123.199C247.301 122.982 247.346 122.749 247.346 122.514V114.144C247.346 113.67 247.158 113.215 246.823 112.88C246.489 112.544 246.035 112.355 245.561 112.353L184.94 112.372Z" fill="#E0E0E0"/>
<path opacity="0.2" d="M151.715 100.204H112.86C112.146 100.202 111.461 99.9175 110.956 99.4122C110.45 98.907 110.166 98.2222 110.164 97.5077C110.166 96.7932 110.45 96.1084 110.956 95.6031C111.461 95.0979 112.146 94.8133 112.86 94.8115H151.715C152.43 94.8133 153.114 95.0979 153.62 95.6031C154.125 96.1084 154.41 96.7932 154.411 97.5077C154.41 98.2222 154.125 98.907 153.62 99.4122C153.114 99.9175 152.43 100.202 151.715 100.204Z" fill="#263238"/>
<path opacity="0.2" d="M162.406 152.192H120.304C120.02 152.19 119.747 152.076 119.546 151.875C119.344 151.673 119.23 151.401 119.229 151.116C119.23 150.831 119.344 150.558 119.546 150.357C119.747 150.156 120.02 150.042 120.304 150.04H162.406C162.691 150.042 162.963 150.156 163.163 150.357C163.363 150.559 163.476 150.832 163.476 151.116C163.476 151.4 163.363 151.673 163.163 151.874C162.963 152.076 162.691 152.19 162.406 152.192Z" fill="#263238"/>
<path d="M112.335 153.307C113.535 153.307 114.507 152.335 114.507 151.136C114.507 149.937 113.535 148.964 112.335 148.964C111.136 148.964 110.164 149.937 110.164 151.136C110.164 152.335 111.136 153.307 112.335 153.307Z" fill="#263238"/>
<path d="M185.642 120.973C185.555 120.973 185.472 120.938 185.411 120.877C185.349 120.815 185.314 120.732 185.314 120.645V116.053C185.314 115.966 185.349 115.882 185.411 115.821C185.472 115.759 185.555 115.725 185.642 115.725C185.729 115.725 185.813 115.759 185.874 115.821C185.936 115.882 185.97 115.966 185.97 116.053V120.645C185.97 120.732 185.936 120.815 185.874 120.877C185.813 120.938 185.729 120.973 185.642 120.973Z" fill="#E0E0E0"/>
<path d="M112.978 120.973C112.891 120.973 112.808 120.938 112.746 120.877C112.685 120.815 112.65 120.732 112.65 120.645V116.053C112.65 115.966 112.685 115.882 112.746 115.821C112.808 115.759 112.891 115.725 112.978 115.725C113.065 115.725 113.149 115.759 113.21 115.821C113.272 115.882 113.306 115.966 113.306 116.053V120.645C113.306 120.732 113.272 120.815 113.21 120.877C113.149 120.938 113.065 120.973 112.978 120.973Z" fill="#E0E0E0"/>
<g opacity="0.6">
<path d="M115.588 120.297V116.263H118.31V116.768H116.126V118.014H118.015V118.493H116.126V120.323L115.588 120.297Z" fill="#263238"/>
<path d="M118.939 116.833V116.263H119.431V116.833H118.939ZM118.939 120.297V117.378H119.431V120.297H118.939Z" fill="#263238"/>
<path d="M120.18 120.297V117.378H120.626V117.818C120.704 117.663 120.811 117.525 120.941 117.411C121.035 117.346 121.147 117.312 121.262 117.313C121.442 117.317 121.617 117.371 121.767 117.47L121.597 117.929C121.488 117.861 121.364 117.825 121.236 117.824C121.13 117.823 121.027 117.855 120.941 117.916C120.853 117.987 120.789 118.083 120.757 118.192C120.703 118.379 120.676 118.574 120.678 118.769V120.297H120.18Z" fill="#263238"/>
<path d="M121.859 119.425L122.345 119.346C122.363 119.52 122.445 119.681 122.574 119.799C122.727 119.913 122.916 119.969 123.106 119.956C123.285 119.969 123.463 119.921 123.611 119.818C123.66 119.779 123.7 119.729 123.728 119.672C123.756 119.616 123.772 119.554 123.775 119.49C123.776 119.438 123.763 119.386 123.738 119.34C123.712 119.294 123.675 119.255 123.631 119.228C123.468 119.149 123.296 119.092 123.119 119.057C122.862 118.999 122.609 118.92 122.364 118.821C122.235 118.763 122.125 118.667 122.05 118.546C121.976 118.428 121.938 118.291 121.938 118.152C121.936 118.024 121.966 117.897 122.024 117.783C122.082 117.668 122.168 117.57 122.273 117.496C122.368 117.43 122.475 117.381 122.588 117.352C122.726 117.312 122.87 117.292 123.014 117.293C123.219 117.289 123.424 117.322 123.617 117.391C123.77 117.441 123.905 117.535 124.004 117.66C124.094 117.797 124.152 117.951 124.175 118.113L123.69 118.178C123.672 118.041 123.605 117.915 123.499 117.824C123.369 117.733 123.212 117.689 123.053 117.7C122.882 117.683 122.709 117.722 122.561 117.811C122.519 117.841 122.483 117.88 122.458 117.925C122.433 117.971 122.419 118.022 122.417 118.073C122.415 118.136 122.436 118.196 122.476 118.244C122.527 118.305 122.592 118.352 122.666 118.382L123.106 118.506C123.351 118.569 123.592 118.645 123.827 118.736C123.959 118.787 124.072 118.877 124.15 118.995C124.229 119.112 124.27 119.251 124.267 119.392C124.268 119.558 124.217 119.721 124.123 119.858C124.021 120.008 123.877 120.124 123.709 120.192C123.515 120.279 123.305 120.322 123.093 120.317C122.786 120.338 122.48 120.255 122.227 120.081C122.029 119.913 121.899 119.681 121.859 119.425Z" fill="#263238"/>
<path d="M125.959 119.851L126.025 120.29C125.902 120.317 125.777 120.333 125.651 120.336C125.509 120.342 125.367 120.312 125.238 120.251C125.145 120.199 125.072 120.118 125.028 120.022C124.976 119.832 124.956 119.634 124.969 119.438V117.758H124.602V117.378H124.969V116.656L125.461 116.354V117.378H125.959V117.758H125.461V119.47C125.445 119.559 125.445 119.65 125.461 119.739C125.478 119.781 125.508 119.815 125.546 119.838C125.6 119.85 125.656 119.85 125.71 119.838L125.959 119.851Z" fill="#263238"/>
<path d="M128.006 120.297V117.378H128.452V117.791C128.55 117.637 128.687 117.511 128.849 117.426C129.012 117.342 129.194 117.303 129.377 117.312C129.543 117.308 129.709 117.339 129.862 117.404C129.994 117.456 130.11 117.542 130.197 117.654C130.273 117.764 130.325 117.889 130.348 118.021C130.362 118.18 130.362 118.34 130.348 118.5V120.297H129.856V118.519C129.863 118.366 129.843 118.213 129.797 118.067C129.758 117.967 129.686 117.884 129.593 117.831C129.488 117.768 129.368 117.736 129.246 117.739C129.045 117.734 128.85 117.807 128.701 117.942C128.612 118.046 128.546 118.168 128.507 118.299C128.467 118.43 128.455 118.567 128.472 118.703V120.297H128.006Z" fill="#263238"/>
<path d="M133.011 119.936C132.853 120.071 132.676 120.182 132.486 120.264C132.31 120.331 132.123 120.364 131.935 120.363C131.669 120.38 131.406 120.296 131.2 120.126C131.115 120.051 131.047 119.958 131.002 119.854C130.956 119.75 130.935 119.637 130.938 119.523C130.937 119.388 130.971 119.254 131.036 119.136C131.098 119.021 131.186 118.922 131.292 118.847C131.4 118.774 131.52 118.721 131.646 118.69C131.791 118.655 131.938 118.629 132.086 118.611C132.386 118.584 132.683 118.527 132.971 118.441V118.316C132.98 118.239 132.972 118.161 132.948 118.088C132.925 118.014 132.886 117.947 132.834 117.89C132.673 117.765 132.472 117.705 132.27 117.719C132.09 117.705 131.911 117.748 131.758 117.844C131.626 117.954 131.537 118.107 131.509 118.277L131.023 118.211C131.059 118.029 131.133 117.857 131.24 117.706C131.365 117.573 131.524 117.476 131.699 117.424C131.911 117.355 132.132 117.322 132.355 117.325C132.562 117.318 132.768 117.347 132.965 117.411C133.096 117.454 133.214 117.531 133.306 117.634C133.385 117.73 133.437 117.845 133.457 117.968C133.471 118.121 133.471 118.275 133.457 118.427V119.083C133.439 119.374 133.439 119.665 133.457 119.956C133.479 120.08 133.521 120.2 133.582 120.31H133.063C133.025 120.189 133.008 120.063 133.011 119.936ZM132.971 118.828C132.711 118.925 132.44 118.988 132.165 119.018C132.016 119.031 131.871 119.064 131.732 119.116C131.653 119.15 131.585 119.205 131.535 119.274C131.49 119.344 131.467 119.426 131.469 119.51C131.467 119.573 131.48 119.637 131.506 119.694C131.532 119.752 131.571 119.804 131.62 119.844C131.744 119.938 131.898 119.985 132.053 119.976C132.231 119.977 132.407 119.934 132.565 119.851C132.707 119.772 132.822 119.65 132.893 119.503C132.953 119.347 132.98 119.179 132.971 119.011V118.828Z" fill="#263238"/>
<path d="M134.264 120.297V117.378H134.71V117.785C134.798 117.641 134.922 117.523 135.071 117.443C135.228 117.353 135.407 117.307 135.589 117.312C135.775 117.306 135.959 117.351 136.12 117.443C136.26 117.532 136.364 117.667 136.415 117.824C136.509 117.667 136.641 117.538 136.8 117.448C136.959 117.358 137.138 117.312 137.321 117.312C137.44 117.305 137.56 117.322 137.673 117.363C137.786 117.403 137.889 117.466 137.977 117.548C138.15 117.755 138.235 118.021 138.213 118.29V120.297H137.721V118.454C137.729 118.31 137.713 118.166 137.675 118.027C137.641 117.939 137.579 117.866 137.498 117.817C137.409 117.764 137.306 117.737 137.203 117.739C137.108 117.736 137.014 117.753 136.926 117.788C136.838 117.822 136.758 117.875 136.691 117.942C136.615 118.032 136.558 118.137 136.524 118.25C136.489 118.362 136.476 118.481 136.488 118.598V120.297H135.989V118.401C136.001 118.227 135.96 118.053 135.871 117.903C135.824 117.845 135.764 117.799 135.695 117.771C135.626 117.742 135.551 117.731 135.477 117.739C135.34 117.738 135.206 117.777 135.09 117.85C134.97 117.924 134.879 118.038 134.834 118.172C134.771 118.368 134.742 118.575 134.749 118.782V120.297H134.264Z" fill="#263238"/>
<path d="M140.949 119.353L141.46 119.418C141.396 119.695 141.239 119.94 141.014 120.114C140.733 120.298 140.399 120.384 140.065 120.358C139.73 120.332 139.413 120.195 139.164 119.969C138.9 119.662 138.766 119.265 138.79 118.861C138.764 118.446 138.898 118.038 139.164 117.719C139.291 117.586 139.444 117.482 139.613 117.412C139.783 117.341 139.965 117.308 140.148 117.312C140.327 117.306 140.505 117.337 140.67 117.405C140.835 117.473 140.984 117.576 141.106 117.706C141.37 118.018 141.504 118.42 141.48 118.828C141.483 118.871 141.483 118.915 141.48 118.959H139.309C139.304 119.231 139.4 119.495 139.578 119.7C139.656 119.783 139.75 119.849 139.855 119.893C139.96 119.937 140.074 119.959 140.188 119.956C140.354 119.959 140.517 119.908 140.653 119.812C140.794 119.69 140.896 119.531 140.949 119.353ZM139.328 118.552H140.955C140.949 118.355 140.885 118.163 140.771 118.001C140.698 117.909 140.604 117.836 140.497 117.787C140.39 117.738 140.272 117.715 140.155 117.719C140.05 117.717 139.945 117.735 139.847 117.773C139.749 117.812 139.66 117.869 139.584 117.942C139.424 118.106 139.333 118.324 139.328 118.552Z" fill="#263238"/>
</g>
<g opacity="0.6">
<path d="M115.576 138.002V133.975H118.489V134.48H116.108V135.713H118.338V136.185H116.108V137.556H118.581V138.035L115.576 138.002Z" fill="#263238"/>
<path d="M119.236 138.003V135.083H119.676V135.49C119.77 135.349 119.896 135.232 120.043 135.149C120.201 135.06 120.38 135.015 120.561 135.018C120.747 135.011 120.931 135.057 121.093 135.149C121.23 135.24 121.334 135.374 121.388 135.529C121.48 135.373 121.612 135.244 121.769 135.154C121.927 135.065 122.105 135.018 122.287 135.018C122.407 135.012 122.527 135.03 122.64 135.072C122.752 135.113 122.856 135.178 122.943 135.26C123.116 135.465 123.2 135.729 123.179 135.995V138.003H122.687V136.166C122.694 136.02 122.676 135.873 122.634 135.733C122.601 135.647 122.541 135.574 122.464 135.523C122.373 135.468 122.268 135.441 122.162 135.444C121.971 135.442 121.787 135.515 121.65 135.648C121.502 135.832 121.429 136.067 121.447 136.304V138.003H120.955V136.107C120.967 135.932 120.926 135.758 120.837 135.608C120.787 135.552 120.726 135.508 120.656 135.479C120.587 135.451 120.512 135.439 120.437 135.444C120.3 135.445 120.166 135.483 120.05 135.556C119.93 135.63 119.839 135.743 119.794 135.877C119.734 136.075 119.707 136.281 119.715 136.487V138.003H119.236Z" fill="#263238"/>
<path d="M125.849 137.642C125.692 137.781 125.512 137.892 125.317 137.97C125.144 138.036 124.959 138.07 124.773 138.068C124.505 138.085 124.24 138.001 124.032 137.832C123.948 137.757 123.882 137.665 123.838 137.562C123.794 137.459 123.773 137.347 123.776 137.235C123.774 137.098 123.808 136.962 123.874 136.841C123.936 136.727 124.023 136.628 124.13 136.553C124.239 136.482 124.359 136.429 124.484 136.395C124.629 136.36 124.776 136.334 124.924 136.317C125.222 136.294 125.517 136.237 125.803 136.146C125.805 136.105 125.805 136.063 125.803 136.021C125.812 135.944 125.804 135.866 125.779 135.792C125.754 135.718 125.713 135.651 125.658 135.595C125.5 135.471 125.301 135.41 125.101 135.424C124.919 135.413 124.739 135.456 124.583 135.549C124.453 135.66 124.367 135.814 124.34 135.982L123.854 135.916C123.89 135.735 123.964 135.563 124.071 135.411C124.187 135.275 124.339 135.175 124.51 135.123C124.721 135.048 124.943 135.013 125.166 135.018C125.373 135.01 125.58 135.039 125.776 135.103C125.91 135.146 126.029 135.223 126.124 135.326C126.198 135.426 126.249 135.54 126.275 135.661C126.286 135.813 126.286 135.967 126.275 136.12V136.776C126.264 137.067 126.275 137.359 126.308 137.648C126.327 137.773 126.369 137.893 126.432 138.003H125.914C125.871 137.887 125.848 137.765 125.849 137.642ZM125.803 136.54C125.541 136.631 125.271 136.692 124.996 136.723C124.851 136.742 124.708 136.775 124.569 136.822C124.489 136.856 124.421 136.913 124.373 136.986C124.326 137.053 124.3 137.133 124.3 137.215C124.3 137.279 124.313 137.342 124.339 137.399C124.365 137.457 124.403 137.509 124.451 137.55C124.577 137.645 124.733 137.692 124.891 137.681C125.067 137.683 125.241 137.64 125.396 137.556C125.539 137.481 125.654 137.362 125.724 137.215C125.784 137.056 125.811 136.887 125.803 136.717V136.54Z" fill="#263238"/>
<path d="M127.109 134.539V133.975H127.608V134.539H127.109ZM127.109 138.002V135.083H127.608V138.002H127.109Z" fill="#263238"/>
<path d="M128.316 138.002V133.975H128.808V138.002H128.316Z" fill="#263238"/>
</g>
<g opacity="0.6">
<path d="M188.207 120.297V116.263H188.771V119.818H190.739V120.297H188.207Z" fill="#263238"/>
<path d="M193.199 119.936C193.04 120.073 192.861 120.184 192.667 120.264C192.493 120.331 192.309 120.364 192.123 120.363C191.855 120.38 191.59 120.296 191.381 120.127C191.25 120.002 191.164 119.837 191.135 119.658C191.107 119.479 191.138 119.296 191.224 119.136C191.286 119.021 191.373 118.922 191.48 118.847C191.587 118.774 191.707 118.721 191.834 118.69C191.979 118.655 192.126 118.629 192.274 118.611C192.574 118.584 192.87 118.527 193.159 118.441V118.316C193.168 118.239 193.16 118.162 193.136 118.088C193.112 118.014 193.073 117.947 193.021 117.89C192.86 117.766 192.66 117.706 192.457 117.719C192.276 117.704 192.094 117.748 191.939 117.844C191.809 117.955 191.723 118.108 191.696 118.277L191.211 118.211C191.247 118.029 191.32 117.857 191.427 117.706C191.546 117.571 191.697 117.469 191.867 117.411C192.079 117.342 192.3 117.309 192.523 117.312C192.727 117.304 192.932 117.333 193.126 117.398C193.259 117.441 193.379 117.518 193.474 117.621C193.553 117.717 193.605 117.832 193.625 117.955C193.639 118.108 193.639 118.262 193.625 118.414V119.07C193.614 119.362 193.625 119.653 193.658 119.943C193.676 120.068 193.719 120.188 193.782 120.297H193.264C193.22 120.182 193.198 120.06 193.199 119.936ZM193.159 118.828C192.899 118.923 192.628 118.987 192.352 119.018C192.204 119.03 192.058 119.063 191.919 119.116C191.841 119.15 191.773 119.205 191.723 119.274C191.676 119.344 191.651 119.426 191.65 119.51C191.65 119.573 191.664 119.636 191.69 119.693C191.716 119.751 191.754 119.803 191.801 119.845C191.927 119.94 192.083 119.986 192.241 119.976C192.419 119.976 192.595 119.934 192.752 119.851C192.893 119.77 193.007 119.649 193.08 119.503C193.141 119.347 193.168 119.179 193.159 119.011V118.828Z" fill="#263238"/>
<path d="M194.229 119.425L194.714 119.346C194.72 119.433 194.744 119.518 194.783 119.596C194.823 119.673 194.877 119.742 194.944 119.799C195.094 119.912 195.28 119.968 195.468 119.956C195.648 119.971 195.827 119.923 195.973 119.818C196.024 119.78 196.066 119.73 196.096 119.674C196.125 119.617 196.142 119.554 196.144 119.49C196.145 119.437 196.131 119.385 196.105 119.338C196.078 119.292 196.04 119.254 195.993 119.228C195.834 119.148 195.664 119.09 195.488 119.057C195.231 118.999 194.979 118.92 194.734 118.821C194.604 118.763 194.494 118.667 194.419 118.546C194.345 118.428 194.307 118.291 194.307 118.152C194.305 118.024 194.335 117.897 194.393 117.783C194.451 117.668 194.537 117.57 194.642 117.496C194.738 117.43 194.844 117.381 194.957 117.352C195.095 117.312 195.239 117.292 195.383 117.293C195.589 117.289 195.793 117.322 195.987 117.391C196.138 117.439 196.271 117.533 196.367 117.66C196.462 117.794 196.521 117.95 196.538 118.113L196.059 118.178C196.043 118.039 195.972 117.912 195.862 117.824C195.733 117.73 195.575 117.685 195.416 117.7C195.246 117.684 195.076 117.723 194.93 117.811C194.887 117.84 194.851 117.879 194.826 117.924C194.801 117.97 194.787 118.021 194.786 118.073C194.784 118.136 194.805 118.196 194.845 118.244C194.895 118.307 194.96 118.354 195.035 118.382L195.475 118.506C195.722 118.567 195.966 118.644 196.203 118.736C196.335 118.787 196.449 118.876 196.531 118.992C196.613 119.119 196.654 119.267 196.649 119.418C196.65 119.585 196.599 119.747 196.505 119.884C196.401 120.032 196.258 120.148 196.092 120.219C195.898 120.305 195.687 120.348 195.475 120.343C195.168 120.364 194.863 120.281 194.609 120.107C194.401 119.935 194.265 119.692 194.229 119.425Z" fill="#263238"/>
<path d="M198.316 119.851L198.388 120.29C198.265 120.317 198.14 120.333 198.014 120.336C197.872 120.342 197.73 120.312 197.601 120.251C197.509 120.199 197.435 120.118 197.391 120.022C197.339 119.832 197.32 119.634 197.332 119.438V117.758H196.965V117.378H197.332V116.656L197.824 116.354V117.378H198.316V117.758H197.824V119.47C197.809 119.559 197.809 119.65 197.824 119.739C197.841 119.779 197.868 119.813 197.903 119.838C197.959 119.85 198.017 119.85 198.073 119.838L198.316 119.851Z" fill="#263238"/>
<path d="M200.363 120.297V117.378H200.809V117.791C200.909 117.637 201.048 117.511 201.211 117.427C201.375 117.343 201.557 117.303 201.741 117.312C201.907 117.308 202.073 117.34 202.226 117.404C202.356 117.456 202.47 117.542 202.554 117.653C202.633 117.763 202.686 117.888 202.712 118.021C202.726 118.18 202.726 118.34 202.712 118.5V120.297H202.22V118.519C202.227 118.366 202.207 118.213 202.161 118.067C202.122 117.967 202.05 117.884 201.957 117.83C201.852 117.768 201.732 117.736 201.61 117.739C201.409 117.734 201.214 117.807 201.065 117.942C200.976 118.046 200.91 118.167 200.871 118.298C200.831 118.429 200.819 118.567 200.836 118.703V120.297H200.363Z" fill="#263238"/>
<path d="M205.401 119.936C205.243 120.073 205.064 120.184 204.87 120.264C204.696 120.331 204.512 120.365 204.326 120.363C204.059 120.381 203.797 120.296 203.591 120.126C203.505 120.051 203.438 119.958 203.392 119.854C203.347 119.75 203.325 119.637 203.328 119.523C203.327 119.388 203.361 119.254 203.427 119.136C203.489 119.021 203.576 118.922 203.683 118.847C203.79 118.774 203.91 118.721 204.037 118.69C204.182 118.655 204.329 118.628 204.476 118.611C204.777 118.584 205.073 118.527 205.362 118.44V118.316C205.371 118.239 205.363 118.161 205.339 118.088C205.315 118.014 205.276 117.947 205.224 117.889C205.064 117.765 204.863 117.704 204.66 117.719C204.479 117.705 204.297 117.749 204.142 117.844C204.012 117.955 203.926 118.108 203.899 118.276L203.414 118.211C203.449 118.029 203.523 117.857 203.63 117.706C203.749 117.571 203.9 117.469 204.07 117.411C204.282 117.342 204.503 117.309 204.726 117.312C204.933 117.305 205.139 117.334 205.336 117.397C205.467 117.441 205.585 117.518 205.677 117.62C205.755 117.717 205.807 117.832 205.828 117.955C205.842 118.108 205.842 118.262 205.828 118.414V119.07C205.821 119.361 205.832 119.653 205.861 119.943C205.879 120.068 205.922 120.188 205.985 120.297H205.467C205.423 120.182 205.401 120.059 205.401 119.936ZM205.362 118.828C205.102 118.923 204.831 118.987 204.555 119.018C204.407 119.031 204.261 119.064 204.122 119.116C204.044 119.15 203.976 119.205 203.925 119.274C203.881 119.344 203.858 119.426 203.86 119.51C203.859 119.573 203.871 119.635 203.896 119.693C203.921 119.75 203.958 119.802 204.004 119.844C204.13 119.94 204.286 119.986 204.444 119.976C204.622 119.976 204.797 119.933 204.955 119.851C205.096 119.77 205.21 119.649 205.283 119.503C205.344 119.347 205.371 119.179 205.362 119.011V118.828Z" fill="#263238"/>
<path d="M206.627 120.297V117.378H207.066V117.784C207.159 117.642 207.285 117.525 207.434 117.443C207.591 117.353 207.771 117.307 207.952 117.312C208.138 117.305 208.322 117.351 208.483 117.443C208.621 117.534 208.725 117.668 208.779 117.824C208.871 117.668 209.002 117.538 209.16 117.449C209.318 117.359 209.496 117.312 209.677 117.312C209.797 117.306 209.916 117.324 210.029 117.365C210.142 117.405 210.245 117.468 210.333 117.548C210.507 117.755 210.591 118.021 210.57 118.29V120.297H210.078V118.454C210.084 118.31 210.066 118.165 210.025 118.027C209.996 117.939 209.935 117.864 209.854 117.817C209.765 117.764 209.663 117.736 209.559 117.739C209.464 117.733 209.369 117.749 209.281 117.784C209.193 117.819 209.113 117.873 209.048 117.942C208.972 118.032 208.915 118.137 208.88 118.25C208.845 118.362 208.833 118.481 208.844 118.598V120.297H208.346V118.401C208.358 118.227 208.317 118.053 208.228 117.903C208.181 117.845 208.12 117.8 208.051 117.771C207.983 117.743 207.908 117.731 207.834 117.739C207.697 117.738 207.563 117.777 207.447 117.85C207.327 117.926 207.235 118.039 207.185 118.172C207.124 118.369 207.097 118.575 207.106 118.782V120.297H206.627Z" fill="#263238"/>
<path d="M213.312 119.352L213.824 119.418C213.76 119.694 213.602 119.94 213.377 120.113C213.135 120.286 212.842 120.374 212.544 120.363C212.357 120.374 212.169 120.344 211.993 120.276C211.818 120.209 211.659 120.104 211.528 119.969C211.263 119.662 211.129 119.265 211.154 118.86C211.127 118.446 211.261 118.037 211.528 117.719C211.654 117.586 211.807 117.481 211.976 117.411C212.146 117.341 212.328 117.307 212.512 117.312C212.69 117.306 212.868 117.338 213.033 117.406C213.198 117.474 213.347 117.576 213.469 117.706C213.734 118.018 213.868 118.419 213.843 118.828C213.843 118.86 213.843 118.906 213.843 118.959H211.665C211.665 119.231 211.763 119.494 211.941 119.7C212.019 119.783 212.114 119.849 212.219 119.893C212.324 119.937 212.437 119.958 212.551 119.956C212.718 119.958 212.881 119.908 213.017 119.812C213.157 119.69 213.259 119.531 213.312 119.352ZM211.692 118.552H213.318C213.312 118.354 213.249 118.163 213.135 118.001C213.06 117.91 212.966 117.837 212.859 117.788C212.752 117.739 212.636 117.716 212.518 117.719C212.413 117.716 212.308 117.734 212.21 117.772C212.112 117.81 212.023 117.868 211.947 117.942C211.788 118.105 211.696 118.324 211.692 118.552Z" fill="#263238"/>
</g>
<path d="M219.105 160.005H196.67C194.692 160.005 193.088 161.608 193.088 163.587V167.641C193.088 169.619 194.692 171.222 196.67 171.222H219.105C221.083 171.222 222.687 169.619 222.687 167.641V163.587C222.687 161.608 221.083 160.005 219.105 160.005Z" fill="#263238"/>
<path opacity="0.2" d="M254.923 160.005H232.488C230.51 160.005 228.906 161.608 228.906 163.587V167.641C228.906 169.619 230.51 171.222 232.488 171.222H254.923C256.901 171.222 258.505 169.619 258.505 167.641V163.587C258.505 161.608 256.901 160.005 254.923 160.005Z" fill="#263238"/>
<path d="M90.2482 57.1903C85.4004 56.4621 84.2983 60.8639 79.2012 60.6867C79.4956 61.5199 79.9538 62.2857 80.5486 62.9391C81.1434 63.5925 81.863 64.1204 82.6649 64.4915C82.6649 64.4915 78.6173 67.4304 79.5226 71.8256C82.6911 68.2373 86.9485 71.6419 91.5865 71.5042C101.21 71.2024 104.706 66.7482 101.354 62.9237C104.451 58.9877 95.9817 56.9016 96.1785 53.9824C95.2076 54.4351 95.2404 56.2981 95.2404 56.2981C92.8846 56.3758 90.578 55.6131 88.7329 54.1464C88.6082 55.9439 90.2482 57.1903 90.2482 57.1903Z" fill="#263238"/>
<path d="M99.5566 62.7401C99.9614 62.8424 100.383 62.8556 100.794 62.7786C101.204 62.7016 101.593 62.5363 101.933 62.2942C102.273 62.0521 102.556 61.7389 102.763 61.3764C102.97 61.0139 103.096 60.6107 103.132 60.1948C104.641 63.4355 102.272 65.1935 99.5566 62.7401Z" fill="#263238"/>
<path d="M104.083 260.295L99.517 262.925L92.793 252.783L97.3587 250.153L104.083 260.295Z" fill="#FF8B7B"/>
<path d="M98.9664 262.538L104.096 259.586C104.137 259.558 104.184 259.539 104.232 259.53C104.281 259.52 104.331 259.521 104.379 259.531C104.428 259.542 104.473 259.562 104.514 259.59C104.554 259.619 104.589 259.655 104.615 259.697L107.239 263.581C107.3 263.685 107.34 263.8 107.357 263.92C107.374 264.04 107.367 264.162 107.336 264.279C107.306 264.396 107.252 264.506 107.179 264.602C107.106 264.698 107.015 264.779 106.911 264.84C105.107 265.844 104.195 266.231 101.938 267.53C100.547 268.33 95.5355 271.007 91.8357 270.725C89.684 270.561 89.6315 268.593 90.563 268.376C94.7417 267.412 97.6609 265.018 98.3629 263.266C98.4812 262.965 98.6927 262.71 98.9664 262.538Z" fill="#263238"/>
<path opacity="0.2" d="M97.3587 250.153L92.793 252.783L96.2632 258.012L100.829 255.381L97.3587 250.153Z" fill="black"/>
<path d="M72.0044 132.473C72.0044 132.473 60.9573 175.92 59.8028 190.935C58.5433 207.375 93.4818 257.441 93.4818 257.441L102.01 252.967C102.01 252.967 85.8329 224.411 75.0417 192.123C80.2897 175.231 90.7135 133.903 90.7135 133.903L72.0044 132.473Z" fill="#263238"/>
<g opacity="0.3">
<path d="M72.0044 132.473C72.0044 132.473 60.9573 175.92 59.8028 190.935C58.5433 207.375 93.4818 257.441 93.4818 257.441L102.01 252.967C102.01 252.967 85.8329 224.411 75.0417 192.123C80.2897 175.231 90.7135 133.903 90.7135 133.903L72.0044 132.473Z" fill="white"/>
</g>
<path opacity="0.4" d="M81.7927 149.568C77.4565 157.165 75.9937 175.31 77.1089 185.222C80.1396 174.667 83.9575 160.182 86.7849 149.299C84.8825 147.81 83.0129 147.403 81.7927 149.568Z" fill="#263238"/>
<path d="M102.325 252.941L93.1737 257.736L90.5234 254.666L101.367 249.838L102.325 252.941Z" fill="#263238"/>
<path d="M97.8105 264.257C98.2137 264.011 98.5897 263.723 98.9323 263.397C98.9432 263.377 98.9489 263.355 98.9489 263.332C98.9489 263.309 98.9432 263.286 98.9323 263.266C98.9245 263.244 98.9104 263.225 98.8917 263.211C98.873 263.197 98.8506 263.189 98.8273 263.187C98.6239 263.187 96.8199 263.037 96.387 263.574C96.3381 263.635 96.3057 263.708 96.2931 263.785C96.2804 263.862 96.2879 263.941 96.3148 264.014C96.3393 264.132 96.3956 264.241 96.4778 264.329C96.5599 264.417 96.6647 264.48 96.7806 264.513C97.1439 264.561 97.5121 264.47 97.8105 264.257ZM98.5518 263.41C97.8302 264.066 97.2398 264.362 96.879 264.276C96.7347 264.244 96.6428 264.132 96.5838 263.942C96.5641 263.909 96.5537 263.872 96.5537 263.834C96.5537 263.795 96.5641 263.758 96.5838 263.725C96.8462 263.437 97.8236 263.384 98.5518 263.41Z" fill="#263238"/>
<path d="M98.8995 263.411L98.9388 263.371C98.9486 263.353 98.9537 263.333 98.9537 263.312C98.9537 263.292 98.9486 263.271 98.9388 263.253C98.9388 263.194 98.2828 261.836 97.535 261.659C97.4426 261.638 97.3467 261.636 97.2538 261.656C97.1609 261.675 97.0733 261.714 96.9971 261.771C96.9085 261.827 96.8411 261.911 96.8055 262.009C96.7698 262.108 96.768 262.215 96.8003 262.315C96.984 262.873 98.2172 263.424 98.8273 263.43C98.8528 263.431 98.878 263.424 98.8995 263.411ZM97.2004 261.935C97.287 261.889 97.3868 261.875 97.4825 261.895C97.9089 262 98.3878 262.728 98.624 263.161C98.0336 263.056 97.1611 262.604 97.0364 262.236C97.0364 262.171 97.0364 262.079 97.1545 261.967L97.2004 261.935Z" fill="#263238"/>
<path d="M79.8102 95.1926L75.0673 103.353C74.2867 104.711 73.5192 106.069 72.8041 107.401C72.4499 108.057 72.1481 108.713 71.8136 109.369C71.479 110.025 71.2363 110.641 71.1182 110.963L70.8624 108.536C70.928 108.837 70.9673 109.146 71.0264 109.428C71.0854 109.71 71.1248 110.005 71.1904 110.261C71.256 110.517 71.3019 110.792 71.3544 111.048L71.4396 111.429C71.4396 111.501 71.4396 111.56 71.4396 111.619C71.4396 111.678 71.4396 111.684 71.4396 111.711C71.4396 111.737 71.4396 111.776 71.3019 111.776C71.5811 111.813 71.8501 111.906 72.093 112.048C72.336 112.191 72.548 112.381 72.7165 112.606C72.885 112.832 73.0068 113.089 73.0745 113.362C73.1422 113.636 73.1545 113.92 73.1108 114.198C73.067 114.477 72.9681 114.743 72.8197 114.983C72.6714 115.222 72.4766 115.429 72.247 115.593C72.0173 115.756 71.7573 115.871 71.4824 115.932C71.2074 115.993 70.923 115.999 70.6459 115.948H70.1801H69.8521C69.6553 115.948 69.452 115.902 69.2683 115.87C68.9013 115.802 68.5412 115.701 68.1924 115.568C67.5428 115.316 66.9295 114.978 66.3688 114.564C65.8449 114.176 65.3614 113.737 64.9256 113.252C64.7156 113.016 64.5254 112.773 64.3286 112.524C64.1318 112.275 63.9875 112.026 63.8169 111.776C63.6358 111.504 63.5101 111.199 63.447 110.878C63.384 110.557 63.3849 110.227 63.4496 109.907L63.5611 109.349C63.7751 108.337 64.069 107.343 64.4401 106.377C64.7484 105.518 65.0961 104.718 65.4307 103.93C66.0867 102.363 66.8411 100.86 67.602 99.3844C68.363 97.9084 69.1436 96.4652 69.9505 95.0351C70.7574 93.605 71.5905 92.2143 72.4958 90.8039C73.102 89.8736 74.0472 89.2164 75.1305 88.9721C76.2137 88.7279 77.3495 88.9158 78.2963 89.4961C79.2431 90.0763 79.9263 91.003 80.2004 92.079C80.4745 93.1551 80.3181 94.2957 79.7643 95.2582L79.8102 95.1926Z" fill="#FF8B7B"/>
<path d="M77.1549 87.2482C82.4947 86.8481 85.1187 90.6201 82.5734 96.8389C81.0433 100.384 79.3063 103.836 77.3714 107.177C76.945 107.932 76.5579 108.601 76.2365 109.146L65.5371 100.827C67.6166 95.9009 73.5797 87.5434 77.1549 87.2482Z" fill="#263238"/>
<path opacity="0.3" d="M75.9858 93.3556C79.5282 91.0596 74.6016 101.838 72.5746 106.312L69.4258 103.865C70.272 100.67 73.2634 95.1202 75.9858 93.3556Z" fill="black"/>
<path d="M90.9563 267.74L85.7148 267.34L85.8657 255.145L91.1072 255.545L90.9563 267.74Z" fill="#FF8B7B"/>
<path d="M85.4852 266.71L91.3892 267.156C91.4895 267.161 91.5839 267.205 91.6525 267.278C91.721 267.352 91.7584 267.449 91.7565 267.55L91.6844 272.24C91.6777 272.361 91.647 272.48 91.5942 272.589C91.5413 272.699 91.4673 272.796 91.3763 272.877C91.2854 272.957 91.1795 273.019 91.0646 273.058C90.9497 273.098 90.8281 273.114 90.7069 273.106C88.6602 272.916 87.6893 272.719 85.0981 272.522C83.504 272.397 76.721 272.05 74.5234 271.866C72.3258 271.682 72.5554 269.524 73.4804 269.399C77.7181 268.835 82.9858 268.015 84.5471 266.966C84.8208 266.774 85.1523 266.684 85.4852 266.71Z" fill="#263238"/>
<path opacity="0.2" d="M91.1073 255.545L85.8658 255.145L85.7871 261.429L91.0351 261.83L91.1073 255.545Z" fill="black"/>
<path d="M82.2312 133.253C82.2312 133.253 79.0168 173.02 78.8396 188.102C78.6428 204.613 83.6416 259.75 83.6416 259.75L93.2454 260.485C93.2454 260.485 92.5238 207.007 94.2163 190.771C96.0531 173.151 100.028 134.611 100.028 134.611L82.2312 133.253Z" fill="#263238"/>
<path opacity="0.3" d="M82.2312 133.253C82.2312 133.253 79.0168 173.02 78.8396 188.102C78.6428 204.613 83.6416 259.75 83.6416 259.75L93.2454 260.485C93.2454 260.485 92.5238 207.007 94.2163 190.771C96.0531 173.151 100.028 134.611 100.028 134.611L82.2312 133.253Z" fill="white"/>
<path d="M93.633 260.511L83.2616 259.717L82.9336 256.03L94.3414 257.473L93.633 260.511Z" fill="#263238"/>
<path d="M83.564 267.484C84.0358 267.505 84.5085 267.476 84.9744 267.399C84.9974 267.396 85.0189 267.386 85.0364 267.371C85.0539 267.356 85.0666 267.336 85.0728 267.314C85.0782 267.29 85.0768 267.265 85.0687 267.241C85.0605 267.218 85.0461 267.198 85.0269 267.182C84.8695 267.058 83.4525 265.929 82.7965 266.133C82.7221 266.156 82.6547 266.197 82.6008 266.254C82.5468 266.31 82.5081 266.379 82.4882 266.454C82.4466 266.564 82.435 266.682 82.4546 266.797C82.4742 266.913 82.5243 267.021 82.5997 267.11C82.8629 267.351 83.2071 267.485 83.564 267.484ZM84.6464 267.196C83.6952 267.314 83.013 267.228 82.7834 266.973C82.7349 266.91 82.7039 266.836 82.6935 266.757C82.6831 266.679 82.6938 266.599 82.7243 266.526C82.7329 266.489 82.7505 266.455 82.7757 266.426C82.8009 266.398 82.8329 266.376 82.8687 266.362C83.2229 266.257 84.0691 266.763 84.6464 267.196Z" fill="#263238"/>
<path d="M84.9415 267.399C84.9607 267.405 84.9814 267.405 85.0006 267.399C85.0192 267.391 85.0355 267.378 85.0481 267.362C85.0607 267.346 85.0691 267.327 85.0727 267.307C85.0727 267.241 85.3023 265.746 84.8103 265.195C84.7493 265.121 84.6715 265.064 84.5836 265.028C84.4956 264.991 84.4001 264.976 84.3052 264.985C84.2001 264.978 84.0957 265.007 84.0097 265.068C83.9237 265.129 83.8613 265.218 83.8329 265.319C83.6755 265.883 84.3839 267.038 84.8825 267.386C84.9005 267.396 84.921 267.4 84.9415 267.399ZM84.3708 265.221C84.4204 265.223 84.4688 265.236 84.5129 265.259C84.5571 265.281 84.5958 265.313 84.6267 265.352C84.8832 265.875 84.9637 266.466 84.8563 267.038C84.4299 266.618 83.9641 265.726 84.0691 265.378C84.0691 265.313 84.1347 265.227 84.3183 265.221H84.3708Z" fill="#263238"/>
<path d="M72.0047 132.473L100.036 134.611C100.403 132.118 100.383 123.932 101.525 113.619C102.316 105.953 103.771 98.3692 105.874 90.9544C106.038 90.3968 106.209 89.8457 106.379 89.2947C106.379 89.2947 104.982 88.8946 102.961 88.4419C101.289 88.068 99.1893 87.6481 97.1164 87.3923C93.1659 86.8621 89.1885 86.5577 85.2034 86.4805C83.36 86.5133 81.5495 86.6773 80.1063 86.8478C78.2564 87.0774 77.1608 87.307 77.1608 87.307C77.1608 87.307 71.0338 102.277 72.0047 132.473Z" fill="#263238"/>
<path d="M73.2441 111.173C73.795 110.363 74.4993 109.67 75.3171 109.132C75.8619 108.873 76.3861 108.573 76.8849 108.234C76.9363 108.2 76.9957 108.181 77.057 108.177C77.1183 108.174 77.1794 108.187 77.234 108.215C77.2887 108.243 77.3349 108.285 77.3681 108.337C77.4013 108.388 77.4202 108.448 77.4229 108.509C77.4229 108.922 77.2261 109.585 76.1109 110.477C75.9403 111.789 73.9264 113.042 73.9264 113.042L73.2441 111.173Z" fill="#FF8B7B"/>
<path opacity="0.3" d="M77.2843 114.63L83.103 115.076L79.9476 103.281L74.1289 102.835L77.2843 114.63Z" fill="black"/>
<path d="M76.8858 114.597L82.7111 115.043L79.5558 103.248L73.7305 102.802L76.8858 114.597Z" fill="white"/>
<path opacity="0.3" d="M101.524 113.586C102.316 105.92 103.771 98.3367 105.874 90.9217C104.011 90.6199 100.796 90.5543 100.061 93.5457C99.2612 96.7535 99.458 104.462 101.524 113.586Z" fill="black"/>
<path d="M108.34 93.3553C108.635 94.2737 108.871 95.0675 109.094 95.9203C109.317 96.7731 109.521 97.6062 109.75 98.459C110.124 100.158 110.465 101.87 110.702 103.615C110.96 105.385 111.124 107.168 111.194 108.955C111.274 110.843 111.192 112.735 110.951 114.61V114.82C110.848 115.609 110.483 116.341 109.914 116.899C109.521 117.278 109.08 117.604 108.602 117.87C108.254 118.067 107.889 118.236 107.513 118.375C106.927 118.595 106.321 118.757 105.703 118.861C104.708 119.028 103.701 119.118 102.692 119.13C100.898 119.146 99.1057 119.043 97.3258 118.821C95.6005 118.611 93.908 118.336 92.2287 117.995C90.5493 117.654 88.9093 117.273 87.2365 116.781C86.7454 116.638 86.3221 116.323 86.0439 115.894C85.7658 115.464 85.6512 114.949 85.7212 114.443C85.7912 113.936 86.0411 113.471 86.4253 113.133C86.8094 112.795 87.3023 112.607 87.8138 112.602H87.8532L92.7469 112.55C94.3738 112.55 95.9876 112.491 97.5751 112.412C99.1626 112.333 100.724 112.209 102.167 112.012C102.813 111.924 103.452 111.786 104.076 111.599C104.274 111.54 104.465 111.461 104.647 111.363C104.706 111.363 104.699 111.31 104.68 111.323C104.561 111.367 104.455 111.439 104.371 111.533L103.302 113.823C103.327 112.389 103.257 110.956 103.092 109.532C102.921 108.043 102.659 106.521 102.377 104.993C102.095 103.464 101.721 101.929 101.38 100.401C101.209 99.6333 101.006 98.8657 100.816 98.0982L100.238 95.8678L100.206 95.7432C99.9449 94.6759 100.106 93.5492 100.656 92.5979C101.206 91.6467 102.101 90.9443 103.156 90.6372C104.211 90.3302 105.344 90.4421 106.318 90.9497C107.292 91.4573 108.033 92.3214 108.386 93.3619L108.34 93.3553Z" fill="#FF8B7B"/>
<path d="M106.373 89.2621C101.243 87.6549 98.1796 90.9349 99.0324 97.6196C99.6419 101.446 100.559 105.217 101.774 108.896L113.077 105.419C112.093 100.119 109.804 90.338 106.373 89.2621Z" fill="#263238"/>
<path d="M85.7801 86.448C89.2962 85.897 90.0506 83.824 89.9785 81.4231C89.9665 80.8279 89.9161 80.234 89.8276 79.6453L94.4196 76.3653L97.7849 73.9644C96.6434 77.7364 95.1609 84.6572 97.5881 87.4124C94.3456 89.7236 90.8452 91.6498 87.1577 93.1524C86.9429 93.2373 86.713 93.2776 86.4821 93.2707C86.2512 93.2638 86.0241 93.2099 85.8147 93.1123C85.6053 93.0147 85.4181 92.8754 85.2644 92.7029C85.1106 92.5305 84.9937 92.3285 84.9207 92.1093C83.8121 88.521 85.7801 86.448 85.7801 86.448Z" fill="#FF8B7B"/>
<path opacity="0.2" d="M89.8145 79.645C89.9029 80.2337 89.9533 80.8275 89.9653 81.4227C91.6053 81.2194 94.1506 79.9664 94.5114 78.1427C94.5491 77.5456 94.5116 76.9462 94.3999 76.3584L89.8145 79.645Z" fill="black"/>
<path d="M98.0408 66.2038C98.2836 71.4518 98.6968 74.476 96.3812 77.4936C92.9044 82.0265 86.2853 80.5177 84.4944 75.5256C82.8872 71.0123 82.7495 63.219 87.5711 60.4376C88.6088 59.8172 89.7909 59.4795 90.9998 59.4581C92.2086 59.4367 93.402 59.7324 94.461 60.3156C95.52 60.8989 96.4078 61.7494 97.0359 62.7825C97.6639 63.8156 98.0104 64.9952 98.0408 66.2038Z" fill="#FF8B7B"/>
<path d="M95.8503 63.0286C94.3743 65.705 95.496 67.6599 95.496 67.6599L95.7715 66.4004C95.7715 66.4004 97.6346 68.3684 97.0835 70.6513C100.35 68.9129 100.718 62.1561 95.8503 63.0286Z" fill="#263238"/>
<path d="M98.5732 63.8291C92.6692 65.1411 89.3499 64.531 88.3003 64.308C90.7734 64.1374 91.4228 62.996 91.4228 62.996C91.4228 62.996 85.5188 64.4458 84.3184 63.98C85.5057 60.3851 88.2544 58.732 93.85 58.9485C99.4457 59.165 98.5732 63.8291 98.5732 63.8291Z" fill="#263238"/>
<path d="M100.553 71.0713C100.018 72.2442 99.0895 73.1932 97.9288 73.7543C96.4397 74.4103 95.705 73.0983 96.1248 71.4715C96.4988 70.0283 97.7255 67.9422 99.2146 67.9487C100.704 67.9553 101.235 69.5953 100.553 71.0713Z" fill="#FF8B7B"/>
<path d="M90.3731 68.7163C90.419 69.1427 90.2353 69.51 89.9598 69.5494C89.6843 69.5887 89.4219 69.2739 89.376 68.854C89.3301 68.4342 89.5203 68.0603 89.7893 68.0209C90.0582 67.9815 90.3731 68.2964 90.3731 68.7163Z" fill="#263238"/>
<path d="M85.6421 69.3658C85.688 69.7856 85.5044 70.1595 85.2288 70.1989C84.9533 70.2382 84.6975 69.9234 84.6516 69.497C84.6056 69.0706 84.7893 68.7032 85.0648 68.6704C85.3404 68.6376 85.5962 68.9394 85.6421 69.3658Z" fill="#263238"/>
<path d="M87.1717 69.3721C86.8109 70.7323 86.2704 72.0383 85.5645 73.2556C86.3779 73.8525 87.6046 73.3606 87.6046 73.3606L87.1717 69.3721Z" fill="#FF5652"/>
<path d="M89.4414 74.2661C89.9182 74.1486 90.3661 73.935 90.7575 73.6383C91.1489 73.3416 91.4756 72.9682 91.7177 72.5408C91.7253 72.5263 91.7298 72.5104 91.731 72.494C91.7321 72.4777 91.7298 72.4612 91.7243 72.4458C91.7187 72.4304 91.71 72.4163 91.6987 72.4044C91.6874 72.3925 91.6738 72.3831 91.6586 72.3768C91.6298 72.3628 91.5967 72.3604 91.5661 72.3702C91.5356 72.38 91.51 72.4011 91.4946 72.4293C91.2251 72.8897 90.8527 73.2814 90.4066 73.5739C89.9605 73.8664 89.4528 74.0517 88.9231 74.1152C88.9069 74.1168 88.8912 74.1217 88.877 74.1296C88.8628 74.1375 88.8504 74.1483 88.8406 74.1612C88.8307 74.1741 88.8236 74.1889 88.8198 74.2047C88.8159 74.2205 88.8154 74.237 88.8182 74.253C88.8205 74.2694 88.8262 74.2852 88.8348 74.2995C88.8434 74.3137 88.8547 74.3261 88.8682 74.3359C88.8816 74.3457 88.8969 74.3526 88.9131 74.3564C88.9293 74.3602 88.9461 74.3607 88.9625 74.3579C89.1241 74.3387 89.2841 74.308 89.4414 74.2661Z" fill="#263238"/>
<path d="M91.6851 66.9778C91.724 66.9661 91.7599 66.946 91.7901 66.9188C91.8135 66.8956 91.8321 66.868 91.8447 66.8376C91.8574 66.8072 91.8639 66.7746 91.8639 66.7416C91.8639 66.7087 91.8574 66.6761 91.8447 66.6457C91.8321 66.6153 91.8135 66.5877 91.7901 66.5645C91.5246 66.2763 91.193 66.0569 90.8239 65.9255C90.4547 65.7941 90.0591 65.7545 89.6712 65.8101C89.6385 65.8154 89.6073 65.8275 89.5796 65.8456C89.5518 65.8638 89.5282 65.8875 89.5103 65.9153C89.4924 65.9432 89.4805 65.9745 89.4754 66.0072C89.4704 66.0399 89.4722 66.0734 89.481 66.1053C89.4871 66.1376 89.4998 66.1682 89.5182 66.1954C89.5366 66.2226 89.5603 66.2458 89.5878 66.2636C89.6154 66.2814 89.6464 66.2934 89.6787 66.2989C89.7111 66.3044 89.7442 66.3033 89.7762 66.2956C90.0815 66.2564 90.3917 66.2914 90.6806 66.3976C90.9695 66.5038 91.2286 66.6781 91.4358 66.9056C91.4663 66.94 91.5059 66.9651 91.55 66.9778C91.5941 66.9906 91.641 66.9906 91.6851 66.9778Z" fill="#263238"/>
<path d="M83.4252 68.0013C83.4645 67.9914 83.5007 67.9718 83.5305 67.9443C83.5603 67.9168 83.5827 67.8823 83.5957 67.8439C83.6935 67.5425 83.859 67.2675 84.0796 67.04C84.3003 66.8126 84.5701 66.6387 84.8684 66.5319C84.9006 66.5251 84.9311 66.5117 84.9579 66.4925C84.9847 66.4733 85.0071 66.4487 85.0238 66.4202C85.0405 66.3918 85.051 66.3602 85.0548 66.3275C85.0585 66.2947 85.0553 66.2616 85.0455 66.2301C85.0285 66.1669 84.9874 66.1128 84.9309 66.0797C84.8745 66.0466 84.8072 66.037 84.7437 66.053C84.3675 66.18 84.0262 66.3933 83.7471 66.6758C83.4681 66.9582 83.259 67.3021 83.1365 67.6799C83.1251 67.7109 83.1199 67.7438 83.1213 67.7768C83.1227 67.8098 83.1307 67.8422 83.1447 67.8722C83.1588 67.9021 83.1786 67.9289 83.2031 67.9511C83.2276 67.9732 83.2563 67.9903 83.2874 68.0013C83.3322 68.0158 83.3804 68.0158 83.4252 68.0013Z" fill="#263238"/>
<path d="M88.9287 113.075L83.543 109.749L84.0415 116.368C84.0415 116.368 88.5483 117.982 89.1649 115.594L88.9287 113.075Z" fill="#FF8B7B"/>
<path d="M85.255 110.805C84.6874 109.996 83.9677 109.306 83.1361 108.772C82.5328 108.438 81.9598 108.051 81.4239 107.617C81.3731 107.583 81.3141 107.563 81.253 107.56C81.1919 107.556 81.1309 107.569 81.0766 107.597C81.0222 107.626 80.9765 107.668 80.9441 107.72C80.9117 107.772 80.8939 107.831 80.8926 107.893C80.8926 108.299 81.2403 109.205 82.3358 110.123C82.5391 111.435 84.5727 112.681 84.5727 112.681L85.255 110.805Z" fill="#FF8B7B"/>
<path d="M78.8928 110.307L79.3717 114.453C79.3927 114.629 79.4666 114.795 79.5837 114.928C79.7008 115.062 79.8556 115.157 80.0277 115.2L84.0621 116.368L83.5635 109.808L79.8965 109.342C79.7633 109.321 79.627 109.331 79.4983 109.371C79.3696 109.412 79.252 109.481 79.1547 109.575C79.0575 109.668 78.9832 109.783 78.9377 109.91C78.8923 110.037 78.8769 110.173 78.8928 110.307Z" fill="#FF8B7B"/>
<path d="M70.6925 112.222L75.3567 109.867L75.2386 115.692C75.2386 115.692 70.4039 117.136 70.1152 114.676L70.6925 112.222Z" fill="#FF8B7B"/>
<path d="M77.3711 110.084V114.676C77.3713 114.801 77.3302 114.923 77.2544 115.022C77.1785 115.122 77.072 115.194 76.9513 115.227L75.2129 115.679L75.331 109.854L76.643 109.513C76.7298 109.488 76.8212 109.484 76.9099 109.501C76.9985 109.518 77.0818 109.557 77.1529 109.612C77.224 109.668 77.2808 109.74 77.3188 109.822C77.3567 109.904 77.3747 109.993 77.3711 110.084Z" fill="#FF8B7B"/>
<path d="M219.053 190.837C223.454 195.219 222.818 199.667 219.709 202.816C216.599 205.965 212.125 206.627 207.723 202.238C203.322 197.85 200.632 190.096 203.787 186.947C206.943 183.798 214.651 186.455 219.053 190.837Z" fill="#263238"/>
<path d="M234.633 219.589C229.195 220.554 225.915 217.976 224.793 214.289C223.672 210.602 225.082 207.198 230.527 206.233C235.972 205.269 243.358 207.125 244.5 210.825C245.641 214.525 240.078 218.632 234.633 219.589Z" fill="#263238"/>
<path d="M205.913 228.203C209.849 229.515 212.532 227.947 213.785 225.343C215.038 222.739 214.329 220.062 210.413 218.783C206.496 217.504 200.822 218.055 199.582 220.659C198.342 223.263 201.99 226.904 205.913 228.203Z" fill="#263238"/>
<path d="M237.677 190.581C233.911 195.744 229.26 196.164 225.534 193.94C221.808 191.716 220.417 187.675 224.183 182.519C227.948 177.363 235.453 173.04 239.179 175.264C242.905 177.488 241.449 185.425 237.677 190.581Z" fill="#263238"/>
<path d="M215.726 258.208C215.558 258.209 215.396 258.144 215.273 258.028C215.151 257.912 215.079 257.754 215.07 257.585C213.056 218.711 227.777 188.515 227.928 188.213C228.005 188.058 228.141 187.939 228.306 187.884C228.471 187.828 228.651 187.841 228.807 187.918C228.962 187.996 229.081 188.132 229.136 188.297C229.192 188.461 229.179 188.641 229.102 188.797C228.958 189.092 214.381 218.973 216.382 257.513C216.387 257.599 216.374 257.685 216.345 257.767C216.316 257.848 216.271 257.923 216.213 257.987C216.156 258.051 216.086 258.103 216.008 258.14C215.93 258.177 215.845 258.198 215.759 258.202L215.726 258.208Z" fill="#263238"/>
<path d="M221.172 209.684H221.113C221.027 209.677 220.943 209.652 220.866 209.612C220.79 209.572 220.721 209.518 220.666 209.451C220.61 209.385 220.569 209.308 220.543 209.225C220.517 209.142 220.508 209.055 220.516 208.969C220.516 208.884 221.251 200.441 215.446 197.64C215.368 197.603 215.298 197.551 215.24 197.487C215.182 197.423 215.137 197.348 215.108 197.267C215.079 197.185 215.067 197.099 215.071 197.013C215.076 196.927 215.097 196.842 215.134 196.764C215.171 196.686 215.223 196.617 215.287 196.559C215.351 196.501 215.426 196.456 215.507 196.427C215.589 196.398 215.675 196.386 215.761 196.39C215.847 196.394 215.932 196.416 216.01 196.453C222.648 199.628 221.861 208.707 221.822 209.094C221.806 209.255 221.73 209.405 221.61 209.514C221.49 209.623 221.334 209.683 221.172 209.684Z" fill="#263238"/>
<path d="M216.415 234.638C216.25 234.639 216.091 234.577 215.969 234.465C215.848 234.353 215.773 234.2 215.759 234.035C215.759 233.95 214.998 225.894 207.933 223.65C207.845 223.631 207.761 223.593 207.688 223.539C207.614 223.485 207.553 223.416 207.508 223.338C207.462 223.259 207.434 223.171 207.424 223.081C207.414 222.991 207.423 222.899 207.45 222.812C207.478 222.726 207.523 222.646 207.583 222.577C207.643 222.509 207.716 222.454 207.799 222.415C207.881 222.377 207.971 222.356 208.062 222.354C208.153 222.352 208.243 222.369 208.327 222.404C216.245 224.91 217.058 233.838 217.065 233.93C217.078 234.102 217.022 234.272 216.91 234.403C216.799 234.535 216.64 234.617 216.468 234.632L216.415 234.638Z" fill="#263238"/>
<path d="M217.833 224.601H217.676C217.507 224.56 217.362 224.453 217.272 224.304C217.182 224.155 217.155 223.976 217.197 223.808C220.267 211.344 229.956 211.652 230.054 211.652C230.228 211.66 230.392 211.737 230.51 211.865C230.627 211.994 230.689 212.164 230.681 212.338C230.673 212.512 230.596 212.675 230.468 212.793C230.339 212.91 230.169 212.972 229.995 212.964C229.641 212.964 221.277 212.741 218.469 224.116C218.432 224.256 218.349 224.379 218.234 224.467C218.119 224.555 217.978 224.602 217.833 224.601Z" fill="#263238"/>
<path d="M242.99 252.495C242.99 256.327 242.14 260.113 240.502 263.578C238.864 267.043 236.479 270.102 233.517 272.535C233.132 272.865 232.641 273.047 232.133 273.047H200.999C200.492 273.047 200.001 272.865 199.615 272.535C196.655 270.101 194.271 267.042 192.633 263.577C190.995 260.112 190.145 256.327 190.143 252.495C190.139 250.005 190.497 247.528 191.205 245.141C191.599 243.829 192.576 242.976 193.652 242.976H239.48C240.066 243.025 240.621 243.262 241.061 243.652C241.501 244.043 241.802 244.565 241.921 245.141C242.632 247.527 242.992 250.004 242.99 252.495Z" fill="#263238"/>
<path d="M242.911 254.403C227.832 259.308 213.042 265.059 198.611 271.63C198.788 271.794 198.979 271.951 199.162 272.115C213.408 265.639 228.005 259.965 242.885 255.118C242.878 254.882 242.898 254.646 242.911 254.403Z" fill="white"/>
<path d="M233.479 242.957H232.344C220.214 251.53 208.426 260.78 196.92 269.971C197.064 270.135 197.215 270.299 197.366 270.456C209.108 261.088 221.12 251.662 233.479 242.957Z" fill="white"/>
<path d="M226.098 273.047C231.543 268.586 236.874 263.994 242.092 259.271C242.197 258.891 242.288 258.51 242.374 258.123C236.754 263.257 230.985 268.241 225.068 273.073L226.098 273.047Z" fill="white"/>
<path d="M226.164 242.957C213.791 247.017 202.18 253.453 191.35 260.203C191.422 260.413 191.487 260.629 191.56 260.859C202.961 253.722 215.235 246.971 228.341 242.97L226.164 242.957Z" fill="white"/>
<path d="M190.543 248.034C194.042 246.188 197.608 244.496 201.242 242.957H199.602C196.585 244.269 193.613 245.69 190.687 247.221C190.635 247.49 190.589 247.765 190.543 248.034Z" fill="white"/>
<path d="M206.839 242.957H205.874L190.557 257.113C190.603 257.362 190.662 257.618 190.714 257.867L206.839 242.957Z" fill="white"/>
</g>
<defs>
<clipPath id="clip0_1459_38420">
<rect width="328" height="328" fill="white" transform="translate(0.5)"/>
</clipPath>
</defs>
</svg>
