<svg width="175" height="42" viewBox="0 0 175 42" fill="none" xmlns="http://www.w3.org/2000/svg">
<rect width="175" height="42" rx="8" fill="white"/>
<g clip-path="url(#clip0_1632_4557)">
<path d="M37.4375 5H18.5625C14.9439 5 12 7.94394 12 11.5625V30.4375C12 34.0561 14.9439 37 18.5625 37H37.4375C41.0561 37 44 34.0561 44 30.4375V11.5625C44 7.94394 41.0561 5 37.4375 5ZM42.125 30.4375C42.125 33.0222 40.0222 35.125 37.4375 35.125H18.5625C15.9778 35.125 13.875 33.0222 13.875 30.4375V11.5625C13.875 8.97781 15.9778 6.875 18.5625 6.875H37.4375C40.0222 6.875 42.125 8.97781 42.125 11.5625V30.4375Z" fill="#409EFF"/>
<path d="M31.1029 12.7203C30.9948 12.3172 30.7363 11.9802 30.3749 11.7715C29.6289 11.3408 28.6714 11.5972 28.2405 12.3435L28 12.76L27.7595 12.3434C27.3287 11.5973 26.3713 11.3408 25.6251 11.7715H25.6251C24.8789 12.2023 24.6224 13.1597 25.0532 13.9059L26.1958 15.8849L21.9799 23.1871H18.9063C18.0447 23.1871 17.3438 23.888 17.3438 24.7496C17.3438 25.6112 18.0447 26.3121 18.9063 26.3121H30.7725L28.9683 23.1871H25.5883L30.9468 13.906C31.1554 13.5445 31.2109 13.1234 31.1029 12.7203Z" fill="#409EFF"/>
<path d="M37.0937 23.1879H34.0201L30.5259 17.1357L28.7217 20.2607L34.1469 29.6575C34.3556 30.019 34.6925 30.2776 35.0957 30.3856C35.2304 30.4217 35.3669 30.4396 35.5027 30.4396C35.7734 30.4396 36.0407 30.3686 36.2815 30.2295C37.0276 29.7987 37.2841 28.8412 36.8533 28.0951L35.8242 26.3129H37.0937C37.9552 26.3129 38.6562 25.6119 38.6562 24.7504C38.6562 23.8888 37.9552 23.1879 37.0937 23.1879Z" fill="#409EFF"/>
<path d="M19.4538 27.5625L19.1465 28.0947C18.7158 28.8409 18.9723 29.7984 19.7184 30.2291C19.9639 30.3708 20.2321 30.4382 20.4971 30.4381C21.0374 30.4381 21.5638 30.1579 21.8529 29.6572L23.0623 27.5625H19.4538Z" fill="#409EFF"/>
</g>
<path d="M56.7 15V7.8H58.885C58.9617 7.8 59.0917 7.80167 59.275 7.805C59.4617 7.80833 59.64 7.82167 59.81 7.845C60.3567 7.92167 60.8133 8.125 61.18 8.455C61.5467 8.785 61.8217 9.205 62.005 9.715C62.1883 10.225 62.28 10.7867 62.28 11.4C62.28 12.0133 62.1883 12.575 62.005 13.085C61.8217 13.595 61.5467 14.015 61.18 14.345C60.8133 14.675 60.3567 14.8783 59.81 14.955C59.6433 14.975 59.465 14.9883 59.275 14.995C59.085 14.9983 58.955 15 58.885 15H56.7ZM57.46 14.295H58.885C59.0217 14.295 59.1683 14.2917 59.325 14.285C59.485 14.275 59.6217 14.2583 59.735 14.235C60.155 14.1617 60.4933 13.9917 60.75 13.725C61.01 13.4583 61.2 13.125 61.32 12.725C61.44 12.3217 61.5 11.88 61.5 11.4C61.5 10.9167 61.44 10.4733 61.32 10.07C61.2 9.66667 61.01 9.33333 60.75 9.07C60.49 8.80667 60.1517 8.63833 59.735 8.565C59.6217 8.54167 59.4833 8.52667 59.32 8.52C59.16 8.51 59.015 8.505 58.885 8.505H57.46V14.295ZM65.6738 15.15C65.1371 15.15 64.6788 15.0283 64.2988 14.785C63.9188 14.5417 63.6271 14.205 63.4238 13.775C63.2204 13.345 63.1188 12.8517 63.1188 12.295C63.1188 11.7283 63.2221 11.2317 63.4288 10.805C63.6354 10.3783 63.9288 10.0467 64.3088 9.81C64.6921 9.57 65.1471 9.45 65.6738 9.45C66.2138 9.45 66.6738 9.57167 67.0538 9.815C67.4371 10.055 67.7288 10.39 67.9288 10.82C68.1321 11.2467 68.2338 11.7383 68.2338 12.295C68.2338 12.8617 68.1321 13.36 67.9288 13.79C67.7254 14.2167 67.4321 14.55 67.0488 14.79C66.6654 15.03 66.2071 15.15 65.6738 15.15ZM65.6738 14.445C66.2738 14.445 66.7204 14.2467 67.0138 13.85C67.3071 13.45 67.4538 12.9317 67.4538 12.295C67.4538 11.6417 67.3054 11.1217 67.0088 10.735C66.7154 10.3483 66.2704 10.155 65.6738 10.155C65.2704 10.155 64.9371 10.2467 64.6738 10.43C64.4138 10.61 64.2188 10.8617 64.0888 11.185C63.9621 11.505 63.8988 11.875 63.8988 12.295C63.8988 12.945 64.0488 13.4667 64.3488 13.86C64.6488 14.25 65.0904 14.445 65.6738 14.445ZM70.2914 15L68.6414 9.595L69.3764 9.6L70.6564 13.795L71.9414 9.6H72.6114L73.8964 13.795L75.1864 9.6H75.9164L74.2664 15H73.6264L72.2764 10.7L70.9314 15H70.2914ZM80.7172 15V12.245C80.7172 11.945 80.6889 11.67 80.6322 11.42C80.5755 11.1667 80.4839 10.9467 80.3572 10.76C80.2339 10.57 80.0722 10.4233 79.8722 10.32C79.6755 10.2167 79.4355 10.165 79.1522 10.165C78.8922 10.165 78.6622 10.21 78.4622 10.3C78.2655 10.39 78.0989 10.52 77.9622 10.69C77.8289 10.8567 77.7272 11.06 77.6572 11.3C77.5872 11.54 77.5522 11.8133 77.5522 12.12L77.0322 12.005C77.0322 11.4517 77.1289 10.9867 77.3222 10.61C77.5155 10.2333 77.7822 9.94833 78.1222 9.755C78.4622 9.56167 78.8522 9.465 79.2922 9.465C79.6155 9.465 79.8972 9.515 80.1372 9.615C80.3805 9.715 80.5855 9.85 80.7522 10.02C80.9222 10.19 81.0589 10.385 81.1622 10.605C81.2655 10.8217 81.3405 11.0533 81.3872 11.3C81.4339 11.5433 81.4572 11.7867 81.4572 12.03V15H80.7172ZM76.8122 15V9.6H77.4772V10.93H77.5522V15H76.8122ZM82.8547 15V7.65H83.5897V15H82.8547ZM87.3437 15.15C86.807 15.15 86.3487 15.0283 85.9687 14.785C85.5887 14.5417 85.297 14.205 85.0937 13.775C84.8903 13.345 84.7887 12.8517 84.7887 12.295C84.7887 11.7283 84.892 11.2317 85.0987 10.805C85.3053 10.3783 85.5987 10.0467 85.9787 9.81C86.362 9.57 86.817 9.45 87.3437 9.45C87.8837 9.45 88.3437 9.57167 88.7237 9.815C89.107 10.055 89.3987 10.39 89.5987 10.82C89.802 11.2467 89.9037 11.7383 89.9037 12.295C89.9037 12.8617 89.802 13.36 89.5987 13.79C89.3953 14.2167 89.102 14.55 88.7187 14.79C88.3353 15.03 87.877 15.15 87.3437 15.15ZM87.3437 14.445C87.9437 14.445 88.3903 14.2467 88.6837 13.85C88.977 13.45 89.1237 12.9317 89.1237 12.295C89.1237 11.6417 88.9753 11.1217 88.6787 10.735C88.3853 10.3483 87.9403 10.155 87.3437 10.155C86.9403 10.155 86.607 10.2467 86.3437 10.43C86.0837 10.61 85.8887 10.8617 85.7587 11.185C85.632 11.505 85.5687 11.875 85.5687 12.295C85.5687 12.945 85.7187 13.4667 86.0187 13.86C86.3187 14.25 86.7603 14.445 87.3437 14.445ZM92.5516 15.15C92.145 15.15 91.8033 15.0767 91.5266 14.93C91.2533 14.7833 91.0483 14.5883 90.9116 14.345C90.775 14.1017 90.7066 13.8367 90.7066 13.55C90.7066 13.2567 90.765 13.0067 90.8816 12.8C91.0016 12.59 91.1633 12.4183 91.3666 12.285C91.5733 12.1517 91.8116 12.05 92.0816 11.98C92.355 11.9133 92.6566 11.855 92.9866 11.805C93.32 11.7517 93.645 11.7067 93.9616 11.67C94.2816 11.63 94.5616 11.5917 94.8016 11.555L94.5416 11.715C94.5516 11.1817 94.4483 10.7867 94.2316 10.53C94.015 10.2733 93.6383 10.145 93.1016 10.145C92.7316 10.145 92.4183 10.2283 92.1616 10.395C91.9083 10.5617 91.73 10.825 91.6266 11.185L90.9116 10.975C91.035 10.4917 91.2833 10.1167 91.6566 9.85C92.03 9.58333 92.515 9.45 93.1116 9.45C93.605 9.45 94.0233 9.54333 94.3666 9.73C94.7133 9.91333 94.9583 10.18 95.1016 10.53C95.1683 10.6867 95.2116 10.8617 95.2316 11.055C95.2516 11.2483 95.2616 11.445 95.2616 11.645V15H94.6066V13.645L94.7966 13.725C94.6133 14.1883 94.3283 14.5417 93.9416 14.785C93.555 15.0283 93.0916 15.15 92.5516 15.15ZM92.6366 14.515C92.98 14.515 93.28 14.4533 93.5366 14.33C93.7933 14.2067 94 14.0383 94.1566 13.825C94.3133 13.6083 94.415 13.365 94.4616 13.095C94.5016 12.9217 94.5233 12.7317 94.5266 12.525C94.53 12.315 94.5316 12.1583 94.5316 12.055L94.8116 12.2C94.5616 12.2333 94.29 12.2667 93.9966 12.3C93.7066 12.3333 93.42 12.3717 93.1366 12.415C92.8566 12.4583 92.6033 12.51 92.3766 12.57C92.2233 12.6133 92.075 12.675 91.9316 12.755C91.7883 12.8317 91.67 12.935 91.5766 13.065C91.4866 13.195 91.4416 13.3567 91.4416 13.55C91.4416 13.7067 91.48 13.8583 91.5566 14.005C91.6366 14.1517 91.7633 14.2733 91.9366 14.37C92.1133 14.4667 92.3466 14.515 92.6366 14.515ZM98.6583 15.15C98.1549 15.15 97.7249 15.025 97.3683 14.775C97.0116 14.5217 96.7383 14.18 96.5483 13.75C96.3583 13.32 96.2633 12.835 96.2633 12.295C96.2633 11.7583 96.3566 11.275 96.5433 10.845C96.7333 10.415 97.0049 10.075 97.3583 9.825C97.7116 9.575 98.1349 9.45 98.6283 9.45C99.1349 9.45 99.5616 9.57333 99.9083 9.82C100.255 10.0667 100.517 10.405 100.693 10.835C100.873 11.2617 100.963 11.7483 100.963 12.295C100.963 12.8317 100.875 13.3167 100.698 13.75C100.522 14.18 100.262 14.5217 99.9183 14.775C99.5749 15.025 99.1549 15.15 98.6583 15.15ZM98.7333 14.465C99.1166 14.465 99.4333 14.3717 99.6833 14.185C99.9333 13.9983 100.12 13.7417 100.243 13.415C100.367 13.085 100.428 12.7117 100.428 12.295C100.428 11.8717 100.367 11.4983 100.243 11.175C100.12 10.8483 99.9333 10.5933 99.6833 10.41C99.4366 10.2267 99.1249 10.135 98.7483 10.135C98.3616 10.135 98.0416 10.23 97.7883 10.42C97.5349 10.61 97.3466 10.8683 97.2233 11.195C97.1033 11.5217 97.0433 11.8883 97.0433 12.295C97.0433 12.705 97.1049 13.075 97.2283 13.405C97.3549 13.7317 97.5433 13.99 97.7933 14.18C98.0433 14.37 98.3566 14.465 98.7333 14.465ZM100.428 15V10.935H100.348V7.8H101.088V15H100.428ZM106.748 15.15C106.211 15.15 105.753 15.0283 105.373 14.785C104.993 14.5417 104.701 14.205 104.498 13.775C104.295 13.345 104.193 12.8517 104.193 12.295C104.193 11.7283 104.296 11.2317 104.503 10.805C104.71 10.3783 105.003 10.0467 105.383 9.81C105.766 9.57 106.221 9.45 106.748 9.45C107.288 9.45 107.748 9.57167 108.128 9.815C108.511 10.055 108.803 10.39 109.003 10.82C109.206 11.2467 109.308 11.7383 109.308 12.295C109.308 12.8617 109.206 13.36 109.003 13.79C108.8 14.2167 108.506 14.55 108.123 14.79C107.74 15.03 107.281 15.15 106.748 15.15ZM106.748 14.445C107.348 14.445 107.795 14.2467 108.088 13.85C108.381 13.45 108.528 12.9317 108.528 12.295C108.528 11.6417 108.38 11.1217 108.083 10.735C107.79 10.3483 107.345 10.155 106.748 10.155C106.345 10.155 106.011 10.2467 105.748 10.43C105.488 10.61 105.293 10.8617 105.163 11.185C105.036 11.505 104.973 11.875 104.973 12.295C104.973 12.945 105.123 13.4667 105.423 13.86C105.723 14.25 106.165 14.445 106.748 14.445ZM114.311 15V12.245C114.311 11.945 114.283 11.67 114.226 11.42C114.169 11.1667 114.078 10.9467 113.951 10.76C113.828 10.57 113.666 10.4233 113.466 10.32C113.269 10.2167 113.029 10.165 112.746 10.165C112.486 10.165 112.256 10.21 112.056 10.3C111.859 10.39 111.693 10.52 111.556 10.69C111.423 10.8567 111.321 11.06 111.251 11.3C111.181 11.54 111.146 11.8133 111.146 12.12L110.626 12.005C110.626 11.4517 110.723 10.9867 110.916 10.61C111.109 10.2333 111.376 9.94833 111.716 9.755C112.056 9.56167 112.446 9.465 112.886 9.465C113.209 9.465 113.491 9.515 113.731 9.615C113.974 9.715 114.179 9.85 114.346 10.02C114.516 10.19 114.653 10.385 114.756 10.605C114.859 10.8217 114.934 11.0533 114.981 11.3C115.028 11.5433 115.051 11.7867 115.051 12.03V15H114.311ZM110.406 15V9.6H111.071V10.93H111.146V15H110.406Z" fill="black"/>
<path d="M56.28 31L59.556 20.92H61.663L64.939 31H63.42L60.403 21.802H60.781L57.799 31H56.28ZM57.981 28.725V27.353H63.245V28.725H57.981ZM69.7438 31.21C69.0205 31.21 68.4138 31.035 67.9238 30.685C67.4338 30.3303 67.0628 29.852 66.8108 29.25C66.5588 28.648 66.4328 27.969 66.4328 27.213C66.4328 26.457 66.5565 25.778 66.8038 25.176C67.0558 24.574 67.4245 24.1003 67.9098 23.755C68.3998 23.405 69.0018 23.23 69.7158 23.23C70.4252 23.23 71.0365 23.405 71.5498 23.755C72.0678 24.1003 72.4668 24.574 72.7468 25.176C73.0268 25.7733 73.1668 26.4523 73.1668 27.213C73.1668 27.969 73.0268 28.6503 72.7468 29.257C72.4715 29.859 72.0772 30.335 71.5638 30.685C71.0552 31.035 70.4485 31.21 69.7438 31.21ZM66.1878 34.36V23.44H67.4898V28.879H67.6578V34.36H66.1878ZM69.5408 29.887C70.0075 29.887 70.3925 29.768 70.6958 29.53C71.0038 29.292 71.2325 28.9723 71.3818 28.571C71.5358 28.165 71.6128 27.7123 71.6128 27.213C71.6128 26.7183 71.5358 26.2703 71.3818 25.869C71.2325 25.4677 71.0015 25.148 70.6888 24.91C70.3762 24.672 69.9772 24.553 69.4918 24.553C69.0345 24.553 68.6565 24.665 68.3578 24.889C68.0638 25.113 67.8445 25.4257 67.6998 25.827C67.5598 26.2283 67.4898 26.6903 67.4898 27.213C67.4898 27.7357 67.5598 28.1977 67.6998 28.599C67.8398 29.0003 68.0615 29.3153 68.3648 29.544C68.6682 29.7727 69.0602 29.887 69.5408 29.887ZM78.2614 31.21C77.5381 31.21 76.9314 31.035 76.4414 30.685C75.9514 30.3303 75.5804 29.852 75.3284 29.25C75.0764 28.648 74.9504 27.969 74.9504 27.213C74.9504 26.457 75.0741 25.778 75.3214 25.176C75.5734 24.574 75.9421 24.1003 76.4274 23.755C76.9174 23.405 77.5194 23.23 78.2334 23.23C78.9428 23.23 79.5541 23.405 80.0674 23.755C80.5854 24.1003 80.9844 24.574 81.2644 25.176C81.5444 25.7733 81.6844 26.4523 81.6844 27.213C81.6844 27.969 81.5444 28.6503 81.2644 29.257C80.9891 29.859 80.5948 30.335 80.0814 30.685C79.5728 31.035 78.9661 31.21 78.2614 31.21ZM74.7054 34.36V23.44H76.0074V28.879H76.1754V34.36H74.7054ZM78.0584 29.887C78.5251 29.887 78.9101 29.768 79.2134 29.53C79.5214 29.292 79.7501 28.9723 79.8994 28.571C80.0534 28.165 80.1304 27.7123 80.1304 27.213C80.1304 26.7183 80.0534 26.2703 79.8994 25.869C79.7501 25.4677 79.5191 25.148 79.2064 24.91C78.8938 24.672 78.4948 24.553 78.0094 24.553C77.5521 24.553 77.1741 24.665 76.8754 24.889C76.5814 25.113 76.3621 25.4257 76.2174 25.827C76.0774 26.2283 76.0074 26.6903 76.0074 27.213C76.0074 27.7357 76.0774 28.1977 76.2174 28.599C76.3574 29.0003 76.5791 29.3153 76.8824 29.544C77.1858 29.7727 77.5778 29.887 78.0584 29.887ZM83.37 31V20.71H84.833V31H83.37ZM90.2881 31.21C89.5367 31.21 88.8764 31.0467 88.3071 30.72C87.7424 30.3887 87.3014 29.929 86.9841 29.341C86.6714 28.7483 86.5151 28.0623 86.5151 27.283C86.5151 26.457 86.6691 25.7407 86.9771 25.134C87.2897 24.5273 87.7237 24.0583 88.2791 23.727C88.8344 23.3957 89.4807 23.23 90.2181 23.23C90.9881 23.23 91.6437 23.4097 92.1851 23.769C92.7264 24.1237 93.1301 24.63 93.3961 25.288C93.6667 25.946 93.7741 26.7277 93.7181 27.633H92.2551V27.101C92.2457 26.2237 92.0777 25.575 91.7511 25.155C91.4291 24.735 90.9367 24.525 90.2741 24.525C89.5414 24.525 88.9907 24.756 88.6221 25.218C88.2534 25.68 88.0691 26.3473 88.0691 27.22C88.0691 28.0507 88.2534 28.6947 88.6221 29.152C88.9907 29.6047 89.5227 29.831 90.2181 29.831C90.6754 29.831 91.0697 29.7283 91.4011 29.523C91.7371 29.313 91.9984 29.0143 92.1851 28.627L93.6201 29.082C93.3261 29.7587 92.8804 30.2837 92.2831 30.657C91.6857 31.0257 91.0207 31.21 90.2881 31.21ZM87.5931 27.633V26.492H92.9901V27.633H87.5931ZM100.982 31.203C100.063 31.203 99.314 31 98.7353 30.594C98.1567 30.188 97.802 29.6163 97.6713 28.879L99.1693 28.648C99.2627 29.04 99.4773 29.3503 99.8133 29.579C100.154 29.803 100.576 29.915 101.08 29.915C101.538 29.915 101.895 29.8217 102.151 29.635C102.413 29.4483 102.543 29.1917 102.543 28.865C102.543 28.6737 102.497 28.5197 102.403 28.403C102.315 28.2817 102.126 28.1673 101.836 28.06C101.547 27.9527 101.106 27.8197 100.513 27.661C99.8647 27.493 99.349 27.3133 98.9663 27.122C98.5883 26.926 98.3177 26.6997 98.1543 26.443C97.9957 26.1817 97.9163 25.8667 97.9163 25.498C97.9163 25.0407 98.0377 24.6417 98.2803 24.301C98.523 23.9603 98.8637 23.6967 99.3023 23.51C99.7457 23.3233 100.264 23.23 100.856 23.23C101.435 23.23 101.951 23.321 102.403 23.503C102.856 23.685 103.222 23.944 103.502 24.28C103.782 24.6113 103.95 25.001 104.006 25.449L102.508 25.722C102.457 25.358 102.287 25.071 101.997 24.861C101.708 24.651 101.332 24.5367 100.87 24.518C100.427 24.4993 100.068 24.574 99.7923 24.742C99.517 24.9053 99.3793 25.1317 99.3793 25.421C99.3793 25.589 99.4307 25.7313 99.5333 25.848C99.6407 25.9647 99.846 26.0767 100.149 26.184C100.453 26.2913 100.901 26.4197 101.493 26.569C102.128 26.7323 102.632 26.9143 103.005 27.115C103.379 27.311 103.645 27.5467 103.803 27.822C103.967 28.0927 104.048 28.4217 104.048 28.809C104.048 29.5557 103.775 30.1413 103.229 30.566C102.688 30.9907 101.939 31.203 100.982 31.203ZM109.923 31C109.447 31.0933 108.981 31.133 108.523 31.119C108.066 31.105 107.658 31.0163 107.298 30.853C106.939 30.6897 106.668 30.433 106.486 30.083C106.323 29.7703 106.234 29.453 106.22 29.131C106.211 28.8043 106.206 28.4357 106.206 28.025V21.34H107.676V27.955C107.676 28.2583 107.679 28.522 107.683 28.746C107.693 28.97 107.742 29.159 107.83 29.313C107.998 29.6023 108.264 29.768 108.628 29.81C108.997 29.8473 109.429 29.831 109.923 29.761V31ZM104.757 24.616V23.44H109.923V24.616H104.757ZM114.458 31.21C113.702 31.21 113.047 31.0397 112.491 30.699C111.936 30.3583 111.507 29.8893 111.203 29.292C110.905 28.69 110.755 27.997 110.755 27.213C110.755 26.4243 110.909 25.7313 111.217 25.134C111.525 24.532 111.957 24.0653 112.512 23.734C113.068 23.398 113.716 23.23 114.458 23.23C115.214 23.23 115.87 23.4003 116.425 23.741C116.981 24.0817 117.41 24.5507 117.713 25.148C118.017 25.7453 118.168 26.4337 118.168 27.213C118.168 28.0017 118.014 28.697 117.706 29.299C117.403 29.8963 116.974 30.3653 116.418 30.706C115.863 31.042 115.21 31.21 114.458 31.21ZM114.458 29.831C115.182 29.831 115.721 29.5883 116.075 29.103C116.435 28.613 116.614 27.983 116.614 27.213C116.614 26.4243 116.432 25.7943 116.068 25.323C115.709 24.847 115.172 24.609 114.458 24.609C113.968 24.609 113.565 24.721 113.247 24.945C112.93 25.1643 112.694 25.47 112.54 25.862C112.386 26.2493 112.309 26.6997 112.309 27.213C112.309 28.0063 112.491 28.641 112.855 29.117C113.219 29.593 113.754 29.831 114.458 29.831ZM119.707 31V23.44H121.009V25.274L120.827 25.036C120.92 24.7933 121.041 24.5717 121.191 24.371C121.34 24.1657 121.513 23.9977 121.709 23.867C121.9 23.727 122.112 23.6197 122.346 23.545C122.584 23.4657 122.826 23.419 123.074 23.405C123.321 23.3863 123.559 23.398 123.788 23.44V24.812C123.54 24.7467 123.265 24.728 122.962 24.756C122.663 24.784 122.388 24.8797 122.136 25.043C121.898 25.197 121.709 25.3837 121.569 25.603C121.433 25.8223 121.335 26.0673 121.275 26.338C121.214 26.604 121.184 26.8863 121.184 27.185V31H119.707ZM128.337 31.21C127.586 31.21 126.925 31.0467 126.356 30.72C125.791 30.3887 125.35 29.929 125.033 29.341C124.72 28.7483 124.564 28.0623 124.564 27.283C124.564 26.457 124.718 25.7407 125.026 25.134C125.339 24.5273 125.773 24.0583 126.328 23.727C126.883 23.3957 127.53 23.23 128.267 23.23C129.037 23.23 129.693 23.4097 130.234 23.769C130.775 24.1237 131.179 24.63 131.445 25.288C131.716 25.946 131.823 26.7277 131.767 27.633H130.304V27.101C130.295 26.2237 130.127 25.575 129.8 25.155C129.478 24.735 128.986 24.525 128.323 24.525C127.59 24.525 127.04 24.756 126.671 25.218C126.302 25.68 126.118 26.3473 126.118 27.22C126.118 28.0507 126.302 28.6947 126.671 29.152C127.04 29.6047 127.572 29.831 128.267 29.831C128.724 29.831 129.119 29.7283 129.45 29.523C129.786 29.313 130.047 29.0143 130.234 28.627L131.669 29.082C131.375 29.7587 130.929 30.2837 130.332 30.657C129.735 31.0257 129.07 31.21 128.337 31.21ZM125.642 27.633V26.492H131.039V27.633H125.642Z" fill="black"/>
<defs>
<clipPath id="clip0_1632_4557">
<rect width="32" height="32" fill="white" transform="translate(12 5)"/>
</clipPath>
</defs>
</svg>
