<svg width="28" height="28" viewBox="0 0 28 28" fill="none" xmlns="http://www.w3.org/2000/svg">
<path fill-rule="evenodd" clip-rule="evenodd" d="M7.10188 6.25019L7.13398 6.25019L18.534 6.25019L18.5661 6.25019C19.3789 6.25018 20.0345 6.25018 20.5655 6.29355C21.1121 6.33821 21.5922 6.43257 22.0364 6.65892C22.7421 7.01844 23.3157 7.59212 23.6753 8.29772C23.8996 8.73805 23.9943 9.21367 24.0394 9.75437C24.1632 9.75692 24.2778 9.76104 24.3838 9.76767C24.6747 9.78588 24.95 9.82508 25.2193 9.92644C25.9605 10.2054 26.5454 10.7903 26.8244 11.5315C26.9258 11.8008 26.965 12.0761 26.9832 12.367C27.0007 12.6466 27.0007 12.9865 27.0007 13.3937V13.3938V13.4169V14.5835V14.6066V14.6067C27.0007 15.0139 27.0007 15.3538 26.9832 15.6334C26.965 15.9242 26.9258 16.1996 26.8244 16.4689C26.5454 17.21 25.9605 17.795 25.2193 18.0739C24.95 18.1753 24.6747 18.2145 24.3838 18.2327C24.2778 18.2393 24.1632 18.2434 24.0394 18.246C23.9943 18.7867 23.8996 19.2623 23.6753 19.7027C23.3157 20.4083 22.7421 20.9819 22.0365 21.3415C21.5922 21.5678 21.1121 21.6622 20.5655 21.7068C20.0345 21.7502 19.3789 21.7502 18.5661 21.7502H18.534L7.13399 21.7502H7.10186H7.10178C6.28899 21.7502 5.63341 21.7502 5.10252 21.7068C4.55588 21.6622 4.07574 21.5678 3.63152 21.3415C2.92591 20.9819 2.35224 20.4083 1.99271 19.7027C1.76637 19.2584 1.67201 18.7783 1.62735 18.2317C1.58397 17.7008 1.58398 17.0451 1.58399 16.2323L1.58399 16.2002L1.58398 11.8002L1.58398 11.7681C1.58398 10.9552 1.58397 10.2996 1.62735 9.76872C1.67201 9.22209 1.76637 8.74195 1.99271 8.29773C2.35223 7.59212 2.92591 7.01844 3.63152 6.65892C4.07574 6.43258 4.55588 6.33822 5.10252 6.29356C5.63343 6.25018 6.28904 6.25018 7.10188 6.25019ZM24.0835 16.7446C24.1586 16.7425 24.2269 16.7396 24.2901 16.7356C24.5113 16.7218 24.6197 16.6969 24.691 16.6701C25.0279 16.5433 25.2937 16.2774 25.4205 15.9405C25.4474 15.8692 25.4723 15.7608 25.4861 15.5397C25.5003 15.3125 25.5007 15.0198 25.5007 14.5835V13.4169C25.5007 12.9806 25.5003 12.6878 25.4861 12.4607C25.4722 12.2395 25.4474 12.1312 25.4205 12.0599C25.2937 11.723 25.0279 11.4571 24.691 11.3303C24.6197 11.3035 24.5113 11.2786 24.2901 11.2647C24.2269 11.2608 24.1586 11.2579 24.0835 11.2558C24.084 11.4192 24.084 11.5899 24.084 11.7681V11.8002L24.084 16.2002V16.2323C24.084 16.4105 24.084 16.5811 24.0835 16.7446ZM15.4719 2.81483C15.8504 2.98306 16.0209 3.42628 15.8527 3.80479L11.6547 13.2502L15.1673 13.2502C15.4212 13.2502 15.6578 13.3786 15.7962 13.5915C15.9345 13.8044 15.9558 14.0728 15.8527 14.3048L11.186 24.8048C11.0178 25.1833 10.5746 25.3538 10.1961 25.1855C9.81754 25.0173 9.64707 24.5741 9.8153 24.1956L14.0132 14.7502L10.5007 14.7502C10.2468 14.7502 10.0101 14.6217 9.87178 14.4089C9.73344 14.196 9.71218 13.9276 9.81529 13.6956L14.482 3.19558C14.6502 2.81707 15.0934 2.6466 15.4719 2.81483Z" fill="#F9B572"/>
</svg>
