<svg width="25" height="24" viewBox="0 0 25 24" fill="none" xmlns="http://www.w3.org/2000/svg">
<path d="M19.9138 23.0371C18.6216 24.3036 17.2106 24.1036 15.8524 23.5037C14.4151 22.8904 13.0964 22.8638 11.58 23.5037C9.68114 24.3303 8.67897 24.0903 7.54493 23.0371C1.10994 16.3313 2.05937 6.11923 9.36466 5.74594C11.1448 5.83926 12.3844 6.73248 13.4261 6.81247C14.9821 6.49251 16.4722 5.57263 18.1337 5.69261C20.1248 5.85259 21.6281 6.65249 22.6171 8.09231C18.5029 10.5853 19.4787 16.0646 23.25 17.5978C22.4984 19.5975 21.5226 21.5839 19.9006 23.0504L19.9138 23.0371ZM13.2942 5.66595C13.0964 2.69299 15.4832 0.23997 18.226 0C18.6084 3.43957 15.1403 5.99924 13.2942 5.66595Z" fill="black"/>
</svg>
