<svg width="175" height="42" viewBox="0 0 175 42" fill="none" xmlns="http://www.w3.org/2000/svg">
<rect width="175" height="42" rx="8" fill="white"/>
<path d="M40.0779 18.7314L34.9548 15.7725L29.71 21.0173L34.9545 26.2618L40.0953 23.293C40.897 22.806 41.3754 21.9551 41.3754 21.0173C41.3754 20.0795 40.8966 19.2287 40.0779 18.7314Z" fill="#FFCE00"/>
<path d="M29.7096 21.0177L15.4236 6.62891C14.9268 7.12579 14.625 7.80002 14.625 8.54535V33.4462C14.625 34.1915 14.9268 34.8658 15.4236 35.363L29.7096 21.0177Z" fill="url(#paint0_linear_1632_4575)"/>
<path d="M29.7098 21.0177L34.9546 15.7728L34.963 15.7645L27.9355 11.7184L18.6717 6.27382C17.8375 5.75917 16.826 5.74139 15.974 6.2205C15.7789 6.34453 15.6012 6.46894 15.4238 6.62852L29.7098 21.0177Z" fill="#00F076"/>
<path d="M15.4238 35.3625C15.6012 35.5221 15.7789 35.6465 15.974 35.7705C16.3998 36.0012 16.8438 36.1256 17.2873 36.1256C17.7664 36.1256 18.2278 35.9838 18.6539 35.7354L27.9351 30.3169L34.9626 26.2708L34.9543 26.2625L29.7098 21.0176L15.4238 35.3625Z" fill="#F63448"/>
<path d="M56.7 15V7.8H58.885C58.9617 7.8 59.0917 7.80167 59.275 7.805C59.4617 7.80833 59.64 7.82167 59.81 7.845C60.3567 7.92167 60.8133 8.125 61.18 8.455C61.5467 8.785 61.8217 9.205 62.005 9.715C62.1883 10.225 62.28 10.7867 62.28 11.4C62.28 12.0133 62.1883 12.575 62.005 13.085C61.8217 13.595 61.5467 14.015 61.18 14.345C60.8133 14.675 60.3567 14.8783 59.81 14.955C59.6433 14.975 59.465 14.9883 59.275 14.995C59.085 14.9983 58.955 15 58.885 15H56.7ZM57.46 14.295H58.885C59.0217 14.295 59.1683 14.2917 59.325 14.285C59.485 14.275 59.6217 14.2583 59.735 14.235C60.155 14.1617 60.4933 13.9917 60.75 13.725C61.01 13.4583 61.2 13.125 61.32 12.725C61.44 12.3217 61.5 11.88 61.5 11.4C61.5 10.9167 61.44 10.4733 61.32 10.07C61.2 9.66667 61.01 9.33333 60.75 9.07C60.49 8.80667 60.1517 8.63833 59.735 8.565C59.6217 8.54167 59.4833 8.52667 59.32 8.52C59.16 8.51 59.015 8.505 58.885 8.505H57.46V14.295ZM65.6738 15.15C65.1371 15.15 64.6788 15.0283 64.2988 14.785C63.9188 14.5417 63.6271 14.205 63.4238 13.775C63.2204 13.345 63.1188 12.8517 63.1188 12.295C63.1188 11.7283 63.2221 11.2317 63.4288 10.805C63.6354 10.3783 63.9288 10.0467 64.3088 9.81C64.6921 9.57 65.1471 9.45 65.6738 9.45C66.2138 9.45 66.6738 9.57167 67.0538 9.815C67.4371 10.055 67.7288 10.39 67.9288 10.82C68.1321 11.2467 68.2338 11.7383 68.2338 12.295C68.2338 12.8617 68.1321 13.36 67.9288 13.79C67.7254 14.2167 67.4321 14.55 67.0488 14.79C66.6654 15.03 66.2071 15.15 65.6738 15.15ZM65.6738 14.445C66.2738 14.445 66.7204 14.2467 67.0138 13.85C67.3071 13.45 67.4538 12.9317 67.4538 12.295C67.4538 11.6417 67.3054 11.1217 67.0088 10.735C66.7154 10.3483 66.2704 10.155 65.6738 10.155C65.2704 10.155 64.9371 10.2467 64.6738 10.43C64.4138 10.61 64.2188 10.8617 64.0888 11.185C63.9621 11.505 63.8988 11.875 63.8988 12.295C63.8988 12.945 64.0488 13.4667 64.3488 13.86C64.6488 14.25 65.0904 14.445 65.6738 14.445ZM70.2914 15L68.6414 9.595L69.3764 9.6L70.6564 13.795L71.9414 9.6H72.6114L73.8964 13.795L75.1864 9.6H75.9164L74.2664 15H73.6264L72.2764 10.7L70.9314 15H70.2914ZM80.7172 15V12.245C80.7172 11.945 80.6889 11.67 80.6322 11.42C80.5755 11.1667 80.4839 10.9467 80.3572 10.76C80.2339 10.57 80.0722 10.4233 79.8722 10.32C79.6755 10.2167 79.4355 10.165 79.1522 10.165C78.8922 10.165 78.6622 10.21 78.4622 10.3C78.2655 10.39 78.0989 10.52 77.9622 10.69C77.8289 10.8567 77.7272 11.06 77.6572 11.3C77.5872 11.54 77.5522 11.8133 77.5522 12.12L77.0322 12.005C77.0322 11.4517 77.1289 10.9867 77.3222 10.61C77.5155 10.2333 77.7822 9.94833 78.1222 9.755C78.4622 9.56167 78.8522 9.465 79.2922 9.465C79.6155 9.465 79.8972 9.515 80.1372 9.615C80.3805 9.715 80.5855 9.85 80.7522 10.02C80.9222 10.19 81.0589 10.385 81.1622 10.605C81.2655 10.8217 81.3405 11.0533 81.3872 11.3C81.4339 11.5433 81.4572 11.7867 81.4572 12.03V15H80.7172ZM76.8122 15V9.6H77.4772V10.93H77.5522V15H76.8122ZM82.8547 15V7.65H83.5897V15H82.8547ZM87.3437 15.15C86.807 15.15 86.3487 15.0283 85.9687 14.785C85.5887 14.5417 85.297 14.205 85.0937 13.775C84.8903 13.345 84.7887 12.8517 84.7887 12.295C84.7887 11.7283 84.892 11.2317 85.0987 10.805C85.3053 10.3783 85.5987 10.0467 85.9787 9.81C86.362 9.57 86.817 9.45 87.3437 9.45C87.8837 9.45 88.3437 9.57167 88.7237 9.815C89.107 10.055 89.3987 10.39 89.5987 10.82C89.802 11.2467 89.9037 11.7383 89.9037 12.295C89.9037 12.8617 89.802 13.36 89.5987 13.79C89.3953 14.2167 89.102 14.55 88.7187 14.79C88.3353 15.03 87.877 15.15 87.3437 15.15ZM87.3437 14.445C87.9437 14.445 88.3903 14.2467 88.6837 13.85C88.977 13.45 89.1237 12.9317 89.1237 12.295C89.1237 11.6417 88.9753 11.1217 88.6787 10.735C88.3853 10.3483 87.9403 10.155 87.3437 10.155C86.9403 10.155 86.607 10.2467 86.3437 10.43C86.0837 10.61 85.8887 10.8617 85.7587 11.185C85.632 11.505 85.5687 11.875 85.5687 12.295C85.5687 12.945 85.7187 13.4667 86.0187 13.86C86.3187 14.25 86.7603 14.445 87.3437 14.445ZM92.5516 15.15C92.145 15.15 91.8033 15.0767 91.5266 14.93C91.2533 14.7833 91.0483 14.5883 90.9116 14.345C90.775 14.1017 90.7066 13.8367 90.7066 13.55C90.7066 13.2567 90.765 13.0067 90.8816 12.8C91.0016 12.59 91.1633 12.4183 91.3666 12.285C91.5733 12.1517 91.8116 12.05 92.0816 11.98C92.355 11.9133 92.6566 11.855 92.9866 11.805C93.32 11.7517 93.645 11.7067 93.9616 11.67C94.2816 11.63 94.5616 11.5917 94.8016 11.555L94.5416 11.715C94.5516 11.1817 94.4483 10.7867 94.2316 10.53C94.015 10.2733 93.6383 10.145 93.1016 10.145C92.7316 10.145 92.4183 10.2283 92.1616 10.395C91.9083 10.5617 91.73 10.825 91.6266 11.185L90.9116 10.975C91.035 10.4917 91.2833 10.1167 91.6566 9.85C92.03 9.58333 92.515 9.45 93.1116 9.45C93.605 9.45 94.0233 9.54333 94.3666 9.73C94.7133 9.91333 94.9583 10.18 95.1016 10.53C95.1683 10.6867 95.2116 10.8617 95.2316 11.055C95.2516 11.2483 95.2616 11.445 95.2616 11.645V15H94.6066V13.645L94.7966 13.725C94.6133 14.1883 94.3283 14.5417 93.9416 14.785C93.555 15.0283 93.0916 15.15 92.5516 15.15ZM92.6366 14.515C92.98 14.515 93.28 14.4533 93.5366 14.33C93.7933 14.2067 94 14.0383 94.1566 13.825C94.3133 13.6083 94.415 13.365 94.4616 13.095C94.5016 12.9217 94.5233 12.7317 94.5266 12.525C94.53 12.315 94.5316 12.1583 94.5316 12.055L94.8116 12.2C94.5616 12.2333 94.29 12.2667 93.9966 12.3C93.7066 12.3333 93.42 12.3717 93.1366 12.415C92.8566 12.4583 92.6033 12.51 92.3766 12.57C92.2233 12.6133 92.075 12.675 91.9316 12.755C91.7883 12.8317 91.67 12.935 91.5766 13.065C91.4866 13.195 91.4416 13.3567 91.4416 13.55C91.4416 13.7067 91.48 13.8583 91.5566 14.005C91.6366 14.1517 91.7633 14.2733 91.9366 14.37C92.1133 14.4667 92.3466 14.515 92.6366 14.515ZM98.6583 15.15C98.1549 15.15 97.7249 15.025 97.3683 14.775C97.0116 14.5217 96.7383 14.18 96.5483 13.75C96.3583 13.32 96.2633 12.835 96.2633 12.295C96.2633 11.7583 96.3566 11.275 96.5433 10.845C96.7333 10.415 97.0049 10.075 97.3583 9.825C97.7116 9.575 98.1349 9.45 98.6283 9.45C99.1349 9.45 99.5616 9.57333 99.9083 9.82C100.255 10.0667 100.517 10.405 100.693 10.835C100.873 11.2617 100.963 11.7483 100.963 12.295C100.963 12.8317 100.875 13.3167 100.698 13.75C100.522 14.18 100.262 14.5217 99.9183 14.775C99.5749 15.025 99.1549 15.15 98.6583 15.15ZM98.7333 14.465C99.1166 14.465 99.4333 14.3717 99.6833 14.185C99.9333 13.9983 100.12 13.7417 100.243 13.415C100.367 13.085 100.428 12.7117 100.428 12.295C100.428 11.8717 100.367 11.4983 100.243 11.175C100.12 10.8483 99.9333 10.5933 99.6833 10.41C99.4366 10.2267 99.1249 10.135 98.7483 10.135C98.3616 10.135 98.0416 10.23 97.7883 10.42C97.5349 10.61 97.3466 10.8683 97.2233 11.195C97.1033 11.5217 97.0433 11.8883 97.0433 12.295C97.0433 12.705 97.1049 13.075 97.2283 13.405C97.3549 13.7317 97.5433 13.99 97.7933 14.18C98.0433 14.37 98.3566 14.465 98.7333 14.465ZM100.428 15V10.935H100.348V7.8H101.088V15H100.428ZM106.748 15.15C106.211 15.15 105.753 15.0283 105.373 14.785C104.993 14.5417 104.701 14.205 104.498 13.775C104.295 13.345 104.193 12.8517 104.193 12.295C104.193 11.7283 104.296 11.2317 104.503 10.805C104.71 10.3783 105.003 10.0467 105.383 9.81C105.766 9.57 106.221 9.45 106.748 9.45C107.288 9.45 107.748 9.57167 108.128 9.815C108.511 10.055 108.803 10.39 109.003 10.82C109.206 11.2467 109.308 11.7383 109.308 12.295C109.308 12.8617 109.206 13.36 109.003 13.79C108.8 14.2167 108.506 14.55 108.123 14.79C107.74 15.03 107.281 15.15 106.748 15.15ZM106.748 14.445C107.348 14.445 107.795 14.2467 108.088 13.85C108.381 13.45 108.528 12.9317 108.528 12.295C108.528 11.6417 108.38 11.1217 108.083 10.735C107.79 10.3483 107.345 10.155 106.748 10.155C106.345 10.155 106.011 10.2467 105.748 10.43C105.488 10.61 105.293 10.8617 105.163 11.185C105.036 11.505 104.973 11.875 104.973 12.295C104.973 12.945 105.123 13.4667 105.423 13.86C105.723 14.25 106.165 14.445 106.748 14.445ZM114.311 15V12.245C114.311 11.945 114.283 11.67 114.226 11.42C114.169 11.1667 114.078 10.9467 113.951 10.76C113.828 10.57 113.666 10.4233 113.466 10.32C113.269 10.2167 113.029 10.165 112.746 10.165C112.486 10.165 112.256 10.21 112.056 10.3C111.859 10.39 111.693 10.52 111.556 10.69C111.423 10.8567 111.321 11.06 111.251 11.3C111.181 11.54 111.146 11.8133 111.146 12.12L110.626 12.005C110.626 11.4517 110.723 10.9867 110.916 10.61C111.109 10.2333 111.376 9.94833 111.716 9.755C112.056 9.56167 112.446 9.465 112.886 9.465C113.209 9.465 113.491 9.515 113.731 9.615C113.974 9.715 114.179 9.85 114.346 10.02C114.516 10.19 114.653 10.385 114.756 10.605C114.859 10.8217 114.934 11.0533 114.981 11.3C115.028 11.5433 115.051 11.7867 115.051 12.03V15H114.311ZM110.406 15V9.6H111.071V10.93H111.146V15H110.406Z" fill="black"/>
<path d="M61.103 31.21C60.4263 31.21 59.8033 31.0933 59.234 30.86C58.6647 30.622 58.17 30.2767 57.75 29.824C57.33 29.3713 57.0033 28.8207 56.77 28.172C56.5367 27.5233 56.42 26.786 56.42 25.96C56.42 24.8727 56.6183 23.9393 57.015 23.16C57.4117 22.376 57.9623 21.774 58.667 21.354C59.3717 20.9293 60.1837 20.717 61.103 20.717C62.2883 20.717 63.2333 20.9923 63.938 21.543C64.6473 22.0937 65.1303 22.8543 65.387 23.825L63.903 24.091C63.6977 23.489 63.3663 23.0083 62.909 22.649C62.4517 22.2897 61.8777 22.1077 61.187 22.103C60.473 22.0983 59.878 22.257 59.402 22.579C58.9307 22.901 58.576 23.3537 58.338 23.937C58.1 24.5157 57.9787 25.19 57.974 25.96C57.9693 26.73 58.086 27.4043 58.324 27.983C58.562 28.557 58.919 29.005 59.395 29.327C59.8757 29.649 60.473 29.8123 61.187 29.817C61.761 29.8263 62.2533 29.7213 62.664 29.502C63.0793 29.278 63.4083 28.9513 63.651 28.522C63.8937 28.0927 64.05 27.5653 64.12 26.94H62.16V25.764H65.674C65.6833 25.848 65.6903 25.96 65.695 26.1C65.6997 26.2353 65.702 26.3217 65.702 26.359C65.702 27.2923 65.5223 28.1253 65.163 28.858C64.8037 29.5907 64.281 30.167 63.595 30.587C62.909 31.0023 62.0783 31.21 61.103 31.21ZM70.3802 31.21C69.6242 31.21 68.9685 31.0397 68.4132 30.699C67.8579 30.3583 67.4285 29.8893 67.1252 29.292C66.8265 28.69 66.6772 27.997 66.6772 27.213C66.6772 26.4243 66.8312 25.7313 67.1392 25.134C67.4472 24.532 67.8789 24.0653 68.4342 23.734C68.9895 23.398 69.6382 23.23 70.3802 23.23C71.1362 23.23 71.7919 23.4003 72.3472 23.741C72.9025 24.0817 73.3319 24.5507 73.6352 25.148C73.9385 25.7453 74.0902 26.4337 74.0902 27.213C74.0902 28.0017 73.9362 28.697 73.6282 29.299C73.3249 29.8963 72.8955 30.3653 72.3402 30.706C71.7849 31.042 71.1315 31.21 70.3802 31.21ZM70.3802 29.831C71.1035 29.831 71.6425 29.5883 71.9972 29.103C72.3565 28.613 72.5362 27.983 72.5362 27.213C72.5362 26.4243 72.3542 25.7943 71.9902 25.323C71.6309 24.847 71.0942 24.609 70.3802 24.609C69.8902 24.609 69.4865 24.721 69.1692 24.945C68.8519 25.1643 68.6162 25.47 68.4622 25.862C68.3082 26.2493 68.2312 26.6997 68.2312 27.213C68.2312 28.0063 68.4132 28.641 68.7772 29.117C69.1412 29.593 69.6755 29.831 70.3802 29.831ZM78.9114 31.21C78.1554 31.21 77.4998 31.0397 76.9444 30.699C76.3891 30.3583 75.9598 29.8893 75.6564 29.292C75.3578 28.69 75.2084 27.997 75.2084 27.213C75.2084 26.4243 75.3624 25.7313 75.6704 25.134C75.9784 24.532 76.4101 24.0653 76.9654 23.734C77.5208 23.398 78.1694 23.23 78.9114 23.23C79.6674 23.23 80.3231 23.4003 80.8784 23.741C81.4338 24.0817 81.8631 24.5507 82.1664 25.148C82.4698 25.7453 82.6214 26.4337 82.6214 27.213C82.6214 28.0017 82.4674 28.697 82.1594 29.299C81.8561 29.8963 81.4268 30.3653 80.8714 30.706C80.3161 31.042 79.6628 31.21 78.9114 31.21ZM78.9114 29.831C79.6348 29.831 80.1738 29.5883 80.5284 29.103C80.8878 28.613 81.0674 27.983 81.0674 27.213C81.0674 26.4243 80.8854 25.7943 80.5214 25.323C80.1621 24.847 79.6254 24.609 78.9114 24.609C78.4214 24.609 78.0178 24.721 77.7004 24.945C77.3831 25.1643 77.1474 25.47 76.9934 25.862C76.8394 26.2493 76.7624 26.6997 76.7624 27.213C76.7624 28.0063 76.9444 28.641 77.3084 29.117C77.6724 29.593 78.2068 29.831 78.9114 29.831ZM87.2747 34.57C86.8687 34.57 86.4744 34.507 86.0917 34.381C85.7137 34.255 85.3684 34.0683 85.0557 33.821C84.743 33.5783 84.484 33.2773 84.2787 32.918L85.6297 32.232C85.793 32.554 86.0264 32.7897 86.3297 32.939C86.633 33.0883 86.9527 33.163 87.2887 33.163C87.704 33.163 88.0587 33.0883 88.3527 32.939C88.6467 32.7943 88.8684 32.575 89.0177 32.281C89.1717 31.987 89.2464 31.623 89.2417 31.189V29.075H89.4167V23.44H90.7117V31.203C90.7117 31.4037 90.7047 31.595 90.6907 31.777C90.6767 31.959 90.651 32.141 90.6137 32.323C90.5064 32.8317 90.301 33.2517 89.9977 33.583C89.699 33.9143 89.3164 34.1617 88.8497 34.325C88.3877 34.4883 87.8627 34.57 87.2747 34.57ZM87.1627 31.21C86.458 31.21 85.849 31.035 85.3357 30.685C84.827 30.335 84.4327 29.859 84.1527 29.257C83.8774 28.6503 83.7397 27.969 83.7397 27.213C83.7397 26.4523 83.8797 25.7733 84.1597 25.176C84.4397 24.574 84.8364 24.1003 85.3497 23.755C85.8677 23.405 86.4814 23.23 87.1907 23.23C87.9047 23.23 88.5044 23.405 88.9897 23.755C89.4797 24.1003 89.8484 24.574 90.0957 25.176C90.3477 25.778 90.4737 26.457 90.4737 27.213C90.4737 27.969 90.3477 28.648 90.0957 29.25C89.8437 29.852 89.4727 30.3303 88.9827 30.685C88.4927 31.035 87.886 31.21 87.1627 31.21ZM87.3657 29.887C87.8464 29.887 88.2384 29.7727 88.5417 29.544C88.845 29.3153 89.0667 29.0003 89.2067 28.599C89.3467 28.1977 89.4167 27.7357 89.4167 27.213C89.4167 26.6903 89.3444 26.2283 89.1997 25.827C89.0597 25.4257 88.8404 25.113 88.5417 24.889C88.2477 24.665 87.872 24.553 87.4147 24.553C86.9294 24.553 86.5304 24.672 86.2177 24.91C85.905 25.148 85.6717 25.4677 85.5177 25.869C85.3684 26.2703 85.2937 26.7183 85.2937 27.213C85.2937 27.7123 85.3684 28.165 85.5177 28.571C85.6717 28.9723 85.9004 29.292 86.2037 29.53C86.5117 29.768 86.899 29.887 87.3657 29.887ZM92.8173 31V20.71H94.2803V31H92.8173ZM99.7353 31.21C98.984 31.21 98.3237 31.0467 97.7543 30.72C97.1897 30.3887 96.7487 29.929 96.4313 29.341C96.1187 28.7483 95.9623 28.0623 95.9623 27.283C95.9623 26.457 96.1163 25.7407 96.4243 25.134C96.737 24.5273 97.171 24.0583 97.7263 23.727C98.2817 23.3957 98.928 23.23 99.6653 23.23C100.435 23.23 101.091 23.4097 101.632 23.769C102.174 24.1237 102.577 24.63 102.843 25.288C103.114 25.946 103.221 26.7277 103.165 27.633H101.702V27.101C101.693 26.2237 101.525 25.575 101.198 25.155C100.876 24.735 100.384 24.525 99.7213 24.525C98.9887 24.525 98.438 24.756 98.0693 25.218C97.7007 25.68 97.5163 26.3473 97.5163 27.22C97.5163 28.0507 97.7007 28.6947 98.0693 29.152C98.438 29.6047 98.97 29.831 99.6653 29.831C100.123 29.831 100.517 29.7283 100.848 29.523C101.184 29.313 101.446 29.0143 101.632 28.627L103.067 29.082C102.773 29.7587 102.328 30.2837 101.73 30.657C101.133 31.0257 100.468 31.21 99.7353 31.21ZM97.0403 27.633V26.492H102.437V27.633H97.0403ZM107.539 31V20.92H111.613C111.711 20.92 111.832 20.9247 111.977 20.934C112.121 20.9387 112.259 20.9527 112.39 20.976C112.95 21.0647 113.416 21.256 113.79 21.55C114.168 21.844 114.45 22.215 114.637 22.663C114.823 23.111 114.917 23.6057 114.917 24.147C114.917 24.693 114.823 25.19 114.637 25.638C114.45 26.086 114.168 26.457 113.79 26.751C113.416 27.045 112.95 27.2363 112.39 27.325C112.259 27.3437 112.119 27.3577 111.97 27.367C111.825 27.3763 111.706 27.381 111.613 27.381H109.002V31H107.539ZM109.002 25.995H111.557C111.65 25.995 111.753 25.9903 111.865 25.981C111.981 25.9717 112.091 25.9553 112.194 25.932C112.492 25.862 112.733 25.7337 112.915 25.547C113.097 25.3557 113.227 25.1363 113.307 24.889C113.386 24.6417 113.426 24.3943 113.426 24.147C113.426 23.8997 113.386 23.6547 113.307 23.412C113.227 23.1647 113.097 22.9477 112.915 22.761C112.733 22.5697 112.492 22.439 112.194 22.369C112.091 22.341 111.981 22.3223 111.865 22.313C111.753 22.3037 111.65 22.299 111.557 22.299H109.002V25.995ZM116.456 31V20.71H117.919V31H116.456ZM122.156 31.21C121.596 31.21 121.127 31.1073 120.749 30.902C120.371 30.692 120.084 30.4167 119.888 30.076C119.697 29.7307 119.601 29.3527 119.601 28.942C119.601 28.5593 119.669 28.2233 119.804 27.934C119.939 27.6447 120.14 27.3997 120.406 27.199C120.672 26.9937 120.999 26.828 121.386 26.702C121.722 26.604 122.102 26.5177 122.527 26.443C122.952 26.3683 123.397 26.2983 123.864 26.233C124.335 26.1677 124.802 26.1023 125.264 26.037L124.732 26.331C124.741 25.7383 124.615 25.2997 124.354 25.015C124.097 24.7257 123.654 24.581 123.024 24.581C122.627 24.581 122.263 24.6743 121.932 24.861C121.601 25.043 121.37 25.3463 121.239 25.771L119.874 25.351C120.061 24.7023 120.415 24.1867 120.938 23.804C121.465 23.4213 122.165 23.23 123.038 23.23C123.715 23.23 124.303 23.3467 124.802 23.58C125.306 23.8087 125.675 24.1727 125.908 24.672C126.029 24.9193 126.104 25.1807 126.132 25.456C126.16 25.7313 126.174 26.0277 126.174 26.345V31H124.879V29.271L125.131 29.495C124.818 30.0737 124.419 30.5053 123.934 30.79C123.453 31.07 122.861 31.21 122.156 31.21ZM122.415 30.013C122.83 30.013 123.187 29.9407 123.486 29.796C123.785 29.6467 124.025 29.4577 124.207 29.229C124.389 29.0003 124.508 28.7623 124.564 28.515C124.643 28.291 124.688 28.039 124.697 27.759C124.711 27.479 124.718 27.255 124.718 27.087L125.194 27.262C124.732 27.332 124.312 27.395 123.934 27.451C123.556 27.507 123.213 27.563 122.905 27.619C122.602 27.6703 122.331 27.7333 122.093 27.808C121.892 27.878 121.713 27.962 121.554 28.06C121.4 28.158 121.276 28.277 121.183 28.417C121.094 28.557 121.05 28.7273 121.05 28.928C121.05 29.124 121.099 29.306 121.197 29.474C121.295 29.6373 121.444 29.768 121.645 29.866C121.846 29.964 122.102 30.013 122.415 30.013ZM128.59 34.36L130.053 30.377L130.074 31.553L126.777 23.44H128.303L130.767 29.705H130.319L132.671 23.44H134.155L129.983 34.36H128.59Z" fill="black"/>
<defs>
<linearGradient id="paint0_linear_1632_4575" x1="8.2404" y1="28.1794" x2="22.6073" y2="13.8122" gradientUnits="userSpaceOnUse">
<stop stop-color="#00E2FF"/>
<stop offset="1" stop-color="#00C5FF"/>
</linearGradient>
</defs>
</svg>
