<svg width="25" height="24" viewBox="0 0 25 24" fill="none" xmlns="http://www.w3.org/2000/svg">
<g clip-path="url(#clip0_7422_7941)">
<path d="M24.625 12C24.625 5.37258 19.2524 0 12.625 0C5.99758 0 0.625 5.37258 0.625 12C0.625 17.9895 5.0132 22.954 10.75 23.8542V15.4688H7.70312V12H10.75V9.35625C10.75 6.34875 12.5416 4.6875 15.2826 4.6875C16.5951 4.6875 17.9688 4.92188 17.9688 4.92188V7.875H16.4556C14.965 7.875 14.5 8.80008 14.5 9.75V12H17.8281L17.2961 15.4688H14.5V23.8542C20.2368 22.954 24.625 17.9895 24.625 12Z" fill="#1877F2"/>
<path d="M17.2961 15.4688L17.8281 12H14.5V9.75C14.5 8.80102 14.965 7.875 16.4556 7.875H17.9688V4.92188C17.9688 4.92188 16.5955 4.6875 15.2826 4.6875C12.5416 4.6875 10.75 6.34875 10.75 9.35625V12H7.70312V15.4688H10.75V23.8542C11.9924 24.0486 13.2576 24.0486 14.5 23.8542V15.4688H17.2961Z" fill="#FCFCFC"/>
</g>
<defs>
<clipPath id="clip0_7422_7941">
<rect width="24" height="24" fill="white" transform="translate(0.625)"/>
</clipPath>
</defs>
</svg>
