<svg width="404" height="197" viewBox="0 0 404 197" fill="none" xmlns="http://www.w3.org/2000/svg">
<g filter="url(#filter0_d_1498_50753)">
<rect x="40" y="40" width="324" height="140" rx="4" fill="white" shape-rendering="crispEdges"/>
<path fill-rule="evenodd" clip-rule="evenodd" d="M63.1019 54.2502L63.134 54.2502L74.534 54.2502L74.5661 54.2502C75.3789 54.2502 76.0345 54.2502 76.5655 54.2936C77.1121 54.3382 77.5922 54.4326 78.0364 54.6589C78.7421 55.0184 79.3157 55.5921 79.6753 56.2977C79.8996 56.7381 79.9943 57.2137 80.0394 57.7544C80.1632 57.7569 80.2778 57.761 80.3838 57.7677C80.6747 57.7859 80.95 57.8251 81.2193 57.9264C81.9605 58.2054 82.5454 58.7903 82.8244 59.5315C82.9258 59.8008 82.965 60.0761 82.9832 60.367C83.0007 60.6466 83.0007 60.9865 83.0007 61.3937V61.3938V61.4169V62.5835V62.6066V62.6067C83.0007 63.0139 83.0007 63.3538 82.9832 63.6334C82.965 63.9242 82.9258 64.1996 82.8244 64.4689C82.5454 65.21 81.9605 65.795 81.2193 66.0739C80.95 66.1753 80.6747 66.2145 80.3838 66.2327C80.2778 66.2393 80.1632 66.2434 80.0394 66.246C79.9943 66.7867 79.8996 67.2623 79.6753 67.7027C79.3157 68.4083 78.7421 68.9819 78.0365 69.3415C77.5922 69.5678 77.1121 69.6622 76.5655 69.7068C76.0345 69.7502 75.3789 69.7502 74.5661 69.7502H74.534L63.134 69.7502H63.1019H63.1018C62.289 69.7502 61.6334 69.7502 61.1025 69.7068C60.5559 69.6622 60.0757 69.5678 59.6315 69.3415C58.9259 68.9819 58.3522 68.4083 57.9927 67.7027C57.7664 67.2584 57.672 66.7783 57.6273 66.2317C57.584 65.7008 57.584 65.0451 57.584 64.2323L57.584 64.2002L57.584 59.8002L57.584 59.7681C57.584 58.9552 57.584 58.2996 57.6273 57.7687C57.672 57.2221 57.7664 56.7419 57.9927 56.2977C58.3522 55.5921 58.9259 55.0184 59.6315 54.6589C60.0757 54.4326 60.5559 54.3382 61.1025 54.2936C61.6334 54.2502 62.289 54.2502 63.1019 54.2502ZM80.0835 64.7446C80.1586 64.7425 80.2269 64.7396 80.2901 64.7356C80.5113 64.7218 80.6197 64.6969 80.691 64.6701C81.0279 64.5433 81.2937 64.2774 81.4205 63.9405C81.4474 63.8692 81.4723 63.7608 81.4861 63.5397C81.5003 63.3125 81.5007 63.0198 81.5007 62.5835V61.4169C81.5007 60.9806 81.5003 60.6878 81.4861 60.4607C81.4722 60.2395 81.4474 60.1312 81.4205 60.0599C81.2937 59.723 81.0279 59.4571 80.691 59.3303C80.6197 59.3035 80.5113 59.2786 80.2901 59.2647C80.2269 59.2608 80.1586 59.2579 80.0835 59.2558C80.084 59.4192 80.084 59.5899 80.084 59.7681V59.8002L80.084 64.2002V64.2323C80.084 64.4105 80.084 64.5811 80.0835 64.7446ZM71.4719 50.8148C71.8504 50.9831 72.0209 51.4263 71.8527 51.8048L67.6547 61.2502L71.1673 61.2502C71.4212 61.2502 71.6578 61.3786 71.7962 61.5915C71.9345 61.8044 71.9558 62.0728 71.8527 62.3048L67.186 72.8048C67.0178 73.1833 66.5746 73.3538 66.1961 73.1855C65.8175 73.0173 65.6471 72.5741 65.8153 72.1956L70.0132 62.7502L66.5007 62.7502C66.2468 62.7502 66.0101 62.6217 65.8718 62.4089C65.7334 62.196 65.7122 61.9276 65.8153 61.6956L70.482 51.1956C70.6502 50.8171 71.0934 50.6466 71.4719 50.8148Z" fill="#F9B572"/>
<path d="M57.501 108V94.605H59.534L64.284 103.364L69.015 94.605H71.01V108H68.806V98.975L64.968 105.967H63.543L59.705 99.013V108H57.501ZM78.3091 108.19C77.2578 108.19 76.3521 107.994 75.5921 107.601C74.8321 107.208 74.2431 106.651 73.8251 105.929C73.4198 105.207 73.2171 104.352 73.2171 103.364C73.2171 102.401 73.4135 101.559 73.8061 100.837C74.2115 100.115 74.7625 99.5513 75.4591 99.146C76.1685 98.728 76.9728 98.519 77.8721 98.519C79.1895 98.519 80.2281 98.937 80.9881 99.773C81.7608 100.609 82.1471 101.749 82.1471 103.193V103.896H75.4971C75.6745 105.555 76.6245 106.385 78.3471 106.385C78.8665 106.385 79.3858 106.309 79.9051 106.157C80.4245 105.992 80.8995 105.739 81.3301 105.397L81.9951 106.993C81.5518 107.36 80.9945 107.652 80.3231 107.867C79.6518 108.082 78.9805 108.19 78.3091 108.19ZM77.9671 100.134C77.2705 100.134 76.7068 100.349 76.2761 100.78C75.8455 101.211 75.5858 101.793 75.4971 102.528H80.1711C80.1205 101.755 79.9051 101.166 79.5251 100.761C79.1578 100.343 78.6385 100.134 77.9671 100.134ZM87.087 108.19C86.4156 108.19 85.814 108.063 85.282 107.81C84.7626 107.544 84.351 107.189 84.047 106.746C83.7556 106.303 83.61 105.802 83.61 105.245C83.61 104.561 83.7873 104.023 84.142 103.63C84.4966 103.225 85.073 102.933 85.871 102.756C86.669 102.579 87.7393 102.49 89.082 102.49H89.747V102.091C89.747 101.458 89.6076 101.002 89.329 100.723C89.0503 100.444 88.5816 100.305 87.923 100.305C87.4036 100.305 86.8716 100.387 86.327 100.552C85.7823 100.704 85.2313 100.945 84.674 101.274L83.99 99.659C84.3193 99.431 84.7056 99.2347 85.149 99.07C85.605 98.8927 86.08 98.7597 86.574 98.671C87.0806 98.5697 87.5556 98.519 87.999 98.519C89.3543 98.519 90.3613 98.8357 91.02 99.469C91.6786 100.09 92.008 101.059 92.008 102.376V108H89.785V106.518C89.5696 107.037 89.2276 107.449 88.759 107.753C88.2903 108.044 87.733 108.19 87.087 108.19ZM87.581 106.556C88.2016 106.556 88.7146 106.341 89.12 105.91C89.538 105.479 89.747 104.935 89.747 104.276V103.858H89.101C87.9103 103.858 87.0806 103.953 86.612 104.143C86.156 104.32 85.928 104.65 85.928 105.131C85.928 105.549 86.0736 105.891 86.365 106.157C86.6563 106.423 87.0616 106.556 87.581 106.556ZM97.8196 108.19C97.0343 108.19 96.2996 108.095 95.6156 107.905C94.9316 107.715 94.3616 107.443 93.9056 107.088L94.5136 105.53C94.9823 105.847 95.5079 106.094 96.0906 106.271C96.6733 106.436 97.2559 106.518 97.8386 106.518C98.4466 106.518 98.8963 106.417 99.1876 106.214C99.4916 105.999 99.6436 105.72 99.6436 105.378C99.6436 104.846 99.2509 104.504 98.4656 104.352L96.5656 103.991C94.9569 103.687 94.1526 102.851 94.1526 101.483C94.1526 100.875 94.3173 100.349 94.6466 99.906C94.9886 99.4627 95.4573 99.1207 96.0526 98.88C96.6479 98.6393 97.3319 98.519 98.1046 98.519C98.7633 98.519 99.3966 98.614 100.005 98.804C100.613 98.9813 101.132 99.2537 101.563 99.621L100.917 101.179C100.549 100.875 100.106 100.634 99.5866 100.457C99.0799 100.28 98.5923 100.191 98.1236 100.191C97.5029 100.191 97.0406 100.299 96.7366 100.514C96.4453 100.729 96.2996 101.014 96.2996 101.369C96.2996 101.926 96.6606 102.268 97.3826 102.395L99.2826 102.756C100.106 102.908 100.727 103.187 101.145 103.592C101.575 103.997 101.791 104.542 101.791 105.226C101.791 106.151 101.43 106.879 100.708 107.411C99.9856 107.93 99.0229 108.19 97.8196 108.19ZM107.059 108.19C104.779 108.19 103.639 106.911 103.639 104.352V98.709H106.014V104.39C106.014 105.049 106.147 105.536 106.413 105.853C106.679 106.17 107.103 106.328 107.686 106.328C108.319 106.328 108.839 106.113 109.244 105.682C109.649 105.239 109.852 104.656 109.852 103.934V98.709H112.227V108H109.909V106.613C109.288 107.664 108.338 108.19 107.059 108.19ZM114.699 108V98.709H117.017V100.343C117.473 99.241 118.448 98.633 119.943 98.519L120.665 98.462L120.817 100.476L119.449 100.609C117.891 100.761 117.112 101.559 117.112 103.003V108H114.699ZM126.57 108.19C125.519 108.19 124.613 107.994 123.853 107.601C123.093 107.208 122.504 106.651 122.086 105.929C121.681 105.207 121.478 104.352 121.478 103.364C121.478 102.401 121.674 101.559 122.067 100.837C122.472 100.115 123.023 99.5513 123.72 99.146C124.429 98.728 125.234 98.519 126.133 98.519C127.45 98.519 128.489 98.937 129.249 99.773C130.022 100.609 130.408 101.749 130.408 103.193V103.896H123.758C123.935 105.555 124.885 106.385 126.608 106.385C127.127 106.385 127.647 106.309 128.166 106.157C128.685 105.992 129.16 105.739 129.591 105.397L130.256 106.993C129.813 107.36 129.255 107.652 128.584 107.867C127.913 108.082 127.241 108.19 126.57 108.19ZM126.228 100.134C125.531 100.134 124.968 100.349 124.537 100.78C124.106 101.211 123.847 101.793 123.758 102.528H128.432C128.381 101.755 128.166 101.166 127.786 100.761C127.419 100.343 126.899 100.134 126.228 100.134ZM132.327 108V98.709H134.645V100.134C134.923 99.6273 135.31 99.2347 135.804 98.956C136.298 98.6647 136.868 98.519 137.514 98.519C138.907 98.519 139.819 99.127 140.25 100.343C140.541 99.773 140.959 99.3297 141.504 99.013C142.048 98.6837 142.669 98.519 143.366 98.519C145.456 98.519 146.501 99.792 146.501 102.338V108H144.126V102.433C144.126 101.724 144.005 101.204 143.765 100.875C143.537 100.546 143.144 100.381 142.587 100.381C141.966 100.381 141.478 100.603 141.124 101.046C140.769 101.477 140.592 102.078 140.592 102.851V108H138.217V102.433C138.217 101.724 138.096 101.204 137.856 100.875C137.628 100.546 137.241 100.381 136.697 100.381C136.076 100.381 135.588 100.603 135.234 101.046C134.879 101.477 134.702 102.078 134.702 102.851V108H132.327ZM153.53 108.19C152.478 108.19 151.573 107.994 150.813 107.601C150.053 107.208 149.464 106.651 149.046 105.929C148.64 105.207 148.438 104.352 148.438 103.364C148.438 102.401 148.634 101.559 149.027 100.837C149.432 100.115 149.983 99.5513 150.68 99.146C151.389 98.728 152.193 98.519 153.093 98.519C154.41 98.519 155.449 98.937 156.209 99.773C156.981 100.609 157.368 101.749 157.368 103.193V103.896H150.718C150.895 105.555 151.845 106.385 153.568 106.385C154.087 106.385 154.606 106.309 155.126 106.157C155.645 105.992 156.12 105.739 156.551 105.397L157.216 106.993C156.772 107.36 156.215 107.652 155.544 107.867C154.872 108.082 154.201 108.19 153.53 108.19ZM153.188 100.134C152.491 100.134 151.927 100.349 151.497 100.78C151.066 101.211 150.806 101.793 150.718 102.528H155.392C155.341 101.755 155.126 101.166 154.746 100.761C154.378 100.343 153.859 100.134 153.188 100.134ZM159.249 108V98.709H161.567V100.153C161.883 99.621 162.308 99.2157 162.84 98.937C163.384 98.6583 163.992 98.519 164.664 98.519C166.855 98.519 167.951 99.792 167.951 102.338V108H165.576V102.452C165.576 101.73 165.436 101.204 165.158 100.875C164.892 100.546 164.474 100.381 163.904 100.381C163.207 100.381 162.65 100.603 162.232 101.046C161.826 101.477 161.624 102.053 161.624 102.775V108H159.249ZM174.619 108.19C172.162 108.19 170.933 106.974 170.933 104.542V100.495H169.147V98.709H170.933V95.935H173.308V98.709H176.12V100.495H173.308V104.409C173.308 105.017 173.441 105.473 173.707 105.777C173.973 106.081 174.404 106.233 174.999 106.233C175.176 106.233 175.36 106.214 175.55 106.176C175.74 106.125 175.936 106.075 176.139 106.024L176.5 107.772C176.272 107.899 175.981 108 175.626 108.076C175.284 108.152 174.948 108.19 174.619 108.19Z" fill="#0E0D13"/>
<path opacity="0.7" d="M64.67 144.015L63.41 141.99C63.07 141.42 62.515 141.135 61.745 141.135C60.765 141.135 59.91 140.915 59.18 140.475C58.46 140.025 57.9 139.395 57.5 138.585C57.11 137.775 56.915 136.815 56.915 135.705C56.915 134.595 57.11 133.635 57.5 132.825C57.89 132.015 58.445 131.39 59.165 130.95C59.895 130.51 60.755 130.29 61.745 130.29C62.745 130.29 63.605 130.51 64.325 130.95C65.055 131.39 65.615 132.015 66.005 132.825C66.405 133.625 66.605 134.58 66.605 135.69C66.605 136.98 66.34 138.07 65.81 138.96C65.28 139.84 64.545 140.46 63.605 140.82C64.005 140.95 64.37 141.295 64.7 141.855L65.705 143.475L64.67 144.015ZM61.745 140.04C62.875 140.04 63.75 139.66 64.37 138.9C64.99 138.14 65.3 137.075 65.3 135.705C65.3 134.335 64.99 133.275 64.37 132.525C63.75 131.765 62.875 131.385 61.745 131.385C60.635 131.385 59.77 131.765 59.15 132.525C58.53 133.275 58.22 134.335 58.22 135.705C58.22 137.065 58.53 138.13 59.15 138.9C59.77 139.66 60.635 140.04 61.745 140.04ZM71.219 141.135C69.469 141.135 68.594 140.17 68.594 138.24V133.71H69.809V138.225C69.809 138.875 69.939 139.355 70.199 139.665C70.469 139.975 70.889 140.13 71.459 140.13C72.079 140.13 72.584 139.925 72.974 139.515C73.364 139.095 73.559 138.54 73.559 137.85V133.71H74.774V141H73.589V139.77C73.359 140.21 73.034 140.55 72.614 140.79C72.204 141.02 71.739 141.135 71.219 141.135ZM76.8972 131.895V130.53H78.3972V131.895H76.8972ZM77.0472 141V133.71H78.2622V141H77.0472ZM83.6236 141.135C82.8936 141.135 82.2636 140.98 81.7336 140.67C81.2036 140.35 80.7936 139.905 80.5036 139.335C80.2236 138.755 80.0836 138.08 80.0836 137.31C80.0836 136.15 80.3986 135.24 81.0286 134.58C81.6586 133.91 82.5236 133.575 83.6236 133.575C84.0736 133.575 84.5186 133.655 84.9586 133.815C85.3986 133.975 85.7636 134.2 86.0536 134.49L85.6336 135.375C85.3436 135.095 85.0236 134.89 84.6736 134.76C84.3336 134.63 84.0086 134.565 83.6986 134.565C82.9386 134.565 82.3536 134.805 81.9436 135.285C81.5336 135.755 81.3286 136.435 81.3286 137.325C81.3286 138.195 81.5336 138.885 81.9436 139.395C82.3536 139.895 82.9386 140.145 83.6986 140.145C84.0086 140.145 84.3336 140.08 84.6736 139.95C85.0236 139.82 85.3436 139.61 85.6336 139.32L86.0536 140.205C85.7636 140.495 85.3936 140.725 84.9436 140.895C84.5036 141.055 84.0636 141.135 83.6236 141.135ZM87.4769 141V130.425H88.6919V136.95H88.7219L92.0969 133.71H93.6419L89.9819 137.22L93.9569 141H92.4119L88.7219 137.58H88.6919V141H87.4769ZM98.9945 141V130.425H103.179C104.319 130.425 105.189 130.69 105.789 131.22C106.399 131.75 106.704 132.505 106.704 133.485C106.704 134.265 106.489 134.905 106.059 135.405C105.639 135.905 105.039 136.23 104.259 136.38C104.719 136.54 105.114 136.93 105.444 137.55L107.304 141H105.954L104.124 137.61C103.894 137.19 103.629 136.905 103.329 136.755C103.029 136.605 102.634 136.53 102.144 136.53H100.224V141H98.9945ZM100.224 135.555H102.999C104.659 135.555 105.489 134.865 105.489 133.485C105.489 132.125 104.659 131.445 102.999 131.445H100.224V135.555ZM111.988 141.135C110.838 141.135 109.928 140.8 109.258 140.13C108.588 139.45 108.253 138.53 108.253 137.37C108.253 136.62 108.403 135.96 108.703 135.39C109.003 134.81 109.413 134.365 109.933 134.055C110.463 133.735 111.073 133.575 111.763 133.575C112.753 133.575 113.528 133.895 114.088 134.535C114.648 135.165 114.928 136.035 114.928 137.145V137.61H109.438C109.478 138.44 109.718 139.075 110.158 139.515C110.598 139.945 111.208 140.16 111.988 140.16C112.428 140.16 112.848 140.095 113.248 139.965C113.648 139.825 114.028 139.6 114.388 139.29L114.808 140.145C114.478 140.455 114.058 140.7 113.548 140.88C113.038 141.05 112.518 141.135 111.988 141.135ZM111.793 134.475C111.103 134.475 110.558 134.69 110.158 135.12C109.758 135.55 109.523 136.115 109.453 136.815H113.878C113.848 136.075 113.653 135.5 113.293 135.09C112.943 134.68 112.443 134.475 111.793 134.475ZM117.076 141V134.655H115.636V133.71H117.076V133.455C117.076 132.485 117.316 131.75 117.796 131.25C118.286 130.75 119.036 130.47 120.046 130.41L120.631 130.38L120.736 131.31L120.046 131.355C119.426 131.405 118.976 131.59 118.696 131.91C118.426 132.23 118.291 132.695 118.291 133.305V133.71H120.391V134.655H118.291V141H117.076ZM121.681 141V133.71H122.866V135.015C123.256 134.135 124.056 133.65 125.266 133.56L125.701 133.515L125.791 134.565L125.026 134.655C124.336 134.715 123.811 134.935 123.451 135.315C123.091 135.685 122.911 136.195 122.911 136.845V141H121.681ZM130.254 141.135C129.104 141.135 128.194 140.8 127.524 140.13C126.854 139.45 126.519 138.53 126.519 137.37C126.519 136.62 126.669 135.96 126.969 135.39C127.269 134.81 127.679 134.365 128.199 134.055C128.729 133.735 129.339 133.575 130.029 133.575C131.019 133.575 131.794 133.895 132.354 134.535C132.914 135.165 133.194 136.035 133.194 137.145V137.61H127.704C127.744 138.44 127.984 139.075 128.424 139.515C128.864 139.945 129.474 140.16 130.254 140.16C130.694 140.16 131.114 140.095 131.514 139.965C131.914 139.825 132.294 139.6 132.654 139.29L133.074 140.145C132.744 140.455 132.324 140.7 131.814 140.88C131.304 141.05 130.784 141.135 130.254 141.135ZM130.059 134.475C129.369 134.475 128.824 134.69 128.424 135.12C128.024 135.55 127.789 136.115 127.719 136.815H132.144C132.114 136.075 131.919 135.5 131.559 135.09C131.209 134.68 130.709 134.475 130.059 134.475ZM137.413 141.135C136.843 141.135 136.303 141.055 135.792 140.895C135.282 140.735 134.863 140.51 134.533 140.22L134.923 139.365C135.283 139.655 135.678 139.87 136.108 140.01C136.548 140.14 136.993 140.205 137.443 140.205C138.013 140.205 138.443 140.1 138.733 139.89C139.023 139.68 139.168 139.395 139.168 139.035C139.168 138.755 139.073 138.535 138.883 138.375C138.693 138.205 138.393 138.075 137.983 137.985L136.618 137.685C135.378 137.415 134.758 136.775 134.758 135.765C134.758 135.105 135.018 134.575 135.538 134.175C136.068 133.775 136.758 133.575 137.608 133.575C138.108 133.575 138.583 133.655 139.033 133.815C139.493 133.965 139.873 134.19 140.173 134.49L139.768 135.345C139.478 135.075 139.138 134.87 138.748 134.73C138.368 134.58 137.988 134.505 137.608 134.505C137.048 134.505 136.623 134.615 136.333 134.835C136.043 135.055 135.898 135.345 135.898 135.705C135.898 136.265 136.268 136.625 137.008 136.785L138.373 137.07C139.013 137.21 139.498 137.435 139.828 137.745C140.158 138.045 140.323 138.455 140.323 138.975C140.323 139.645 140.058 140.175 139.528 140.565C138.998 140.945 138.293 141.135 137.413 141.135ZM142.174 141V130.425H143.389V134.91C143.629 134.47 143.964 134.14 144.394 133.92C144.834 133.69 145.324 133.575 145.864 133.575C147.594 133.575 148.459 134.535 148.459 136.455V141H147.244V136.53C147.244 135.85 147.109 135.355 146.839 135.045C146.579 134.725 146.159 134.565 145.579 134.565C144.909 134.565 144.374 134.775 143.974 135.195C143.584 135.605 143.389 136.155 143.389 136.845V141H142.174ZM153.985 141.135C152.835 141.135 151.925 140.8 151.255 140.13C150.585 139.45 150.25 138.53 150.25 137.37C150.25 136.62 150.4 135.96 150.7 135.39C151 134.81 151.41 134.365 151.93 134.055C152.46 133.735 153.07 133.575 153.76 133.575C154.75 133.575 155.525 133.895 156.085 134.535C156.645 135.165 156.925 136.035 156.925 137.145V137.61H151.435C151.475 138.44 151.715 139.075 152.155 139.515C152.595 139.945 153.205 140.16 153.985 140.16C154.425 140.16 154.845 140.095 155.245 139.965C155.645 139.825 156.025 139.6 156.385 139.29L156.805 140.145C156.475 140.455 156.055 140.7 155.545 140.88C155.035 141.05 154.515 141.135 153.985 141.135ZM153.79 134.475C153.1 134.475 152.555 134.69 152.155 135.12C151.755 135.55 151.52 136.115 151.45 136.815H155.875C155.845 136.075 155.65 135.5 155.29 135.09C154.94 134.68 154.44 134.475 153.79 134.475ZM158.683 141V133.71H159.868V135.015C160.258 134.135 161.058 133.65 162.268 133.56L162.703 133.515L162.793 134.565L162.028 134.655C161.338 134.715 160.813 134.935 160.453 135.315C160.093 135.685 159.913 136.195 159.913 136.845V141H158.683ZM170.941 141.135C170.231 141.135 169.616 140.98 169.096 140.67C168.576 140.36 168.171 139.925 167.881 139.365C167.601 138.795 167.461 138.125 167.461 137.355C167.461 136.585 167.601 135.92 167.881 135.36C168.171 134.79 168.576 134.35 169.096 134.04C169.616 133.73 170.231 133.575 170.941 133.575C171.641 133.575 172.251 133.73 172.771 134.04C173.301 134.35 173.706 134.79 173.986 135.36C174.276 135.92 174.421 136.585 174.421 137.355C174.421 138.125 174.276 138.795 173.986 139.365C173.706 139.925 173.301 140.36 172.771 140.67C172.251 140.98 171.641 141.135 170.941 141.135ZM170.941 140.16C171.621 140.16 172.166 139.92 172.576 139.44C172.986 138.95 173.191 138.255 173.191 137.355C173.191 136.445 172.986 135.75 172.576 135.27C172.166 134.79 171.621 134.55 170.941 134.55C170.251 134.55 169.701 134.79 169.291 135.27C168.891 135.75 168.691 136.445 168.691 137.355C168.691 138.255 168.891 138.95 169.291 139.44C169.701 139.92 170.251 140.16 170.941 140.16ZM176.246 141V133.71H177.431V134.955C177.671 134.495 178.011 134.15 178.451 133.92C178.891 133.69 179.386 133.575 179.936 133.575C181.666 133.575 182.531 134.535 182.531 136.455V141H181.316V136.53C181.316 135.85 181.181 135.355 180.911 135.045C180.651 134.725 180.231 134.565 179.651 134.565C178.981 134.565 178.446 134.775 178.046 135.195C177.656 135.605 177.461 136.155 177.461 136.845V141H176.246ZM188.789 141V130.425H195.464V131.46H189.989V135.12H195.149V136.155H189.989V139.965H195.464V141H188.789ZM199.604 141.135C198.864 141.135 198.304 140.92 197.924 140.49C197.554 140.05 197.369 139.415 197.369 138.585V130.425H198.584V138.495C198.584 139.565 199.009 140.1 199.859 140.1C200.109 140.1 200.334 140.07 200.534 140.01L200.504 141.03C200.194 141.1 199.894 141.135 199.604 141.135ZM205.02 141.135C203.87 141.135 202.96 140.8 202.29 140.13C201.62 139.45 201.285 138.53 201.285 137.37C201.285 136.62 201.435 135.96 201.735 135.39C202.035 134.81 202.445 134.365 202.965 134.055C203.495 133.735 204.105 133.575 204.795 133.575C205.785 133.575 206.56 133.895 207.12 134.535C207.68 135.165 207.96 136.035 207.96 137.145V137.61H202.47C202.51 138.44 202.75 139.075 203.19 139.515C203.63 139.945 204.24 140.16 205.02 140.16C205.46 140.16 205.88 140.095 206.28 139.965C206.68 139.825 207.06 139.6 207.42 139.29L207.84 140.145C207.51 140.455 207.09 140.7 206.58 140.88C206.07 141.05 205.55 141.135 205.02 141.135ZM204.825 134.475C204.135 134.475 203.59 134.69 203.19 135.12C202.79 135.55 202.555 136.115 202.485 136.815H206.91C206.88 136.075 206.685 135.5 206.325 135.09C205.975 134.68 205.475 134.475 204.825 134.475ZM212.643 141.135C211.783 141.135 211.138 140.91 210.708 140.46C210.278 140 210.063 139.34 210.063 138.48V134.655H208.638V133.71H210.063V131.475H211.278V133.71H213.588V134.655H211.278V138.36C211.278 138.93 211.398 139.365 211.638 139.665C211.878 139.955 212.268 140.1 212.808 140.1C212.968 140.1 213.128 140.08 213.288 140.04C213.448 140 213.593 139.96 213.723 139.92L213.933 140.85C213.803 140.92 213.613 140.985 213.363 141.045C213.113 141.105 212.873 141.135 212.643 141.135ZM214.962 141V133.71H216.147V135.015C216.537 134.135 217.337 133.65 218.547 133.56L218.982 133.515L219.072 134.565L218.307 134.655C217.617 134.715 217.092 134.935 216.732 135.315C216.372 135.685 216.192 136.195 216.192 136.845V141H214.962ZM220.188 131.895V130.53H221.688V131.895H220.188ZM220.338 141V133.71H221.553V141H220.338ZM226.915 141.135C226.185 141.135 225.555 140.98 225.025 140.67C224.495 140.35 224.085 139.905 223.795 139.335C223.515 138.755 223.375 138.08 223.375 137.31C223.375 136.15 223.69 135.24 224.32 134.58C224.95 133.91 225.815 133.575 226.915 133.575C227.365 133.575 227.81 133.655 228.25 133.815C228.69 133.975 229.055 134.2 229.345 134.49L228.925 135.375C228.635 135.095 228.315 134.89 227.965 134.76C227.625 134.63 227.3 134.565 226.99 134.565C226.23 134.565 225.645 134.805 225.235 135.285C224.825 135.755 224.62 136.435 224.62 137.325C224.62 138.195 224.825 138.885 225.235 139.395C225.645 139.895 226.23 140.145 226.99 140.145C227.3 140.145 227.625 140.08 227.965 139.95C228.315 139.82 228.635 139.61 228.925 139.32L229.345 140.205C229.055 140.495 228.685 140.725 228.235 140.895C227.795 141.055 227.355 141.135 226.915 141.135ZM230.618 131.895V130.53H232.118V131.895H230.618ZM230.768 141V133.71H231.983V141H230.768ZM237.179 141.135C236.319 141.135 235.674 140.91 235.244 140.46C234.814 140 234.599 139.34 234.599 138.48V134.655H233.174V133.71H234.599V131.475H235.814V133.71H238.124V134.655H235.814V138.36C235.814 138.93 235.934 139.365 236.174 139.665C236.414 139.955 236.804 140.1 237.344 140.1C237.504 140.1 237.664 140.08 237.824 140.04C237.984 140 238.129 139.96 238.259 139.92L238.469 140.85C238.339 140.92 238.149 140.985 237.899 141.045C237.649 141.105 237.409 141.135 237.179 141.135ZM240.426 143.7L241.671 140.88L238.596 133.71H239.916L242.331 139.62L244.761 133.71H246.036L241.701 143.7H240.426ZM57.335 165V154.425H58.37L62.435 162.06L66.47 154.425H67.505V165H66.365V156.735L62.84 163.365H62.03L58.46 156.75V165H57.335ZM73.257 165.135C72.107 165.135 71.197 164.8 70.527 164.13C69.857 163.45 69.522 162.53 69.522 161.37C69.522 160.62 69.672 159.96 69.972 159.39C70.272 158.81 70.682 158.365 71.202 158.055C71.732 157.735 72.342 157.575 73.032 157.575C74.022 157.575 74.797 157.895 75.357 158.535C75.917 159.165 76.197 160.035 76.197 161.145V161.61H70.707C70.747 162.44 70.987 163.075 71.427 163.515C71.867 163.945 72.477 164.16 73.257 164.16C73.697 164.16 74.117 164.095 74.517 163.965C74.917 163.825 75.297 163.6 75.657 163.29L76.077 164.145C75.747 164.455 75.327 164.7 74.817 164.88C74.307 165.05 73.787 165.135 73.257 165.135ZM73.062 158.475C72.372 158.475 71.827 158.69 71.427 159.12C71.027 159.55 70.792 160.115 70.722 160.815H75.147C75.117 160.075 74.922 159.5 74.562 159.09C74.212 158.68 73.712 158.475 73.062 158.475ZM80.2504 165.135C79.7504 165.135 79.3004 165.04 78.9004 164.85C78.5104 164.65 78.2004 164.38 77.9704 164.04C77.7404 163.7 77.6254 163.32 77.6254 162.9C77.6254 162.37 77.7604 161.95 78.0304 161.64C78.3104 161.33 78.7654 161.11 79.3954 160.98C80.0354 160.84 80.9054 160.77 82.0054 160.77H82.4854V160.305C82.4854 159.685 82.3554 159.24 82.0954 158.97C81.8454 158.69 81.4404 158.55 80.8804 158.55C80.4404 158.55 80.0154 158.615 79.6054 158.745C79.1954 158.865 78.7754 159.065 78.3454 159.345L77.9254 158.46C78.3054 158.19 78.7654 157.975 79.3054 157.815C79.8554 157.655 80.3804 157.575 80.8804 157.575C81.8204 157.575 82.5154 157.805 82.9654 158.265C83.4254 158.725 83.6554 159.44 83.6554 160.41V165H82.5154V163.74C82.3254 164.17 82.0304 164.51 81.6304 164.76C81.2404 165.01 80.7804 165.135 80.2504 165.135ZM80.4454 164.22C81.0454 164.22 81.5354 164.015 81.9154 163.605C82.2954 163.185 82.4854 162.655 82.4854 162.015V161.565H82.0204C81.2104 161.565 80.5704 161.605 80.1004 161.685C79.6404 161.755 79.3154 161.885 79.1254 162.075C78.9454 162.255 78.8554 162.505 78.8554 162.825C78.8554 163.235 78.9954 163.57 79.2754 163.83C79.5654 164.09 79.9554 164.22 80.4454 164.22ZM88.3695 165.135C87.7995 165.135 87.2595 165.055 86.7495 164.895C86.2395 164.735 85.8195 164.51 85.4895 164.22L85.8795 163.365C86.2395 163.655 86.6345 163.87 87.0645 164.01C87.5045 164.14 87.9495 164.205 88.3995 164.205C88.9695 164.205 89.3995 164.1 89.6895 163.89C89.9795 163.68 90.1245 163.395 90.1245 163.035C90.1245 162.755 90.0295 162.535 89.8395 162.375C89.6495 162.205 89.3495 162.075 88.9395 161.985L87.5745 161.685C86.3345 161.415 85.7145 160.775 85.7145 159.765C85.7145 159.105 85.9745 158.575 86.4945 158.175C87.0245 157.775 87.7145 157.575 88.5645 157.575C89.0645 157.575 89.5395 157.655 89.9895 157.815C90.4495 157.965 90.8295 158.19 91.1295 158.49L90.7245 159.345C90.4345 159.075 90.0945 158.87 89.7045 158.73C89.3245 158.58 88.9445 158.505 88.5645 158.505C88.0045 158.505 87.5795 158.615 87.2895 158.835C86.9995 159.055 86.8545 159.345 86.8545 159.705C86.8545 160.265 87.2245 160.625 87.9645 160.785L89.3295 161.07C89.9695 161.21 90.4545 161.435 90.7845 161.745C91.1145 162.045 91.2795 162.455 91.2795 162.975C91.2795 163.645 91.0145 164.175 90.4845 164.565C89.9545 164.945 89.2495 165.135 88.3695 165.135ZM95.7112 165.135C93.9612 165.135 93.0862 164.17 93.0862 162.24V157.71H94.3012V162.225C94.3012 162.875 94.4312 163.355 94.6912 163.665C94.9612 163.975 95.3812 164.13 95.9512 164.13C96.5712 164.13 97.0762 163.925 97.4662 163.515C97.8562 163.095 98.0512 162.54 98.0512 161.85V157.71H99.2662V165H98.0812V163.77C97.8512 164.21 97.5262 164.55 97.1062 164.79C96.6962 165.02 96.2312 165.135 95.7112 165.135ZM101.539 165V157.71H102.724V159.015C103.114 158.135 103.914 157.65 105.124 157.56L105.559 157.515L105.649 158.565L104.884 158.655C104.194 158.715 103.669 158.935 103.309 159.315C102.949 159.685 102.769 160.195 102.769 160.845V165H101.539ZM110.113 165.135C108.963 165.135 108.053 164.8 107.383 164.13C106.713 163.45 106.378 162.53 106.378 161.37C106.378 160.62 106.528 159.96 106.828 159.39C107.128 158.81 107.538 158.365 108.058 158.055C108.588 157.735 109.198 157.575 109.888 157.575C110.878 157.575 111.653 157.895 112.213 158.535C112.773 159.165 113.053 160.035 113.053 161.145V161.61H107.562C107.603 162.44 107.843 163.075 108.283 163.515C108.723 163.945 109.333 164.16 110.113 164.16C110.553 164.16 110.973 164.095 111.373 163.965C111.773 163.825 112.153 163.6 112.513 163.29L112.933 164.145C112.603 164.455 112.183 164.7 111.673 164.88C111.163 165.05 110.643 165.135 110.113 165.135ZM109.918 158.475C109.228 158.475 108.683 158.69 108.283 159.12C107.883 159.55 107.648 160.115 107.578 160.815H112.003C111.973 160.075 111.778 159.5 111.418 159.09C111.068 158.68 110.568 158.475 109.918 158.475ZM114.841 165V157.71H116.026V158.94C116.246 158.5 116.551 158.165 116.941 157.935C117.331 157.695 117.786 157.575 118.306 157.575C119.446 157.575 120.176 158.07 120.496 159.06C120.716 158.6 121.041 158.24 121.471 157.98C121.901 157.71 122.396 157.575 122.956 157.575C124.576 157.575 125.386 158.535 125.386 160.455V165H124.171V160.515C124.171 159.845 124.051 159.355 123.811 159.045C123.581 158.725 123.196 158.565 122.656 158.565C122.066 158.565 121.596 158.775 121.246 159.195C120.896 159.615 120.721 160.175 120.721 160.875V165H119.506V160.515C119.506 159.845 119.386 159.355 119.146 159.045C118.916 158.725 118.531 158.565 117.991 158.565C117.391 158.565 116.916 158.775 116.566 159.195C116.226 159.615 116.056 160.175 116.056 160.875V165H114.841ZM130.943 165.135C129.793 165.135 128.883 164.8 128.213 164.13C127.543 163.45 127.208 162.53 127.208 161.37C127.208 160.62 127.358 159.96 127.658 159.39C127.958 158.81 128.368 158.365 128.888 158.055C129.418 157.735 130.028 157.575 130.718 157.575C131.708 157.575 132.483 157.895 133.043 158.535C133.603 159.165 133.883 160.035 133.883 161.145V161.61H128.393C128.433 162.44 128.673 163.075 129.113 163.515C129.553 163.945 130.163 164.16 130.943 164.16C131.383 164.16 131.803 164.095 132.203 163.965C132.603 163.825 132.983 163.6 133.343 163.29L133.763 164.145C133.433 164.455 133.013 164.7 132.503 164.88C131.993 165.05 131.473 165.135 130.943 165.135ZM130.748 158.475C130.058 158.475 129.513 158.69 129.113 159.12C128.713 159.55 128.478 160.115 128.408 160.815H132.833C132.803 160.075 132.608 159.5 132.248 159.09C131.898 158.68 131.398 158.475 130.748 158.475ZM135.641 165V157.71H136.826V158.955C137.066 158.495 137.406 158.15 137.846 157.92C138.286 157.69 138.781 157.575 139.331 157.575C141.061 157.575 141.926 158.535 141.926 160.455V165H140.711V160.53C140.711 159.85 140.576 159.355 140.306 159.045C140.046 158.725 139.626 158.565 139.046 158.565C138.376 158.565 137.841 158.775 137.441 159.195C137.051 159.605 136.856 160.155 136.856 160.845V165H135.641ZM147.091 165.135C146.231 165.135 145.586 164.91 145.156 164.46C144.726 164 144.511 163.34 144.511 162.48V158.655H143.086V157.71H144.511V155.475H145.726V157.71H148.036V158.655H145.726V162.36C145.726 162.93 145.846 163.365 146.086 163.665C146.326 163.955 146.716 164.1 147.256 164.1C147.416 164.1 147.576 164.08 147.736 164.04C147.896 164 148.041 163.96 148.171 163.92L148.381 164.85C148.251 164.92 148.061 164.985 147.811 165.045C147.561 165.105 147.321 165.135 147.091 165.135ZM151.871 165.135C151.301 165.135 150.761 165.055 150.251 164.895C149.741 164.735 149.321 164.51 148.991 164.22L149.381 163.365C149.741 163.655 150.136 163.87 150.566 164.01C151.006 164.14 151.451 164.205 151.901 164.205C152.471 164.205 152.901 164.1 153.191 163.89C153.481 163.68 153.626 163.395 153.626 163.035C153.626 162.755 153.531 162.535 153.341 162.375C153.151 162.205 152.851 162.075 152.441 161.985L151.076 161.685C149.836 161.415 149.216 160.775 149.216 159.765C149.216 159.105 149.476 158.575 149.996 158.175C150.526 157.775 151.216 157.575 152.066 157.575C152.566 157.575 153.041 157.655 153.491 157.815C153.951 157.965 154.331 158.19 154.631 158.49L154.226 159.345C153.936 159.075 153.596 158.87 153.206 158.73C152.826 158.58 152.446 158.505 152.066 158.505C151.506 158.505 151.081 158.615 150.791 158.835C150.501 159.055 150.356 159.345 150.356 159.705C150.356 160.265 150.726 160.625 151.466 160.785L152.831 161.07C153.471 161.21 153.956 161.435 154.286 161.745C154.616 162.045 154.781 162.455 154.781 162.975C154.781 163.645 154.516 164.175 153.986 164.565C153.456 164.945 152.751 165.135 151.871 165.135ZM156.364 165V163.47H157.894V165H156.364Z" fill="#0E0D13"/>
</g>
<defs>
<filter id="filter0_d_1498_50753" x="0" y="0" width="404" height="220" filterUnits="userSpaceOnUse" color-interpolation-filters="sRGB">
<feFlood flood-opacity="0" result="BackgroundImageFix"/>
<feColorMatrix in="SourceAlpha" type="matrix" values="0 0 0 0 0 0 0 0 0 0 0 0 0 0 0 0 0 0 127 0" result="hardAlpha"/>
<feOffset/>
<feGaussianBlur stdDeviation="20"/>
<feComposite in2="hardAlpha" operator="out"/>
<feColorMatrix type="matrix" values="0 0 0 0 0.733333 0 0 0 0 0.733333 0 0 0 0 0.733333 0 0 0 0.4 0"/>
<feBlend mode="normal" in2="BackgroundImageFix" result="effect1_dropShadow_1498_50753"/>
<feBlend mode="normal" in="SourceGraphic" in2="effect1_dropShadow_1498_50753" result="shape"/>
</filter>
</defs>
</svg>
