<svg width="404" height="197" viewBox="0 0 404 197" fill="none" xmlns="http://www.w3.org/2000/svg">
<g filter="url(#filter0_d_1498_50748)">
<rect x="40" y="40" width="324" height="140" rx="4" fill="white" shape-rendering="crispEdges"/>
<path fill-rule="evenodd" clip-rule="evenodd" d="M63.1019 54.2502L63.134 54.2502L74.534 54.2502L74.5661 54.2502C75.3789 54.2502 76.0345 54.2502 76.5655 54.2936C77.1121 54.3382 77.5922 54.4326 78.0364 54.6589C78.7421 55.0184 79.3157 55.5921 79.6753 56.2977C79.8996 56.7381 79.9943 57.2137 80.0394 57.7544C80.1632 57.7569 80.2778 57.761 80.3838 57.7677C80.6747 57.7859 80.95 57.8251 81.2193 57.9264C81.9605 58.2054 82.5454 58.7903 82.8244 59.5315C82.9258 59.8008 82.965 60.0761 82.9832 60.367C83.0007 60.6466 83.0007 60.9865 83.0007 61.3937V61.3938V61.4169V62.5835V62.6066V62.6067C83.0007 63.0139 83.0007 63.3538 82.9832 63.6334C82.965 63.9242 82.9258 64.1996 82.8244 64.4689C82.5454 65.21 81.9605 65.795 81.2193 66.0739C80.95 66.1753 80.6747 66.2145 80.3838 66.2327C80.2778 66.2393 80.1632 66.2434 80.0394 66.246C79.9943 66.7867 79.8996 67.2623 79.6753 67.7027C79.3157 68.4083 78.7421 68.9819 78.0365 69.3415C77.5922 69.5678 77.1121 69.6622 76.5655 69.7068C76.0345 69.7502 75.3789 69.7502 74.5661 69.7502H74.534L63.134 69.7502H63.1019H63.1018C62.289 69.7502 61.6334 69.7502 61.1025 69.7068C60.5559 69.6622 60.0757 69.5678 59.6315 69.3415C58.9259 68.9819 58.3522 68.4083 57.9927 67.7027C57.7664 67.2584 57.672 66.7783 57.6273 66.2317C57.584 65.7008 57.584 65.0451 57.584 64.2323L57.584 64.2002L57.584 59.8002L57.584 59.7681C57.584 58.9552 57.584 58.2996 57.6273 57.7687C57.672 57.2221 57.7664 56.7419 57.9927 56.2977C58.3522 55.5921 58.9259 55.0184 59.6315 54.6589C60.0757 54.4326 60.5559 54.3382 61.1025 54.2936C61.6334 54.2502 62.289 54.2502 63.1019 54.2502ZM80.0835 64.7446C80.1586 64.7425 80.2269 64.7396 80.2901 64.7356C80.5113 64.7218 80.6197 64.6969 80.691 64.6701C81.0279 64.5433 81.2937 64.2774 81.4205 63.9405C81.4474 63.8692 81.4723 63.7608 81.4861 63.5397C81.5003 63.3125 81.5007 63.0198 81.5007 62.5835V61.4169C81.5007 60.9806 81.5003 60.6878 81.4861 60.4607C81.4722 60.2395 81.4474 60.1312 81.4205 60.0599C81.2937 59.723 81.0279 59.4571 80.691 59.3303C80.6197 59.3035 80.5113 59.2786 80.2901 59.2647C80.2269 59.2608 80.1586 59.2579 80.0835 59.2558C80.084 59.4192 80.084 59.5899 80.084 59.7681V59.8002L80.084 64.2002V64.2323C80.084 64.4105 80.084 64.5811 80.0835 64.7446ZM71.4719 50.8148C71.8504 50.9831 72.0209 51.4263 71.8527 51.8048L67.6547 61.2502L71.1673 61.2502C71.4212 61.2502 71.6578 61.3786 71.7962 61.5915C71.9345 61.8044 71.9558 62.0728 71.8527 62.3048L67.186 72.8048C67.0178 73.1833 66.5746 73.3538 66.1961 73.1855C65.8175 73.0173 65.6471 72.5741 65.8153 72.1956L70.0132 62.7502L66.5007 62.7502C66.2468 62.7502 66.0101 62.6217 65.8718 62.4089C65.7334 62.196 65.7122 61.9276 65.8153 61.6956L70.482 51.1956C70.6502 50.8171 71.0934 50.6466 71.4719 50.8148Z" fill="#F9B572"/>
<path d="M57.463 108V94.605H63.315C64.721 94.605 65.8103 94.9153 66.583 95.536C67.3557 96.144 67.742 96.9927 67.742 98.082C67.742 98.804 67.5583 99.4247 67.191 99.944C66.8237 100.463 66.317 100.843 65.671 101.084C66.431 101.299 67.02 101.679 67.438 102.224C67.8687 102.756 68.084 103.434 68.084 104.257C68.084 105.448 67.6787 106.372 66.868 107.031C66.07 107.677 64.9553 108 63.524 108H57.463ZM59.8 100.286H62.897C64.5563 100.286 65.386 99.6463 65.386 98.367C65.386 97.0877 64.5563 96.448 62.897 96.448H59.8V100.286ZM59.8 106.157H63.22C64.892 106.157 65.728 105.486 65.728 104.143C65.728 102.8 64.892 102.129 63.22 102.129H59.8V106.157ZM73.3751 108.19C72.7037 108.19 72.1021 108.063 71.5701 107.81C71.0507 107.544 70.6391 107.189 70.3351 106.746C70.0437 106.303 69.8981 105.802 69.8981 105.245C69.8981 104.561 70.0754 104.023 70.4301 103.63C70.7847 103.225 71.3611 102.933 72.1591 102.756C72.9571 102.579 74.0274 102.49 75.3701 102.49H76.0351V102.091C76.0351 101.458 75.8957 101.002 75.6171 100.723C75.3384 100.444 74.8697 100.305 74.2111 100.305C73.6917 100.305 73.1597 100.387 72.6151 100.552C72.0704 100.704 71.5194 100.945 70.9621 101.274L70.2781 99.659C70.6074 99.431 70.9937 99.2347 71.4371 99.07C71.8931 98.8927 72.3681 98.7597 72.8621 98.671C73.3687 98.5697 73.8437 98.519 74.2871 98.519C75.6424 98.519 76.6494 98.8357 77.3081 99.469C77.9667 100.09 78.2961 101.059 78.2961 102.376V108H76.0731V106.518C75.8577 107.037 75.5157 107.449 75.0471 107.753C74.5784 108.044 74.0211 108.19 73.3751 108.19ZM73.8691 106.556C74.4897 106.556 75.0027 106.341 75.4081 105.91C75.8261 105.479 76.0351 104.935 76.0351 104.276V103.858H75.3891C74.1984 103.858 73.3687 103.953 72.9001 104.143C72.4441 104.32 72.2161 104.65 72.2161 105.131C72.2161 105.549 72.3617 105.891 72.6531 106.157C72.9444 106.423 73.3497 106.556 73.8691 106.556ZM84.9627 108.19C82.5053 108.19 81.2767 106.974 81.2767 104.542V100.495H79.4907V98.709H81.2767V95.935H83.6517V98.709H86.4637V100.495H83.6517V104.409C83.6517 105.017 83.7847 105.473 84.0507 105.777C84.3167 106.081 84.7473 106.233 85.3427 106.233C85.52 106.233 85.7037 106.214 85.8937 106.176C86.0837 106.125 86.28 106.075 86.4827 106.024L86.8437 107.772C86.6157 107.899 86.3243 108 85.9697 108.076C85.6277 108.152 85.292 108.19 84.9627 108.19ZM91.7166 108.19C89.2593 108.19 88.0306 106.974 88.0306 104.542V100.495H86.2446V98.709H88.0306V95.935H90.4056V98.709H93.2176V100.495H90.4056V104.409C90.4056 105.017 90.5386 105.473 90.8046 105.777C91.0706 106.081 91.5013 106.233 92.0966 106.233C92.2739 106.233 92.4576 106.214 92.6476 106.176C92.8376 106.125 93.0339 106.075 93.2366 106.024L93.5976 107.772C93.3696 107.899 93.0783 108 92.7236 108.076C92.3816 108.152 92.0459 108.19 91.7166 108.19ZM99.2388 108.19C98.1875 108.19 97.2818 107.994 96.5218 107.601C95.7618 107.208 95.1728 106.651 94.7548 105.929C94.3495 105.207 94.1468 104.352 94.1468 103.364C94.1468 102.401 94.3431 101.559 94.7358 100.837C95.1411 100.115 95.6921 99.5513 96.3888 99.146C97.0981 98.728 97.9025 98.519 98.8018 98.519C100.119 98.519 101.158 98.937 101.918 99.773C102.69 100.609 103.077 101.749 103.077 103.193V103.896H96.4268C96.6041 105.555 97.5541 106.385 99.2768 106.385C99.7961 106.385 100.315 106.309 100.835 106.157C101.354 105.992 101.829 105.739 102.26 105.397L102.925 106.993C102.481 107.36 101.924 107.652 101.253 107.867C100.581 108.082 99.9101 108.19 99.2388 108.19ZM98.8968 100.134C98.2001 100.134 97.6365 100.349 97.2058 100.78C96.7751 101.211 96.5155 101.793 96.4268 102.528H101.101C101.05 101.755 100.835 101.166 100.455 100.761C100.087 100.343 99.5681 100.134 98.8968 100.134ZM104.958 108V98.709H107.276V100.343C107.732 99.241 108.707 98.633 110.202 98.519L110.924 98.462L111.076 100.476L109.708 100.609C108.15 100.761 107.371 101.559 107.371 103.003V108H104.958ZM113.809 111.42L115.519 107.62L111.662 98.709H114.189L116.792 105.207L119.452 98.709H121.846L116.26 111.42H113.809ZM128.323 108V94.605H130.755V105.929H137.177V108H128.323ZM138.612 96.714V94.396H141.272V96.714H138.612ZM138.764 108V98.709H141.139V108H138.764ZM144.234 108V100.495H142.448V98.709H144.234V98.69C144.234 97.3727 144.576 96.3783 145.26 95.707C145.957 95.0357 147.033 94.6557 148.49 94.567L149.421 94.51L149.573 96.258L148.699 96.315C147.939 96.3657 147.401 96.5557 147.084 96.885C146.767 97.2017 146.609 97.6767 146.609 98.31V98.709H149.136V100.495H146.609V108H144.234ZM154.866 108.19C153.814 108.19 152.909 107.994 152.149 107.601C151.389 107.208 150.8 106.651 150.382 105.929C149.976 105.207 149.774 104.352 149.774 103.364C149.774 102.401 149.97 101.559 150.363 100.837C150.768 100.115 151.319 99.5513 152.016 99.146C152.725 98.728 153.529 98.519 154.429 98.519C155.746 98.519 156.785 98.937 157.545 99.773C158.317 100.609 158.704 101.749 158.704 103.193V103.896H152.054C152.231 105.555 153.181 106.385 154.904 106.385C155.423 106.385 155.942 106.309 156.462 106.157C156.981 105.992 157.456 105.739 157.887 105.397L158.552 106.993C158.108 107.36 157.551 107.652 156.88 107.867C156.208 108.082 155.537 108.19 154.866 108.19ZM154.524 100.134C153.827 100.134 153.263 100.349 152.833 100.78C152.402 101.211 152.142 101.793 152.054 102.528H156.728C156.677 101.755 156.462 101.166 156.082 100.761C155.714 100.343 155.195 100.134 154.524 100.134Z" fill="#0E0D13"/>
<path opacity="0.7" d="M61.475 141.135C60.085 141.135 59.03 140.77 58.31 140.04C57.59 139.3 57.23 138.225 57.23 136.815V130.425H58.46V136.755C58.46 138.945 59.465 140.04 61.475 140.04C63.465 140.04 64.46 138.945 64.46 136.755V130.425H65.69V136.815C65.69 138.225 65.33 139.3 64.61 140.04C63.9 140.77 62.855 141.135 61.475 141.135ZM68.0531 143.7V133.71H69.2381V135.015C69.4581 134.565 69.7831 134.215 70.2131 133.965C70.6531 133.705 71.1631 133.575 71.7431 133.575C72.3931 133.575 72.9581 133.73 73.4381 134.04C73.9281 134.34 74.3031 134.775 74.5631 135.345C74.8331 135.905 74.9681 136.575 74.9681 137.355C74.9681 138.125 74.8331 138.795 74.5631 139.365C74.3031 139.925 73.9281 140.36 73.4381 140.67C72.9581 140.98 72.3931 141.135 71.7431 141.135C71.1831 141.135 70.6831 141.01 70.2431 140.76C69.8031 140.51 69.4781 140.165 69.2681 139.725V143.7H68.0531ZM71.4881 140.16C72.1681 140.16 72.7131 139.92 73.1231 139.44C73.5331 138.95 73.7381 138.255 73.7381 137.355C73.7381 136.445 73.5331 135.75 73.1231 135.27C72.7131 134.79 72.1681 134.55 71.4881 134.55C70.8081 134.55 70.2631 134.79 69.8531 135.27C69.4431 135.75 69.2381 136.445 69.2381 137.355C69.2381 138.255 69.4431 138.95 69.8531 139.44C70.2631 139.92 70.8081 140.16 71.4881 140.16ZM83.5757 141.135C82.7157 141.135 82.0707 140.91 81.6407 140.46C81.2107 140 80.9957 139.34 80.9957 138.48V134.655H79.5707V133.71H80.9957V131.475H82.2107V133.71H84.5207V134.655H82.2107V138.36C82.2107 138.93 82.3307 139.365 82.5707 139.665C82.8107 139.955 83.2007 140.1 83.7407 140.1C83.9007 140.1 84.0607 140.08 84.2207 140.04C84.3807 140 84.5257 139.96 84.6557 139.92L84.8657 140.85C84.7357 140.92 84.5457 140.985 84.2957 141.045C84.0457 141.105 83.8057 141.135 83.5757 141.135ZM88.8516 141.135C88.1416 141.135 87.5266 140.98 87.0066 140.67C86.4866 140.36 86.0816 139.925 85.7916 139.365C85.5116 138.795 85.3716 138.125 85.3716 137.355C85.3716 136.585 85.5116 135.92 85.7916 135.36C86.0816 134.79 86.4866 134.35 87.0066 134.04C87.5266 133.73 88.1416 133.575 88.8516 133.575C89.5516 133.575 90.1616 133.73 90.6816 134.04C91.2116 134.35 91.6166 134.79 91.8966 135.36C92.1866 135.92 92.3316 136.585 92.3316 137.355C92.3316 138.125 92.1866 138.795 91.8966 139.365C91.6166 139.925 91.2116 140.36 90.6816 140.67C90.1616 140.98 89.5516 141.135 88.8516 141.135ZM88.8516 140.16C89.5316 140.16 90.0766 139.92 90.4866 139.44C90.8966 138.95 91.1016 138.255 91.1016 137.355C91.1016 136.445 90.8966 135.75 90.4866 135.27C90.0766 134.79 89.5316 134.55 88.8516 134.55C88.1616 134.55 87.6116 134.79 87.2016 135.27C86.8016 135.75 86.6016 136.445 86.6016 137.355C86.6016 138.255 86.8016 138.95 87.2016 139.44C87.6116 139.92 88.1616 140.16 88.8516 140.16ZM102.524 141V138.735H97.6491V137.805L102.734 130.425H103.769V137.685H105.344V138.735H103.769V141H102.524ZM102.524 137.685V132.45L98.9241 137.685H102.524ZM111.021 141V130.425H112.251V135.105H118.596V130.425H119.826V141H118.596V136.17H112.251V141H111.021ZM125.297 141.135C124.587 141.135 123.972 140.98 123.452 140.67C122.932 140.36 122.527 139.925 122.237 139.365C121.957 138.795 121.817 138.125 121.817 137.355C121.817 136.585 121.957 135.92 122.237 135.36C122.527 134.79 122.932 134.35 123.452 134.04C123.972 133.73 124.587 133.575 125.297 133.575C125.997 133.575 126.607 133.73 127.127 134.04C127.657 134.35 128.062 134.79 128.342 135.36C128.632 135.92 128.777 136.585 128.777 137.355C128.777 138.125 128.632 138.795 128.342 139.365C128.062 139.925 127.657 140.36 127.127 140.67C126.607 140.98 125.997 141.135 125.297 141.135ZM125.297 140.16C125.977 140.16 126.522 139.92 126.932 139.44C127.342 138.95 127.547 138.255 127.547 137.355C127.547 136.445 127.342 135.75 126.932 135.27C126.522 134.79 125.977 134.55 125.297 134.55C124.607 134.55 124.057 134.79 123.647 135.27C123.247 135.75 123.047 136.445 123.047 137.355C123.047 138.255 123.247 138.95 123.647 139.44C124.057 139.92 124.607 140.16 125.297 140.16ZM133.182 141.135C131.432 141.135 130.557 140.17 130.557 138.24V133.71H131.772V138.225C131.772 138.875 131.902 139.355 132.162 139.665C132.432 139.975 132.852 140.13 133.422 140.13C134.042 140.13 134.547 139.925 134.937 139.515C135.327 139.095 135.522 138.54 135.522 137.85V133.71H136.737V141H135.552V139.77C135.322 140.21 134.997 140.55 134.577 140.79C134.167 141.02 133.702 141.135 133.182 141.135ZM139.01 141V133.71H140.195V135.015C140.585 134.135 141.385 133.65 142.595 133.56L143.03 133.515L143.12 134.565L142.355 134.655C141.665 134.715 141.14 134.935 140.78 135.315C140.42 135.685 140.24 136.195 140.24 136.845V141H139.01ZM146.773 141.135C146.203 141.135 145.663 141.055 145.153 140.895C144.643 140.735 144.223 140.51 143.893 140.22L144.283 139.365C144.643 139.655 145.038 139.87 145.468 140.01C145.908 140.14 146.353 140.205 146.803 140.205C147.373 140.205 147.803 140.1 148.093 139.89C148.383 139.68 148.528 139.395 148.528 139.035C148.528 138.755 148.433 138.535 148.243 138.375C148.053 138.205 147.753 138.075 147.343 137.985L145.978 137.685C144.738 137.415 144.118 136.775 144.118 135.765C144.118 135.105 144.378 134.575 144.898 134.175C145.428 133.775 146.118 133.575 146.968 133.575C147.468 133.575 147.943 133.655 148.393 133.815C148.853 133.965 149.233 134.19 149.533 134.49L149.128 135.345C148.838 135.075 148.498 134.87 148.108 134.73C147.728 134.58 147.348 134.505 146.968 134.505C146.408 134.505 145.983 134.615 145.693 134.835C145.403 135.055 145.258 135.345 145.258 135.705C145.258 136.265 145.628 136.625 146.368 136.785L147.733 137.07C148.373 137.21 148.858 137.435 149.188 137.745C149.518 138.045 149.683 138.455 149.683 138.975C149.683 139.645 149.418 140.175 148.888 140.565C148.358 140.945 147.653 141.135 146.773 141.135ZM158.417 141.135C157.707 141.135 157.092 140.98 156.572 140.67C156.052 140.36 155.647 139.925 155.357 139.365C155.077 138.795 154.937 138.125 154.937 137.355C154.937 136.585 155.077 135.92 155.357 135.36C155.647 134.79 156.052 134.35 156.572 134.04C157.092 133.73 157.707 133.575 158.417 133.575C159.117 133.575 159.727 133.73 160.247 134.04C160.777 134.35 161.182 134.79 161.462 135.36C161.752 135.92 161.897 136.585 161.897 137.355C161.897 138.125 161.752 138.795 161.462 139.365C161.182 139.925 160.777 140.36 160.247 140.67C159.727 140.98 159.117 141.135 158.417 141.135ZM158.417 140.16C159.097 140.16 159.642 139.92 160.052 139.44C160.462 138.95 160.667 138.255 160.667 137.355C160.667 136.445 160.462 135.75 160.052 135.27C159.642 134.79 159.097 134.55 158.417 134.55C157.727 134.55 157.177 134.79 156.767 135.27C156.367 135.75 156.167 136.445 156.167 137.355C156.167 138.255 156.367 138.95 156.767 139.44C157.177 139.92 157.727 140.16 158.417 140.16ZM164.039 141V134.655H162.599V133.71H164.039V133.455C164.039 132.485 164.279 131.75 164.759 131.25C165.249 130.75 165.999 130.47 167.009 130.41L167.594 130.38L167.699 131.31L167.009 131.355C166.389 131.405 165.939 131.59 165.659 131.91C165.389 132.23 165.254 132.695 165.254 133.305V133.71H167.354V134.655H165.254V141H164.039ZM176.186 141.135C175.606 141.135 175.096 141.005 174.656 140.745C174.226 140.485 173.901 140.13 173.681 139.68V141H172.496V130.425H173.711V134.97C173.921 134.54 174.246 134.2 174.686 133.95C175.126 133.7 175.626 133.575 176.186 133.575C176.836 133.575 177.401 133.73 177.881 134.04C178.371 134.34 178.746 134.775 179.006 135.345C179.276 135.905 179.411 136.575 179.411 137.355C179.411 138.125 179.276 138.795 179.006 139.365C178.746 139.925 178.371 140.36 177.881 140.67C177.401 140.98 176.836 141.135 176.186 141.135ZM175.931 140.16C176.611 140.16 177.156 139.92 177.566 139.44C177.976 138.95 178.181 138.255 178.181 137.355C178.181 136.445 177.976 135.75 177.566 135.27C177.156 134.79 176.611 134.55 175.931 134.55C175.251 134.55 174.706 134.79 174.296 135.27C173.886 135.75 173.681 136.445 173.681 137.355C173.681 138.255 173.886 138.95 174.296 139.44C174.706 139.92 175.251 140.16 175.931 140.16ZM183.537 141.135C183.037 141.135 182.587 141.04 182.187 140.85C181.797 140.65 181.487 140.38 181.257 140.04C181.027 139.7 180.912 139.32 180.912 138.9C180.912 138.37 181.047 137.95 181.317 137.64C181.597 137.33 182.052 137.11 182.682 136.98C183.322 136.84 184.192 136.77 185.292 136.77H185.772V136.305C185.772 135.685 185.642 135.24 185.382 134.97C185.132 134.69 184.727 134.55 184.167 134.55C183.727 134.55 183.302 134.615 182.892 134.745C182.482 134.865 182.062 135.065 181.632 135.345L181.212 134.46C181.592 134.19 182.052 133.975 182.592 133.815C183.142 133.655 183.667 133.575 184.167 133.575C185.107 133.575 185.802 133.805 186.252 134.265C186.712 134.725 186.942 135.44 186.942 136.41V141H185.802V139.74C185.612 140.17 185.317 140.51 184.917 140.76C184.527 141.01 184.067 141.135 183.537 141.135ZM183.732 140.22C184.332 140.22 184.822 140.015 185.202 139.605C185.582 139.185 185.772 138.655 185.772 138.015V137.565H185.307C184.497 137.565 183.857 137.605 183.387 137.685C182.927 137.755 182.602 137.885 182.412 138.075C182.232 138.255 182.142 138.505 182.142 138.825C182.142 139.235 182.282 139.57 182.562 139.83C182.852 140.09 183.242 140.22 183.732 140.22ZM192.121 141.135C191.261 141.135 190.616 140.91 190.186 140.46C189.756 140 189.541 139.34 189.541 138.48V134.655H188.116V133.71H189.541V131.475H190.756V133.71H193.066V134.655H190.756V138.36C190.756 138.93 190.876 139.365 191.116 139.665C191.356 139.955 191.746 140.1 192.286 140.1C192.446 140.1 192.606 140.08 192.766 140.04C192.926 140 193.071 139.96 193.201 139.92L193.411 140.85C193.281 140.92 193.091 140.985 192.841 141.045C192.591 141.105 192.351 141.135 192.121 141.135ZM197.174 141.135C196.314 141.135 195.669 140.91 195.239 140.46C194.809 140 194.594 139.34 194.594 138.48V134.655H193.169V133.71H194.594V131.475H195.809V133.71H198.119V134.655H195.809V138.36C195.809 138.93 195.929 139.365 196.169 139.665C196.409 139.955 196.799 140.1 197.339 140.1C197.499 140.1 197.659 140.08 197.819 140.04C197.979 140 198.124 139.96 198.254 139.92L198.464 140.85C198.334 140.92 198.144 140.985 197.894 141.045C197.644 141.105 197.404 141.135 197.174 141.135ZM202.705 141.135C201.555 141.135 200.645 140.8 199.975 140.13C199.305 139.45 198.97 138.53 198.97 137.37C198.97 136.62 199.12 135.96 199.42 135.39C199.72 134.81 200.13 134.365 200.65 134.055C201.18 133.735 201.79 133.575 202.48 133.575C203.47 133.575 204.245 133.895 204.805 134.535C205.365 135.165 205.645 136.035 205.645 137.145V137.61H200.155C200.195 138.44 200.435 139.075 200.875 139.515C201.315 139.945 201.925 140.16 202.705 140.16C203.145 140.16 203.565 140.095 203.965 139.965C204.365 139.825 204.745 139.6 205.105 139.29L205.525 140.145C205.195 140.455 204.775 140.7 204.265 140.88C203.755 141.05 203.235 141.135 202.705 141.135ZM202.51 134.475C201.82 134.475 201.275 134.69 200.875 135.12C200.475 135.55 200.24 136.115 200.17 136.815H204.595C204.565 136.075 204.37 135.5 204.01 135.09C203.66 134.68 203.16 134.475 202.51 134.475ZM207.404 141V133.71H208.589V135.015C208.979 134.135 209.779 133.65 210.989 133.56L211.424 133.515L211.514 134.565L210.749 134.655C210.059 134.715 209.534 134.935 209.174 135.315C208.814 135.685 208.634 136.195 208.634 136.845V141H207.404ZM214.074 143.7L215.319 140.88L212.244 133.71H213.564L215.979 139.62L218.409 133.71H219.684L215.349 143.7H214.074ZM227.026 141.135C226.286 141.135 225.726 140.92 225.346 140.49C224.976 140.05 224.791 139.415 224.791 138.585V130.425H226.006V138.495C226.006 139.565 226.431 140.1 227.281 140.1C227.531 140.1 227.756 140.07 227.956 140.01L227.926 141.03C227.616 141.1 227.316 141.135 227.026 141.135ZM229.08 131.895V130.53H230.58V131.895H229.08ZM229.23 141V133.71H230.445V141H229.23ZM233.106 141V134.655H231.666V133.71H233.106V133.455C233.106 132.485 233.346 131.75 233.826 131.25C234.316 130.75 235.066 130.47 236.076 130.41L236.661 130.38L236.766 131.31L236.076 131.355C235.456 131.405 235.006 131.59 234.726 131.91C234.456 132.23 234.321 132.695 234.321 133.305V133.71H236.421V134.655H234.321V141H233.106ZM240.791 141.135C239.641 141.135 238.731 140.8 238.061 140.13C237.391 139.45 237.056 138.53 237.056 137.37C237.056 136.62 237.206 135.96 237.506 135.39C237.806 134.81 238.216 134.365 238.736 134.055C239.266 133.735 239.876 133.575 240.566 133.575C241.556 133.575 242.331 133.895 242.891 134.535C243.451 135.165 243.731 136.035 243.731 137.145V137.61H238.241C238.281 138.44 238.521 139.075 238.961 139.515C239.401 139.945 240.011 140.16 240.791 140.16C241.231 140.16 241.651 140.095 242.051 139.965C242.451 139.825 242.831 139.6 243.191 139.29L243.611 140.145C243.281 140.455 242.861 140.7 242.351 140.88C241.841 141.05 241.321 141.135 240.791 141.135ZM240.596 134.475C239.906 134.475 239.361 134.69 238.961 135.12C238.561 135.55 238.326 136.115 238.256 136.815H242.681C242.651 136.075 242.456 135.5 242.096 135.09C241.746 134.68 241.246 134.475 240.596 134.475ZM251.277 141L248.562 133.71H249.837L251.892 139.575L254.022 133.71H255.057L257.157 139.59L259.242 133.71H260.457L257.727 141H256.572L254.517 135.345L252.447 141H251.277ZM261.954 141V130.425H263.169V134.91C263.409 134.47 263.744 134.14 264.174 133.92C264.614 133.69 265.104 133.575 265.644 133.575C267.374 133.575 268.239 134.535 268.239 136.455V141H267.024V136.53C267.024 135.85 266.889 135.355 266.619 135.045C266.359 134.725 265.939 134.565 265.359 134.565C264.689 134.565 264.154 134.775 263.754 135.195C263.364 135.605 263.169 136.155 263.169 136.845V141H261.954ZM273.765 141.135C272.615 141.135 271.705 140.8 271.035 140.13C270.365 139.45 270.03 138.53 270.03 137.37C270.03 136.62 270.18 135.96 270.48 135.39C270.78 134.81 271.19 134.365 271.71 134.055C272.24 133.735 272.85 133.575 273.54 133.575C274.53 133.575 275.305 133.895 275.865 134.535C276.425 135.165 276.705 136.035 276.705 137.145V137.61H271.215C271.255 138.44 271.495 139.075 271.935 139.515C272.375 139.945 272.985 140.16 273.765 140.16C274.205 140.16 274.625 140.095 275.025 139.965C275.425 139.825 275.805 139.6 276.165 139.29L276.585 140.145C276.255 140.455 275.835 140.7 275.325 140.88C274.815 141.05 274.295 141.135 273.765 141.135ZM273.57 134.475C272.88 134.475 272.335 134.69 271.935 135.12C271.535 135.55 271.3 136.115 271.23 136.815H275.655C275.625 136.075 275.43 135.5 275.07 135.09C274.72 134.68 274.22 134.475 273.57 134.475ZM278.463 141V133.71H279.648V134.955C279.888 134.495 280.228 134.15 280.668 133.92C281.108 133.69 281.603 133.575 282.153 133.575C283.883 133.575 284.748 134.535 284.748 136.455V141H283.533V136.53C283.533 135.85 283.398 135.355 283.128 135.045C282.868 134.725 282.448 134.565 281.868 134.565C281.198 134.565 280.663 134.775 280.263 135.195C279.873 135.605 279.678 136.155 279.678 136.845V141H278.463ZM293.871 141.135C293.161 141.135 292.546 140.98 292.026 140.67C291.506 140.36 291.101 139.925 290.811 139.365C290.531 138.795 290.391 138.125 290.391 137.355C290.391 136.585 290.531 135.92 290.811 135.36C291.101 134.79 291.506 134.35 292.026 134.04C292.546 133.73 293.161 133.575 293.871 133.575C294.571 133.575 295.181 133.73 295.701 134.04C296.231 134.35 296.636 134.79 296.916 135.36C297.206 135.92 297.351 136.585 297.351 137.355C297.351 138.125 297.206 138.795 296.916 139.365C296.636 139.925 296.231 140.36 295.701 140.67C295.181 140.98 294.571 141.135 293.871 141.135ZM293.871 140.16C294.551 140.16 295.096 139.92 295.506 139.44C295.916 138.95 296.121 138.255 296.121 137.355C296.121 136.445 295.916 135.75 295.506 135.27C295.096 134.79 294.551 134.55 293.871 134.55C293.181 134.55 292.631 134.79 292.221 135.27C291.821 135.75 291.621 136.445 291.621 137.355C291.621 138.255 291.821 138.95 292.221 139.44C292.631 139.92 293.181 140.16 293.871 140.16ZM299.176 141V133.71H300.361V134.955C300.601 134.495 300.941 134.15 301.381 133.92C301.821 133.69 302.316 133.575 302.866 133.575C304.596 133.575 305.461 134.535 305.461 136.455V141H304.246V136.53C304.246 135.85 304.111 135.355 303.841 135.045C303.581 134.725 303.161 134.565 302.581 134.565C301.911 134.565 301.376 134.775 300.976 135.195C300.586 135.605 300.391 136.155 300.391 136.845V141H299.176ZM311.719 141V130.425H312.949V139.92H318.334V141H311.719ZM322.655 141.135C321.945 141.135 321.33 140.98 320.81 140.67C320.29 140.36 319.885 139.925 319.595 139.365C319.315 138.795 319.175 138.125 319.175 137.355C319.175 136.585 319.315 135.92 319.595 135.36C319.885 134.79 320.29 134.35 320.81 134.04C321.33 133.73 321.945 133.575 322.655 133.575C323.355 133.575 323.965 133.73 324.485 134.04C325.015 134.35 325.42 134.79 325.7 135.36C325.99 135.92 326.135 136.585 326.135 137.355C326.135 138.125 325.99 138.795 325.7 139.365C325.42 139.925 325.015 140.36 324.485 140.67C323.965 140.98 323.355 141.135 322.655 141.135ZM322.655 140.16C323.335 140.16 323.88 139.92 324.29 139.44C324.7 138.95 324.905 138.255 324.905 137.355C324.905 136.445 324.7 135.75 324.29 135.27C323.88 134.79 323.335 134.55 322.655 134.55C321.965 134.55 321.415 134.79 321.005 135.27C320.605 135.75 320.405 136.445 320.405 137.355C320.405 138.255 320.605 138.95 321.005 139.44C321.415 139.92 321.965 140.16 322.655 140.16ZM329.793 141L327.078 133.71H328.353L330.408 139.575L332.538 133.71H333.573L335.673 139.59L337.758 133.71H338.973L336.243 141H335.088L333.033 135.345L330.963 141H329.793ZM60.065 165.135C59.205 165.135 58.56 164.91 58.13 164.46C57.7 164 57.485 163.34 57.485 162.48V158.655H56.06V157.71H57.485V155.475H58.7V157.71H61.01V158.655H58.7V162.36C58.7 162.93 58.82 163.365 59.06 163.665C59.3 163.955 59.69 164.1 60.23 164.1C60.39 164.1 60.55 164.08 60.71 164.04C60.87 164 61.015 163.96 61.145 163.92L61.355 164.85C61.225 164.92 61.035 164.985 60.785 165.045C60.535 165.105 60.295 165.135 60.065 165.135ZM65.3409 165.135C64.6309 165.135 64.0159 164.98 63.4959 164.67C62.9759 164.36 62.5709 163.925 62.2809 163.365C62.0009 162.795 61.8609 162.125 61.8609 161.355C61.8609 160.585 62.0009 159.92 62.2809 159.36C62.5709 158.79 62.9759 158.35 63.4959 158.04C64.0159 157.73 64.6309 157.575 65.3409 157.575C66.0409 157.575 66.6509 157.73 67.1709 158.04C67.7009 158.35 68.1059 158.79 68.3859 159.36C68.6759 159.92 68.8209 160.585 68.8209 161.355C68.8209 162.125 68.6759 162.795 68.3859 163.365C68.1059 163.925 67.7009 164.36 67.1709 164.67C66.6509 164.98 66.0409 165.135 65.3409 165.135ZM65.3409 164.16C66.0209 164.16 66.5659 163.92 66.9759 163.44C67.3859 162.95 67.5909 162.255 67.5909 161.355C67.5909 160.445 67.3859 159.75 66.9759 159.27C66.5659 158.79 66.0209 158.55 65.3409 158.55C64.6509 158.55 64.1009 158.79 63.6909 159.27C63.2909 159.75 63.0909 160.445 63.0909 161.355C63.0909 162.255 63.2909 162.95 63.6909 163.44C64.1009 163.92 64.6509 164.16 65.3409 164.16ZM74.6934 165V154.425H75.7284L79.7934 162.06L83.8284 154.425H84.8634V165H83.7234V156.735L80.1984 163.365H79.3884L75.8184 156.75V165H74.6934ZM90.6154 165.135C89.4654 165.135 88.5554 164.8 87.8854 164.13C87.2154 163.45 86.8804 162.53 86.8804 161.37C86.8804 160.62 87.0304 159.96 87.3304 159.39C87.6304 158.81 88.0404 158.365 88.5604 158.055C89.0904 157.735 89.7004 157.575 90.3904 157.575C91.3804 157.575 92.1554 157.895 92.7154 158.535C93.2754 159.165 93.5554 160.035 93.5554 161.145V161.61H88.0654C88.1054 162.44 88.3454 163.075 88.7854 163.515C89.2254 163.945 89.8354 164.16 90.6154 164.16C91.0554 164.16 91.4754 164.095 91.8754 163.965C92.2754 163.825 92.6554 163.6 93.0154 163.29L93.4354 164.145C93.1054 164.455 92.6854 164.7 92.1754 164.88C91.6654 165.05 91.1454 165.135 90.6154 165.135ZM90.4204 158.475C89.7304 158.475 89.1854 158.69 88.7854 159.12C88.3854 159.55 88.1504 160.115 88.0804 160.815H92.5054C92.4754 160.075 92.2804 159.5 91.9204 159.09C91.5704 158.68 91.0704 158.475 90.4204 158.475ZM98.0888 165.135C97.4388 165.135 96.8688 164.98 96.3788 164.67C95.8988 164.36 95.5238 163.925 95.2538 163.365C94.9938 162.795 94.8638 162.125 94.8638 161.355C94.8638 160.575 94.9938 159.905 95.2538 159.345C95.5238 158.775 95.8988 158.34 96.3788 158.04C96.8688 157.73 97.4388 157.575 98.0888 157.575C98.6588 157.575 99.1588 157.7 99.5888 157.95C100.029 158.2 100.354 158.545 100.564 158.985V154.425H101.779V165H100.594V163.665C100.384 164.125 100.059 164.485 99.6188 164.745C99.1788 165.005 98.6688 165.135 98.0888 165.135ZM98.3438 164.16C99.0238 164.16 99.5688 163.92 99.9788 163.44C100.389 162.95 100.594 162.255 100.594 161.355C100.594 160.445 100.389 159.75 99.9788 159.27C99.5688 158.79 99.0238 158.55 98.3438 158.55C97.6538 158.55 97.1038 158.79 96.6938 159.27C96.2938 159.75 96.0938 160.445 96.0938 161.355C96.0938 162.255 96.2938 162.95 96.6938 163.44C97.1038 163.92 97.6538 164.16 98.3438 164.16ZM103.909 155.895V154.53H105.409V155.895H103.909ZM104.059 165V157.71H105.274V165H104.059ZM110.125 165.135C108.375 165.135 107.5 164.17 107.5 162.24V157.71H108.715V162.225C108.715 162.875 108.845 163.355 109.105 163.665C109.375 163.975 109.795 164.13 110.365 164.13C110.985 164.13 111.49 163.925 111.88 163.515C112.27 163.095 112.465 162.54 112.465 161.85V157.71H113.68V165H112.495V163.77C112.265 164.21 111.94 164.55 111.52 164.79C111.11 165.02 110.645 165.135 110.125 165.135ZM115.983 165V157.71H117.168V158.94C117.388 158.5 117.693 158.165 118.083 157.935C118.473 157.695 118.928 157.575 119.448 157.575C120.588 157.575 121.318 158.07 121.638 159.06C121.858 158.6 122.183 158.24 122.613 157.98C123.043 157.71 123.538 157.575 124.098 157.575C125.718 157.575 126.528 158.535 126.528 160.455V165H125.313V160.515C125.313 159.845 125.193 159.355 124.953 159.045C124.723 158.725 124.338 158.565 123.798 158.565C123.208 158.565 122.738 158.775 122.388 159.195C122.038 159.615 121.863 160.175 121.863 160.875V165H120.648V160.515C120.648 159.845 120.528 159.355 120.288 159.045C120.058 158.725 119.673 158.565 119.133 158.565C118.533 158.565 118.058 158.775 117.708 159.195C117.368 159.615 117.198 160.175 117.198 160.875V165H115.983ZM134.588 165L131.873 157.71H133.148L135.203 163.575L137.333 157.71H138.368L140.468 163.59L142.553 157.71H143.768L141.038 165H139.883L137.828 159.345L135.758 165H134.588ZM145.115 155.895V154.53H146.615V155.895H145.115ZM145.265 165V157.71H146.48V165H145.265ZM151.676 165.135C150.816 165.135 150.171 164.91 149.741 164.46C149.311 164 149.096 163.34 149.096 162.48V158.655H147.671V157.71H149.096V155.475H150.311V157.71H152.621V158.655H150.311V162.36C150.311 162.93 150.431 163.365 150.671 163.665C150.911 163.955 151.301 164.1 151.841 164.1C152.001 164.1 152.161 164.08 152.321 164.04C152.481 164 152.626 163.96 152.756 163.92L152.966 164.85C152.836 164.92 152.646 164.985 152.396 165.045C152.146 165.105 151.906 165.135 151.676 165.135ZM153.995 165V154.425H155.21V158.91C155.45 158.47 155.785 158.14 156.215 157.92C156.655 157.69 157.145 157.575 157.685 157.575C159.415 157.575 160.28 158.535 160.28 160.455V165H159.065V160.53C159.065 159.85 158.93 159.355 158.66 159.045C158.4 158.725 157.98 158.565 157.4 158.565C156.73 158.565 156.195 158.775 155.795 159.195C155.405 159.605 155.21 160.155 155.21 160.845V165H153.995ZM169.298 165.135C168.438 165.135 167.793 164.91 167.363 164.46C166.933 164 166.718 163.34 166.718 162.48V158.655H165.293V157.71H166.718V155.475H167.933V157.71H170.243V158.655H167.933V162.36C167.933 162.93 168.053 163.365 168.293 163.665C168.533 163.955 168.923 164.1 169.463 164.1C169.623 164.1 169.783 164.08 169.943 164.04C170.103 164 170.248 163.96 170.378 163.92L170.588 164.85C170.458 164.92 170.268 164.985 170.018 165.045C169.768 165.105 169.528 165.135 169.298 165.135ZM171.618 165V154.425H172.833V158.91C173.073 158.47 173.408 158.14 173.838 157.92C174.278 157.69 174.768 157.575 175.308 157.575C177.038 157.575 177.903 158.535 177.903 160.455V165H176.688V160.53C176.688 159.85 176.553 159.355 176.283 159.045C176.023 158.725 175.603 158.565 175.023 158.565C174.353 158.565 173.818 158.775 173.418 159.195C173.028 159.605 172.833 160.155 172.833 160.845V165H171.618ZM183.428 165.135C182.278 165.135 181.368 164.8 180.698 164.13C180.028 163.45 179.693 162.53 179.693 161.37C179.693 160.62 179.843 159.96 180.143 159.39C180.443 158.81 180.853 158.365 181.373 158.055C181.903 157.735 182.513 157.575 183.203 157.575C184.193 157.575 184.968 157.895 185.528 158.535C186.088 159.165 186.368 160.035 186.368 161.145V161.61H180.878C180.918 162.44 181.158 163.075 181.598 163.515C182.038 163.945 182.648 164.16 183.428 164.16C183.868 164.16 184.288 164.095 184.688 163.965C185.088 163.825 185.468 163.6 185.828 163.29L186.248 164.145C185.918 164.455 185.498 164.7 184.988 164.88C184.478 165.05 183.958 165.135 183.428 165.135ZM183.233 158.475C182.543 158.475 181.998 158.69 181.598 159.12C181.198 159.55 180.963 160.115 180.893 160.815H185.318C185.288 160.075 185.093 159.5 184.733 159.09C184.383 158.68 183.883 158.475 183.233 158.475ZM192.144 165V154.425H198.684V155.46H193.374V159.15H198.384V160.185H193.374V165H192.144ZM202.199 165.135C201.699 165.135 201.249 165.04 200.849 164.85C200.459 164.65 200.149 164.38 199.919 164.04C199.689 163.7 199.574 163.32 199.574 162.9C199.574 162.37 199.709 161.95 199.979 161.64C200.259 161.33 200.714 161.11 201.344 160.98C201.984 160.84 202.854 160.77 203.954 160.77H204.434V160.305C204.434 159.685 204.304 159.24 204.044 158.97C203.794 158.69 203.389 158.55 202.829 158.55C202.389 158.55 201.964 158.615 201.554 158.745C201.144 158.865 200.724 159.065 200.294 159.345L199.874 158.46C200.254 158.19 200.714 157.975 201.254 157.815C201.804 157.655 202.329 157.575 202.829 157.575C203.769 157.575 204.464 157.805 204.914 158.265C205.374 158.725 205.604 159.44 205.604 160.41V165H204.464V163.74C204.274 164.17 203.979 164.51 203.579 164.76C203.189 165.01 202.729 165.135 202.199 165.135ZM202.394 164.22C202.994 164.22 203.484 164.015 203.864 163.605C204.244 163.185 204.434 162.655 204.434 162.015V161.565H203.969C203.159 161.565 202.519 161.605 202.049 161.685C201.589 161.755 201.264 161.885 201.074 162.075C200.894 162.255 200.804 162.505 200.804 162.825C200.804 163.235 200.944 163.57 201.224 163.83C201.514 164.09 201.904 164.22 202.394 164.22ZM207.858 165V157.71H209.043V158.955C209.283 158.495 209.623 158.15 210.063 157.92C210.503 157.69 210.998 157.575 211.548 157.575C213.278 157.575 214.143 158.535 214.143 160.455V165H212.928V160.53C212.928 159.85 212.793 159.355 212.523 159.045C212.263 158.725 211.843 158.565 211.263 158.565C210.593 158.565 210.058 158.775 209.658 159.195C209.268 159.605 209.073 160.155 209.073 160.845V165H207.858ZM219.473 165.135C218.743 165.135 218.113 164.98 217.583 164.67C217.053 164.35 216.643 163.905 216.353 163.335C216.073 162.755 215.933 162.08 215.933 161.31C215.933 160.15 216.248 159.24 216.878 158.58C217.508 157.91 218.373 157.575 219.473 157.575C219.923 157.575 220.368 157.655 220.808 157.815C221.248 157.975 221.613 158.2 221.903 158.49L221.483 159.375C221.193 159.095 220.873 158.89 220.523 158.76C220.183 158.63 219.858 158.565 219.548 158.565C218.788 158.565 218.203 158.805 217.793 159.285C217.383 159.755 217.178 160.435 217.178 161.325C217.178 162.195 217.383 162.885 217.793 163.395C218.203 163.895 218.788 164.145 219.548 164.145C219.858 164.145 220.183 164.08 220.523 163.95C220.873 163.82 221.193 163.61 221.483 163.32L221.903 164.205C221.613 164.495 221.243 164.725 220.793 164.895C220.353 165.055 219.913 165.135 219.473 165.135ZM223.327 165V154.425H224.542V158.91C224.782 158.47 225.117 158.14 225.547 157.92C225.987 157.69 226.477 157.575 227.017 157.575C228.747 157.575 229.612 158.535 229.612 160.455V165H228.397V160.53C228.397 159.85 228.262 159.355 227.992 159.045C227.732 158.725 227.312 158.565 226.732 158.565C226.062 158.565 225.527 158.775 225.127 159.195C224.737 159.605 224.542 160.155 224.542 160.845V165H223.327ZM234.882 165.135C234.172 165.135 233.557 164.98 233.037 164.67C232.517 164.36 232.112 163.925 231.822 163.365C231.542 162.795 231.402 162.125 231.402 161.355C231.402 160.585 231.542 159.92 231.822 159.36C232.112 158.79 232.517 158.35 233.037 158.04C233.557 157.73 234.172 157.575 234.882 157.575C235.582 157.575 236.192 157.73 236.712 158.04C237.242 158.35 237.647 158.79 237.927 159.36C238.217 159.92 238.362 160.585 238.362 161.355C238.362 162.125 238.217 162.795 237.927 163.365C237.647 163.925 237.242 164.36 236.712 164.67C236.192 164.98 235.582 165.135 234.882 165.135ZM234.882 164.16C235.562 164.16 236.107 163.92 236.517 163.44C236.927 162.95 237.132 162.255 237.132 161.355C237.132 160.445 236.927 159.75 236.517 159.27C236.107 158.79 235.562 158.55 234.882 158.55C234.192 158.55 233.642 158.79 233.232 159.27C232.832 159.75 232.632 160.445 232.632 161.355C232.632 162.255 232.832 162.95 233.232 163.44C233.642 163.92 234.192 164.16 234.882 164.16Z" fill="#0E0D13"/>
</g>
<defs>
<filter id="filter0_d_1498_50748" x="0" y="0" width="404" height="220" filterUnits="userSpaceOnUse" color-interpolation-filters="sRGB">
<feFlood flood-opacity="0" result="BackgroundImageFix"/>
<feColorMatrix in="SourceAlpha" type="matrix" values="0 0 0 0 0 0 0 0 0 0 0 0 0 0 0 0 0 0 127 0" result="hardAlpha"/>
<feOffset/>
<feGaussianBlur stdDeviation="20"/>
<feComposite in2="hardAlpha" operator="out"/>
<feColorMatrix type="matrix" values="0 0 0 0 0.733333 0 0 0 0 0.733333 0 0 0 0 0.733333 0 0 0 0.4 0"/>
<feBlend mode="normal" in2="BackgroundImageFix" result="effect1_dropShadow_1498_50748"/>
<feBlend mode="normal" in="SourceGraphic" in2="effect1_dropShadow_1498_50748" result="shape"/>
</filter>
</defs>
</svg>
