<svg width="404" height="220" viewBox="0 0 404 220" fill="none" xmlns="http://www.w3.org/2000/svg">
<g filter="url(#filter0_d_1498_50742)">
<rect x="40" y="40" width="324" height="140" rx="4" fill="white" shape-rendering="crispEdges"/>
<path fill-rule="evenodd" clip-rule="evenodd" d="M63.1019 54.2502L63.134 54.2502L74.534 54.2502L74.5661 54.2502C75.3789 54.2502 76.0345 54.2502 76.5655 54.2936C77.1121 54.3382 77.5922 54.4326 78.0364 54.6589C78.7421 55.0184 79.3157 55.5921 79.6753 56.2977C79.8996 56.7381 79.9943 57.2137 80.0394 57.7544C80.1632 57.7569 80.2778 57.761 80.3838 57.7677C80.6747 57.7859 80.95 57.8251 81.2193 57.9264C81.9605 58.2054 82.5454 58.7903 82.8244 59.5315C82.9258 59.8008 82.965 60.0761 82.9832 60.367C83.0007 60.6466 83.0007 60.9865 83.0007 61.3937V61.3938V61.4169V62.5835V62.6066V62.6067C83.0007 63.0139 83.0007 63.3538 82.9832 63.6334C82.965 63.9242 82.9258 64.1996 82.8244 64.4689C82.5454 65.21 81.9605 65.795 81.2193 66.0739C80.95 66.1753 80.6747 66.2145 80.3838 66.2327C80.2778 66.2393 80.1632 66.2434 80.0394 66.246C79.9943 66.7867 79.8996 67.2623 79.6753 67.7027C79.3157 68.4083 78.7421 68.9819 78.0365 69.3415C77.5922 69.5678 77.1121 69.6622 76.5655 69.7068C76.0345 69.7502 75.3789 69.7502 74.5661 69.7502H74.534L63.134 69.7502H63.1019H63.1018C62.289 69.7502 61.6334 69.7502 61.1025 69.7068C60.5559 69.6622 60.0757 69.5678 59.6315 69.3415C58.9259 68.9819 58.3522 68.4083 57.9927 67.7027C57.7664 67.2584 57.672 66.7783 57.6273 66.2317C57.584 65.7008 57.584 65.0451 57.584 64.2323L57.584 64.2002L57.584 59.8002L57.584 59.7681C57.584 58.9552 57.584 58.2996 57.6273 57.7687C57.672 57.2221 57.7664 56.7419 57.9927 56.2977C58.3522 55.5921 58.9259 55.0184 59.6315 54.6589C60.0757 54.4326 60.5559 54.3382 61.1025 54.2936C61.6334 54.2502 62.289 54.2502 63.1019 54.2502ZM80.0835 64.7446C80.1586 64.7425 80.2269 64.7396 80.2901 64.7356C80.5113 64.7218 80.6197 64.6969 80.691 64.6701C81.0279 64.5433 81.2937 64.2774 81.4205 63.9405C81.4474 63.8692 81.4723 63.7608 81.4861 63.5397C81.5003 63.3125 81.5007 63.0198 81.5007 62.5835V61.4169C81.5007 60.9806 81.5003 60.6878 81.4861 60.4607C81.4722 60.2395 81.4474 60.1312 81.4205 60.0599C81.2937 59.723 81.0279 59.4571 80.691 59.3303C80.6197 59.3035 80.5113 59.2786 80.2901 59.2647C80.2269 59.2608 80.1586 59.2579 80.0835 59.2558C80.084 59.4192 80.084 59.5899 80.084 59.7681V59.8002L80.084 64.2002V64.2323C80.084 64.4105 80.084 64.5811 80.0835 64.7446ZM71.4719 50.8148C71.8504 50.9831 72.0209 51.4263 71.8527 51.8048L67.6547 61.2502L71.1673 61.2502C71.4212 61.2502 71.6578 61.3786 71.7962 61.5915C71.9345 61.8044 71.9558 62.0728 71.8527 62.3048L67.186 72.8048C67.0178 73.1833 66.5746 73.3538 66.1961 73.1855C65.8175 73.0173 65.6471 72.5741 65.8153 72.1956L70.0132 62.7502L66.5007 62.7502C66.2468 62.7502 66.0101 62.6217 65.8718 62.4089C65.7334 62.196 65.7122 61.9276 65.8153 61.6956L70.482 51.1956C70.6502 50.8171 71.0934 50.6466 71.4719 50.8148Z" fill="#F9B572"/>
<path d="M62.08 108.19C61.0287 108.19 60.0533 108.057 59.154 107.791C58.2547 107.512 57.4947 107.139 56.874 106.67L57.615 104.751C58.2357 105.194 58.9133 105.536 59.648 105.777C60.3953 106.018 61.206 106.138 62.08 106.138C63.0807 106.138 63.809 105.973 64.265 105.644C64.721 105.302 64.949 104.865 64.949 104.333C64.949 103.89 64.7843 103.541 64.455 103.288C64.1383 103.035 63.5873 102.826 62.802 102.661L60.712 102.224C58.3307 101.717 57.14 100.495 57.14 98.557C57.14 97.721 57.3617 96.9927 57.805 96.372C58.2483 95.7513 58.8627 95.27 59.648 94.928C60.4333 94.586 61.339 94.415 62.365 94.415C63.277 94.415 64.132 94.5543 64.93 94.833C65.728 95.099 66.393 95.479 66.925 95.973L66.184 97.797C65.1327 96.9103 63.8533 96.467 62.346 96.467C61.472 96.467 60.788 96.6507 60.294 97.018C59.8 97.3853 59.553 97.8667 59.553 98.462C59.553 98.918 59.705 99.2853 60.009 99.564C60.313 99.83 60.8323 100.039 61.567 100.191L63.638 100.628C64.892 100.894 65.823 101.312 66.431 101.882C67.0517 102.452 67.362 103.212 67.362 104.162C67.362 104.96 67.1467 105.663 66.716 106.271C66.2853 106.879 65.671 107.354 64.873 107.696C64.0877 108.025 63.1567 108.19 62.08 108.19ZM73.3846 108.19C70.9272 108.19 69.6986 106.974 69.6986 104.542V100.495H67.9126V98.709H69.6986V95.935H72.0736V98.709H74.8856V100.495H72.0736V104.409C72.0736 105.017 72.2066 105.473 72.4726 105.777C72.7386 106.081 73.1692 106.233 73.7646 106.233C73.9419 106.233 74.1256 106.214 74.3156 106.176C74.5056 106.125 74.7019 106.075 74.9046 106.024L75.2656 107.772C75.0376 107.899 74.7462 108 74.3916 108.076C74.0496 108.152 73.7139 108.19 73.3846 108.19ZM80.5648 108.19C79.6021 108.19 78.7661 107.994 78.0568 107.601C77.3474 107.208 76.7964 106.651 76.4038 105.929C76.0111 105.194 75.8148 104.333 75.8148 103.345C75.8148 102.357 76.0111 101.502 76.4038 100.78C76.7964 100.058 77.3474 99.5007 78.0568 99.108C78.7661 98.7153 79.6021 98.519 80.5648 98.519C81.5274 98.519 82.3634 98.7153 83.0728 99.108C83.7821 99.5007 84.3331 100.058 84.7258 100.78C85.1184 101.502 85.3148 102.357 85.3148 103.345C85.3148 104.333 85.1184 105.194 84.7258 105.929C84.3331 106.651 83.7821 107.208 83.0728 107.601C82.3634 107.994 81.5274 108.19 80.5648 108.19ZM80.5648 106.385C81.2741 106.385 81.8441 106.132 82.2748 105.625C82.7054 105.106 82.9208 104.346 82.9208 103.345C82.9208 102.332 82.7054 101.578 82.2748 101.084C81.8441 100.577 81.2741 100.324 80.5648 100.324C79.8554 100.324 79.2854 100.577 78.8548 101.084C78.4241 101.578 78.2088 102.332 78.2088 103.345C78.2088 104.346 78.4241 105.106 78.8548 105.625C79.2854 106.132 79.8554 106.385 80.5648 106.385ZM87.275 108V98.709H89.593V100.343C90.049 99.241 91.0244 98.633 92.519 98.519L93.241 98.462L93.393 100.476L92.025 100.609C90.467 100.761 89.688 101.559 89.688 103.003V108H87.275ZM97.6817 108.19C97.0104 108.19 96.4087 108.063 95.8767 107.81C95.3574 107.544 94.9457 107.189 94.6417 106.746C94.3504 106.303 94.2047 105.802 94.2047 105.245C94.2047 104.561 94.382 104.023 94.7367 103.63C95.0914 103.225 95.6677 102.933 96.4657 102.756C97.2637 102.579 98.334 102.49 99.6767 102.49H100.342V102.091C100.342 101.458 100.202 101.002 99.9237 100.723C99.645 100.444 99.1764 100.305 98.5177 100.305C97.9984 100.305 97.4664 100.387 96.9217 100.552C96.377 100.704 95.826 100.945 95.2687 101.274L94.5847 99.659C94.914 99.431 95.3004 99.2347 95.7437 99.07C96.1997 98.8927 96.6747 98.7597 97.1687 98.671C97.6754 98.5697 98.1504 98.519 98.5937 98.519C99.949 98.519 100.956 98.8357 101.615 99.469C102.273 100.09 102.603 101.059 102.603 102.376V108H100.38V106.518C100.164 107.037 99.8224 107.449 99.3537 107.753C98.885 108.044 98.3277 108.19 97.6817 108.19ZM98.1757 106.556C98.7964 106.556 99.3094 106.341 99.7147 105.91C100.133 105.479 100.342 104.935 100.342 104.276V103.858H99.6957C98.505 103.858 97.6754 103.953 97.2067 104.143C96.7507 104.32 96.5227 104.65 96.5227 105.131C96.5227 105.549 96.6684 105.891 96.9597 106.157C97.251 106.423 97.6564 106.556 98.1757 106.556ZM109.345 111.61C108.484 111.61 107.673 111.509 106.913 111.306C106.166 111.116 105.507 110.818 104.937 110.413L105.621 108.76C106.153 109.115 106.723 109.374 107.331 109.539C107.939 109.716 108.547 109.805 109.155 109.805C110.853 109.805 111.701 108.988 111.701 107.354V106.081C111.435 106.6 111.024 107.012 110.466 107.316C109.922 107.62 109.314 107.772 108.642 107.772C107.806 107.772 107.078 107.582 106.457 107.202C105.837 106.809 105.355 106.265 105.013 105.568C104.671 104.871 104.5 104.061 104.5 103.136C104.5 102.211 104.671 101.407 105.013 100.723C105.355 100.026 105.837 99.488 106.457 99.108C107.078 98.7153 107.806 98.519 108.642 98.519C109.339 98.519 109.96 98.6773 110.504 98.994C111.049 99.298 111.448 99.7097 111.701 100.229V98.709H114.019V107.069C114.019 108.576 113.62 109.71 112.822 110.47C112.024 111.23 110.865 111.61 109.345 111.61ZM109.288 105.967C110.023 105.967 110.606 105.714 111.036 105.207C111.467 104.7 111.682 104.01 111.682 103.136C111.682 102.262 111.467 101.578 111.036 101.084C110.606 100.577 110.023 100.324 109.288 100.324C108.554 100.324 107.971 100.577 107.54 101.084C107.11 101.578 106.894 102.262 106.894 103.136C106.894 104.01 107.11 104.7 107.54 105.207C107.971 105.714 108.554 105.967 109.288 105.967ZM121.059 108.19C120.008 108.19 119.102 107.994 118.342 107.601C117.582 107.208 116.993 106.651 116.575 105.929C116.17 105.207 115.967 104.352 115.967 103.364C115.967 102.401 116.163 101.559 116.556 100.837C116.961 100.115 117.512 99.5513 118.209 99.146C118.918 98.728 119.723 98.519 120.622 98.519C121.939 98.519 122.978 98.937 123.738 99.773C124.511 100.609 124.897 101.749 124.897 103.193V103.896H118.247C118.424 105.555 119.374 106.385 121.097 106.385C121.616 106.385 122.136 106.309 122.655 106.157C123.174 105.992 123.649 105.739 124.08 105.397L124.745 106.993C124.302 107.36 123.744 107.652 123.073 107.867C122.402 108.082 121.73 108.19 121.059 108.19ZM120.717 100.134C120.02 100.134 119.457 100.349 119.026 100.78C118.595 101.211 118.336 101.793 118.247 102.528H122.921C122.87 101.755 122.655 101.166 122.275 100.761C121.908 100.343 121.388 100.134 120.717 100.134ZM138.359 108.19C136.966 108.19 135.769 107.911 134.768 107.354C133.78 106.784 133.02 105.986 132.488 104.96C131.956 103.921 131.69 102.699 131.69 101.293C131.69 99.887 131.956 98.671 132.488 97.645C133.02 96.619 133.78 95.8273 134.768 95.27C135.769 94.7 136.966 94.415 138.359 94.415C139.258 94.415 140.107 94.5543 140.905 94.833C141.716 95.1117 142.381 95.5107 142.9 96.03L142.102 97.968C141.532 97.4867 140.949 97.1383 140.354 96.923C139.759 96.695 139.119 96.581 138.435 96.581C137.08 96.581 136.047 96.9927 135.338 97.816C134.629 98.6267 134.274 99.7857 134.274 101.293C134.274 102.8 134.629 103.966 135.338 104.789C136.047 105.612 137.08 106.024 138.435 106.024C139.119 106.024 139.759 105.916 140.354 105.701C140.949 105.473 141.532 105.118 142.102 104.637L142.9 106.575C142.381 107.082 141.716 107.481 140.905 107.772C140.107 108.051 139.258 108.19 138.359 108.19ZM147.52 108.19C146.848 108.19 146.247 108.063 145.715 107.81C145.195 107.544 144.784 107.189 144.48 106.746C144.188 106.303 144.043 105.802 144.043 105.245C144.043 104.561 144.22 104.023 144.575 103.63C144.929 103.225 145.506 102.933 146.304 102.756C147.102 102.579 148.172 102.49 149.515 102.49H150.18V102.091C150.18 101.458 150.04 101.002 149.762 100.723C149.483 100.444 149.014 100.305 148.356 100.305C147.836 100.305 147.304 100.387 146.76 100.552C146.215 100.704 145.664 100.945 145.107 101.274L144.423 99.659C144.752 99.431 145.138 99.2347 145.582 99.07C146.038 98.8927 146.513 98.7597 147.007 98.671C147.513 98.5697 147.988 98.519 148.432 98.519C149.787 98.519 150.794 98.8357 151.453 99.469C152.111 100.09 152.441 101.059 152.441 102.376V108H150.218V106.518C150.002 107.037 149.66 107.449 149.192 107.753C148.723 108.044 148.166 108.19 147.52 108.19ZM148.014 106.556C148.634 106.556 149.147 106.341 149.553 105.91C149.971 105.479 150.18 104.935 150.18 104.276V103.858H149.534C148.343 103.858 147.513 103.953 147.045 104.143C146.589 104.32 146.361 104.65 146.361 105.131C146.361 105.549 146.506 105.891 146.798 106.157C147.089 106.423 147.494 106.556 148.014 106.556ZM154.851 111.42V98.709H157.169V100.191C157.435 99.6843 157.834 99.279 158.366 98.975C158.911 98.671 159.525 98.519 160.209 98.519C161.02 98.519 161.729 98.7153 162.337 99.108C162.958 99.5007 163.439 100.058 163.781 100.78C164.123 101.489 164.294 102.344 164.294 103.345C164.294 104.333 164.123 105.194 163.781 105.929C163.439 106.651 162.964 107.208 162.356 107.601C161.748 107.994 161.033 108.19 160.209 108.19C159.551 108.19 158.955 108.051 158.423 107.772C157.904 107.481 157.505 107.094 157.226 106.613V111.42H154.851ZM159.544 106.385C160.254 106.385 160.824 106.132 161.254 105.625C161.685 105.106 161.9 104.346 161.9 103.345C161.9 102.332 161.685 101.578 161.254 101.084C160.824 100.577 160.254 100.324 159.544 100.324C158.835 100.324 158.265 100.577 157.834 101.084C157.404 101.578 157.188 102.332 157.188 103.345C157.188 104.346 157.404 105.106 157.834 105.625C158.265 106.132 158.835 106.385 159.544 106.385ZM169.303 108.19C168.631 108.19 168.03 108.063 167.498 107.81C166.978 107.544 166.567 107.189 166.263 106.746C165.971 106.303 165.826 105.802 165.826 105.245C165.826 104.561 166.003 104.023 166.358 103.63C166.712 103.225 167.289 102.933 168.087 102.756C168.885 102.579 169.955 102.49 171.298 102.49H171.963V102.091C171.963 101.458 171.823 101.002 171.545 100.723C171.266 100.444 170.797 100.305 170.139 100.305C169.619 100.305 169.087 100.387 168.543 100.552C167.998 100.704 167.447 100.945 166.89 101.274L166.206 99.659C166.535 99.431 166.921 99.2347 167.365 99.07C167.821 98.8927 168.296 98.7597 168.79 98.671C169.296 98.5697 169.771 98.519 170.215 98.519C171.57 98.519 172.577 98.8357 173.236 99.469C173.894 100.09 174.224 101.059 174.224 102.376V108H172.001V106.518C171.785 107.037 171.443 107.449 170.975 107.753C170.506 108.044 169.949 108.19 169.303 108.19ZM169.797 106.556C170.417 106.556 170.93 106.341 171.336 105.91C171.754 105.479 171.963 104.935 171.963 104.276V103.858H171.317C170.126 103.858 169.296 103.953 168.828 104.143C168.372 104.32 168.144 104.65 168.144 105.131C168.144 105.549 168.289 105.891 168.581 106.157C168.872 106.423 169.277 106.556 169.797 106.556ZM180.928 108.19C179.953 108.19 179.104 107.994 178.382 107.601C177.66 107.196 177.103 106.626 176.71 105.891C176.318 105.156 176.121 104.295 176.121 103.307C176.121 102.319 176.318 101.47 176.71 100.761C177.103 100.039 177.66 99.488 178.382 99.108C179.104 98.7153 179.953 98.519 180.928 98.519C181.524 98.519 182.113 98.614 182.695 98.804C183.278 98.994 183.759 99.26 184.139 99.602L183.436 101.255C183.107 100.964 182.733 100.742 182.315 100.59C181.91 100.438 181.517 100.362 181.137 100.362C180.314 100.362 179.674 100.622 179.218 101.141C178.775 101.648 178.553 102.376 178.553 103.326C178.553 104.263 178.775 105.004 179.218 105.549C179.674 106.081 180.314 106.347 181.137 106.347C181.505 106.347 181.897 106.271 182.315 106.119C182.733 105.967 183.107 105.739 183.436 105.435L184.139 107.107C183.759 107.436 183.272 107.702 182.676 107.905C182.094 108.095 181.511 108.19 180.928 108.19ZM185.444 96.714V94.396H188.104V96.714H185.444ZM185.596 108V98.709H187.971V108H185.596ZM194.695 108.19C192.238 108.19 191.009 106.974 191.009 104.542V100.495H189.223V98.709H191.009V95.935H193.384V98.709H196.196V100.495H193.384V104.409C193.384 105.017 193.517 105.473 193.783 105.777C194.049 106.081 194.48 106.233 195.075 106.233C195.252 106.233 195.436 106.214 195.626 106.176C195.816 106.125 196.012 106.075 196.215 106.024L196.576 107.772C196.348 107.899 196.057 108 195.702 108.076C195.36 108.152 195.024 108.19 194.695 108.19ZM198.716 111.42L200.426 107.62L196.569 98.709H199.096L201.699 105.207L204.359 98.709H206.753L201.167 111.42H198.716Z" fill="#0E0D13"/>
<path opacity="0.7" d="M60.725 141.135C59.895 141.135 59.145 141.03 58.475 140.82C57.805 140.6 57.225 140.285 56.735 139.875L57.17 138.885C57.68 139.275 58.215 139.565 58.775 139.755C59.335 139.945 59.985 140.04 60.725 140.04C61.625 140.04 62.29 139.875 62.72 139.545C63.16 139.205 63.38 138.76 63.38 138.21C63.38 137.77 63.22 137.42 62.9 137.16C62.59 136.9 62.065 136.695 61.325 136.545L59.765 136.23C58.825 136.03 58.12 135.705 57.65 135.255C57.19 134.795 56.96 134.185 56.96 133.425C56.96 132.795 57.12 132.245 57.44 131.775C57.77 131.305 58.225 130.94 58.805 130.68C59.385 130.42 60.055 130.29 60.815 130.29C61.525 130.29 62.185 130.405 62.795 130.635C63.405 130.855 63.92 131.175 64.34 131.595L63.905 132.555C63.455 132.145 62.98 131.85 62.48 131.67C61.98 131.48 61.42 131.385 60.8 131.385C60.01 131.385 59.38 131.57 58.91 131.94C58.44 132.3 58.205 132.78 58.205 133.38C58.205 133.86 58.35 134.24 58.64 134.52C58.94 134.8 59.425 135.005 60.095 135.135L61.655 135.465C62.665 135.675 63.41 135.995 63.89 136.425C64.38 136.845 64.625 137.42 64.625 138.15C64.625 138.74 64.465 139.26 64.145 139.71C63.835 140.16 63.385 140.51 62.795 140.76C62.215 141.01 61.525 141.135 60.725 141.135ZM69.2642 141.135C68.4042 141.135 67.7592 140.91 67.3292 140.46C66.8992 140 66.6842 139.34 66.6842 138.48V134.655H65.2592V133.71H66.6842V131.475H67.8992V133.71H70.2092V134.655H67.8992V138.36C67.8992 138.93 68.0192 139.365 68.2592 139.665C68.4992 139.955 68.8892 140.1 69.4292 140.1C69.5892 140.1 69.7492 140.08 69.9092 140.04C70.0692 140 70.2142 139.96 70.3442 139.92L70.5542 140.85C70.4242 140.92 70.2342 140.985 69.9842 141.045C69.7342 141.105 69.4942 141.135 69.2642 141.135ZM74.5401 141.135C73.8301 141.135 73.2151 140.98 72.6951 140.67C72.1751 140.36 71.7701 139.925 71.4801 139.365C71.2001 138.795 71.0601 138.125 71.0601 137.355C71.0601 136.585 71.2001 135.92 71.4801 135.36C71.7701 134.79 72.1751 134.35 72.6951 134.04C73.2151 133.73 73.8301 133.575 74.5401 133.575C75.2401 133.575 75.8501 133.73 76.3701 134.04C76.9001 134.35 77.3051 134.79 77.5851 135.36C77.8751 135.92 78.0201 136.585 78.0201 137.355C78.0201 138.125 77.8751 138.795 77.5851 139.365C77.3051 139.925 76.9001 140.36 76.3701 140.67C75.8501 140.98 75.2401 141.135 74.5401 141.135ZM74.5401 140.16C75.2201 140.16 75.7651 139.92 76.1751 139.44C76.5851 138.95 76.7901 138.255 76.7901 137.355C76.7901 136.445 76.5851 135.75 76.1751 135.27C75.7651 134.79 75.2201 134.55 74.5401 134.55C73.8501 134.55 73.3001 134.79 72.8901 135.27C72.4901 135.75 72.2901 136.445 72.2901 137.355C72.2901 138.255 72.4901 138.95 72.8901 139.44C73.3001 139.92 73.8501 140.16 74.5401 140.16ZM79.8451 141V133.71H81.0301V135.015C81.4201 134.135 82.2201 133.65 83.4301 133.56L83.8651 133.515L83.9551 134.565L83.1901 134.655C82.5001 134.715 81.9751 134.935 81.6151 135.315C81.2551 135.685 81.0751 136.195 81.0751 136.845V141H79.8451ZM87.4428 141.135C86.9428 141.135 86.4928 141.04 86.0928 140.85C85.7028 140.65 85.3928 140.38 85.1628 140.04C84.9328 139.7 84.8178 139.32 84.8178 138.9C84.8178 138.37 84.9528 137.95 85.2228 137.64C85.5028 137.33 85.9578 137.11 86.5878 136.98C87.2278 136.84 88.0978 136.77 89.1978 136.77H89.6778V136.305C89.6778 135.685 89.5478 135.24 89.2878 134.97C89.0378 134.69 88.6328 134.55 88.0728 134.55C87.6328 134.55 87.2078 134.615 86.7978 134.745C86.3878 134.865 85.9678 135.065 85.5378 135.345L85.1178 134.46C85.4978 134.19 85.9578 133.975 86.4978 133.815C87.0478 133.655 87.5728 133.575 88.0728 133.575C89.0128 133.575 89.7078 133.805 90.1578 134.265C90.6178 134.725 90.8478 135.44 90.8478 136.41V141H89.7078V139.74C89.5178 140.17 89.2228 140.51 88.8228 140.76C88.4328 141.01 87.9728 141.135 87.4428 141.135ZM87.6378 140.22C88.2378 140.22 88.7278 140.015 89.1078 139.605C89.4878 139.185 89.6778 138.655 89.6778 138.015V137.565H89.2128C88.4028 137.565 87.7628 137.605 87.2928 137.685C86.8328 137.755 86.5078 137.885 86.3178 138.075C86.1378 138.255 86.0478 138.505 86.0478 138.825C86.0478 139.235 86.1878 139.57 86.4678 139.83C86.7578 140.09 87.1478 140.22 87.6378 140.22ZM96.3269 143.835C95.6969 143.835 95.1019 143.75 94.5419 143.58C93.9919 143.42 93.5019 143.175 93.0719 142.845L93.4769 141.96C93.9269 142.28 94.3719 142.51 94.8119 142.65C95.2619 142.79 95.7469 142.86 96.2669 142.86C97.7069 142.86 98.4269 142.12 98.4269 140.64V139.35C98.2169 139.81 97.8869 140.175 97.4369 140.445C96.9969 140.705 96.4919 140.835 95.9219 140.835C95.2519 140.835 94.6719 140.68 94.1819 140.37C93.6919 140.06 93.3119 139.635 93.0419 139.095C92.7819 138.545 92.6519 137.91 92.6519 137.19C92.6519 136.47 92.7819 135.84 93.0419 135.3C93.3119 134.75 93.6919 134.325 94.1819 134.025C94.6719 133.725 95.2519 133.575 95.9219 133.575C96.4919 133.575 96.9969 133.705 97.4369 133.965C97.8869 134.225 98.2169 134.58 98.4269 135.03V133.71H99.6119V140.475C99.6119 141.595 99.3319 142.435 98.7719 142.995C98.2219 143.555 97.4069 143.835 96.3269 143.835ZM96.1469 139.845C96.8469 139.845 97.4019 139.605 97.8119 139.125C98.2219 138.645 98.4269 138 98.4269 137.19C98.4269 136.38 98.2219 135.74 97.8119 135.27C97.4019 134.79 96.8469 134.55 96.1469 134.55C95.4569 134.55 94.9069 134.79 94.4969 135.27C94.0869 135.74 93.8819 136.38 93.8819 137.19C93.8819 138 94.0869 138.645 94.4969 139.125C94.9069 139.605 95.4569 139.845 96.1469 139.845ZM105.176 141.135C104.026 141.135 103.116 140.8 102.446 140.13C101.776 139.45 101.441 138.53 101.441 137.37C101.441 136.62 101.591 135.96 101.891 135.39C102.191 134.81 102.601 134.365 103.121 134.055C103.651 133.735 104.261 133.575 104.951 133.575C105.941 133.575 106.716 133.895 107.276 134.535C107.836 135.165 108.116 136.035 108.116 137.145V137.61H102.626C102.666 138.44 102.906 139.075 103.346 139.515C103.786 139.945 104.396 140.16 105.176 140.16C105.616 140.16 106.036 140.095 106.436 139.965C106.836 139.825 107.216 139.6 107.576 139.29L107.996 140.145C107.666 140.455 107.246 140.7 106.736 140.88C106.226 141.05 105.706 141.135 105.176 141.135ZM104.981 134.475C104.291 134.475 103.746 134.69 103.346 135.12C102.946 135.55 102.711 136.115 102.641 136.815H107.066C107.036 136.075 106.841 135.5 106.481 135.09C106.131 134.68 105.631 134.475 104.981 134.475ZM116.817 141.135C116.087 141.135 115.457 140.98 114.927 140.67C114.397 140.35 113.987 139.905 113.697 139.335C113.417 138.755 113.277 138.08 113.277 137.31C113.277 136.15 113.592 135.24 114.222 134.58C114.852 133.91 115.717 133.575 116.817 133.575C117.267 133.575 117.712 133.655 118.152 133.815C118.592 133.975 118.957 134.2 119.247 134.49L118.827 135.375C118.537 135.095 118.217 134.89 117.867 134.76C117.527 134.63 117.202 134.565 116.892 134.565C116.132 134.565 115.547 134.805 115.137 135.285C114.727 135.755 114.522 136.435 114.522 137.325C114.522 138.195 114.727 138.885 115.137 139.395C115.547 139.895 116.132 140.145 116.892 140.145C117.202 140.145 117.527 140.08 117.867 139.95C118.217 139.82 118.537 139.61 118.827 139.32L119.247 140.205C118.957 140.495 118.587 140.725 118.137 140.895C117.697 141.055 117.257 141.135 116.817 141.135ZM122.907 141.135C122.407 141.135 121.957 141.04 121.557 140.85C121.167 140.65 120.857 140.38 120.627 140.04C120.397 139.7 120.282 139.32 120.282 138.9C120.282 138.37 120.417 137.95 120.687 137.64C120.967 137.33 121.422 137.11 122.052 136.98C122.692 136.84 123.562 136.77 124.662 136.77H125.142V136.305C125.142 135.685 125.012 135.24 124.752 134.97C124.502 134.69 124.097 134.55 123.537 134.55C123.097 134.55 122.672 134.615 122.262 134.745C121.852 134.865 121.432 135.065 121.002 135.345L120.582 134.46C120.962 134.19 121.422 133.975 121.962 133.815C122.512 133.655 123.037 133.575 123.537 133.575C124.477 133.575 125.172 133.805 125.622 134.265C126.082 134.725 126.312 135.44 126.312 136.41V141H125.172V139.74C124.982 140.17 124.687 140.51 124.287 140.76C123.897 141.01 123.437 141.135 122.907 141.135ZM123.102 140.22C123.702 140.22 124.192 140.015 124.572 139.605C124.952 139.185 125.142 138.655 125.142 138.015V137.565H124.677C123.867 137.565 123.227 137.605 122.757 137.685C122.297 137.755 121.972 137.885 121.782 138.075C121.602 138.255 121.512 138.505 121.512 138.825C121.512 139.235 121.652 139.57 121.932 139.83C122.222 140.09 122.612 140.22 123.102 140.22ZM128.566 143.7V133.71H129.751V135.015C129.971 134.565 130.296 134.215 130.726 133.965C131.166 133.705 131.676 133.575 132.256 133.575C132.906 133.575 133.471 133.73 133.951 134.04C134.441 134.34 134.816 134.775 135.076 135.345C135.346 135.905 135.481 136.575 135.481 137.355C135.481 138.125 135.346 138.795 135.076 139.365C134.816 139.925 134.441 140.36 133.951 140.67C133.471 140.98 132.906 141.135 132.256 141.135C131.696 141.135 131.196 141.01 130.756 140.76C130.316 140.51 129.991 140.165 129.781 139.725V143.7H128.566ZM132.001 140.16C132.681 140.16 133.226 139.92 133.636 139.44C134.046 138.95 134.251 138.255 134.251 137.355C134.251 136.445 134.046 135.75 133.636 135.27C133.226 134.79 132.681 134.55 132.001 134.55C131.321 134.55 130.776 134.79 130.366 135.27C129.956 135.75 129.751 136.445 129.751 137.355C129.751 138.255 129.956 138.95 130.366 139.44C130.776 139.92 131.321 140.16 132.001 140.16ZM139.606 141.135C139.106 141.135 138.656 141.04 138.256 140.85C137.866 140.65 137.556 140.38 137.326 140.04C137.096 139.7 136.981 139.32 136.981 138.9C136.981 138.37 137.116 137.95 137.386 137.64C137.666 137.33 138.121 137.11 138.751 136.98C139.391 136.84 140.261 136.77 141.361 136.77H141.841V136.305C141.841 135.685 141.711 135.24 141.451 134.97C141.201 134.69 140.796 134.55 140.236 134.55C139.796 134.55 139.371 134.615 138.961 134.745C138.551 134.865 138.131 135.065 137.701 135.345L137.281 134.46C137.661 134.19 138.121 133.975 138.661 133.815C139.211 133.655 139.736 133.575 140.236 133.575C141.176 133.575 141.871 133.805 142.321 134.265C142.781 134.725 143.011 135.44 143.011 136.41V141H141.871V139.74C141.681 140.17 141.386 140.51 140.986 140.76C140.596 141.01 140.136 141.135 139.606 141.135ZM139.801 140.22C140.401 140.22 140.891 140.015 141.271 139.605C141.651 139.185 141.841 138.655 141.841 138.015V137.565H141.376C140.566 137.565 139.926 137.605 139.456 137.685C138.996 137.755 138.671 137.885 138.481 138.075C138.301 138.255 138.211 138.505 138.211 138.825C138.211 139.235 138.351 139.57 138.631 139.83C138.921 140.09 139.311 140.22 139.801 140.22ZM148.355 141.135C147.625 141.135 146.995 140.98 146.465 140.67C145.935 140.35 145.525 139.905 145.235 139.335C144.955 138.755 144.815 138.08 144.815 137.31C144.815 136.15 145.13 135.24 145.76 134.58C146.39 133.91 147.255 133.575 148.355 133.575C148.805 133.575 149.25 133.655 149.69 133.815C150.13 133.975 150.495 134.2 150.785 134.49L150.365 135.375C150.075 135.095 149.755 134.89 149.405 134.76C149.065 134.63 148.74 134.565 148.43 134.565C147.67 134.565 147.085 134.805 146.675 135.285C146.265 135.755 146.06 136.435 146.06 137.325C146.06 138.195 146.265 138.885 146.675 139.395C147.085 139.895 147.67 140.145 148.43 140.145C148.74 140.145 149.065 140.08 149.405 139.95C149.755 139.82 150.075 139.61 150.365 139.32L150.785 140.205C150.495 140.495 150.125 140.725 149.675 140.895C149.235 141.055 148.795 141.135 148.355 141.135ZM152.058 131.895V130.53H153.558V131.895H152.058ZM152.208 141V133.71H153.423V141H152.208ZM158.62 141.135C157.76 141.135 157.115 140.91 156.685 140.46C156.255 140 156.04 139.34 156.04 138.48V134.655H154.615V133.71H156.04V131.475H157.255V133.71H159.565V134.655H157.255V138.36C157.255 138.93 157.375 139.365 157.615 139.665C157.855 139.955 158.245 140.1 158.785 140.1C158.945 140.1 159.105 140.08 159.265 140.04C159.425 140 159.57 139.96 159.7 139.92L159.91 140.85C159.78 140.92 159.59 140.985 159.34 141.045C159.09 141.105 158.85 141.135 158.62 141.135ZM161.867 143.7L163.112 140.88L160.037 133.71H161.357L163.772 139.62L166.202 133.71H167.477L163.142 143.7H161.867ZM175.614 141.135C174.904 141.135 174.289 140.98 173.769 140.67C173.249 140.36 172.844 139.925 172.554 139.365C172.274 138.795 172.134 138.125 172.134 137.355C172.134 136.585 172.274 135.92 172.554 135.36C172.844 134.79 173.249 134.35 173.769 134.04C174.289 133.73 174.904 133.575 175.614 133.575C176.314 133.575 176.924 133.73 177.444 134.04C177.974 134.35 178.379 134.79 178.659 135.36C178.949 135.92 179.094 136.585 179.094 137.355C179.094 138.125 178.949 138.795 178.659 139.365C178.379 139.925 177.974 140.36 177.444 140.67C176.924 140.98 176.314 141.135 175.614 141.135ZM175.614 140.16C176.294 140.16 176.839 139.92 177.249 139.44C177.659 138.95 177.864 138.255 177.864 137.355C177.864 136.445 177.659 135.75 177.249 135.27C176.839 134.79 176.294 134.55 175.614 134.55C174.924 134.55 174.374 134.79 173.964 135.27C173.564 135.75 173.364 136.445 173.364 137.355C173.364 138.255 173.564 138.95 173.964 139.44C174.374 139.92 174.924 140.16 175.614 140.16ZM181.236 141V134.655H179.796V133.71H181.236V133.455C181.236 132.485 181.476 131.75 181.956 131.25C182.446 130.75 183.196 130.47 184.206 130.41L184.791 130.38L184.896 131.31L184.206 131.355C183.586 131.405 183.136 131.59 182.856 131.91C182.586 132.23 182.451 132.695 182.451 133.305V133.71H184.551V134.655H182.451V141H181.236ZM192.619 141.135C191.759 141.135 191.114 140.91 190.684 140.46C190.254 140 190.039 139.34 190.039 138.48V134.655H188.614V133.71H190.039V131.475H191.254V133.71H193.564V134.655H191.254V138.36C191.254 138.93 191.374 139.365 191.614 139.665C191.854 139.955 192.244 140.1 192.784 140.1C192.944 140.1 193.104 140.08 193.264 140.04C193.424 140 193.569 139.96 193.699 139.92L193.909 140.85C193.779 140.92 193.589 140.985 193.339 141.045C193.089 141.105 192.849 141.135 192.619 141.135ZM194.938 141V130.425H196.153V134.91C196.393 134.47 196.728 134.14 197.158 133.92C197.598 133.69 198.088 133.575 198.628 133.575C200.358 133.575 201.223 134.535 201.223 136.455V141H200.008V136.53C200.008 135.85 199.873 135.355 199.603 135.045C199.343 134.725 198.923 134.565 198.343 134.565C197.673 134.565 197.138 134.775 196.738 135.195C196.348 135.605 196.153 136.155 196.153 136.845V141H194.938ZM206.748 141.135C205.598 141.135 204.688 140.8 204.018 140.13C203.348 139.45 203.013 138.53 203.013 137.37C203.013 136.62 203.163 135.96 203.463 135.39C203.763 134.81 204.173 134.365 204.693 134.055C205.223 133.735 205.833 133.575 206.523 133.575C207.513 133.575 208.288 133.895 208.848 134.535C209.408 135.165 209.688 136.035 209.688 137.145V137.61H204.198C204.238 138.44 204.478 139.075 204.918 139.515C205.358 139.945 205.968 140.16 206.748 140.16C207.188 140.16 207.608 140.095 208.008 139.965C208.408 139.825 208.788 139.6 209.148 139.29L209.568 140.145C209.238 140.455 208.818 140.7 208.308 140.88C207.798 141.05 207.278 141.135 206.748 141.135ZM206.553 134.475C205.863 134.475 205.318 134.69 204.918 135.12C204.518 135.55 204.283 136.115 204.213 136.815H208.638C208.608 136.075 208.413 135.5 208.053 135.09C207.703 134.68 207.203 134.475 206.553 134.475ZM218.989 141.135C218.409 141.135 217.899 141.005 217.459 140.745C217.029 140.485 216.704 140.13 216.484 139.68V141H215.299V130.425H216.514V134.97C216.724 134.54 217.049 134.2 217.489 133.95C217.929 133.7 218.429 133.575 218.989 133.575C219.639 133.575 220.204 133.73 220.684 134.04C221.174 134.34 221.549 134.775 221.809 135.345C222.079 135.905 222.214 136.575 222.214 137.355C222.214 138.125 222.079 138.795 221.809 139.365C221.549 139.925 221.174 140.36 220.684 140.67C220.204 140.98 219.639 141.135 218.989 141.135ZM218.734 140.16C219.414 140.16 219.959 139.92 220.369 139.44C220.779 138.95 220.984 138.255 220.984 137.355C220.984 136.445 220.779 135.75 220.369 135.27C219.959 134.79 219.414 134.55 218.734 134.55C218.054 134.55 217.509 134.79 217.099 135.27C216.689 135.75 216.484 136.445 216.484 137.355C216.484 138.255 216.689 138.95 217.099 139.44C217.509 139.92 218.054 140.16 218.734 140.16ZM226.339 141.135C225.839 141.135 225.389 141.04 224.989 140.85C224.599 140.65 224.289 140.38 224.059 140.04C223.829 139.7 223.714 139.32 223.714 138.9C223.714 138.37 223.849 137.95 224.119 137.64C224.399 137.33 224.854 137.11 225.484 136.98C226.124 136.84 226.994 136.77 228.094 136.77H228.574V136.305C228.574 135.685 228.444 135.24 228.184 134.97C227.934 134.69 227.529 134.55 226.969 134.55C226.529 134.55 226.104 134.615 225.694 134.745C225.284 134.865 224.864 135.065 224.434 135.345L224.014 134.46C224.394 134.19 224.854 133.975 225.394 133.815C225.944 133.655 226.469 133.575 226.969 133.575C227.909 133.575 228.604 133.805 229.054 134.265C229.514 134.725 229.744 135.44 229.744 136.41V141H228.604V139.74C228.414 140.17 228.119 140.51 227.719 140.76C227.329 141.01 226.869 141.135 226.339 141.135ZM226.534 140.22C227.134 140.22 227.624 140.015 228.004 139.605C228.384 139.185 228.574 138.655 228.574 138.015V137.565H228.109C227.299 137.565 226.659 137.605 226.189 137.685C225.729 137.755 225.404 137.885 225.214 138.075C225.034 138.255 224.944 138.505 224.944 138.825C224.944 139.235 225.084 139.57 225.364 139.83C225.654 140.09 226.044 140.22 226.534 140.22ZM234.923 141.135C234.063 141.135 233.418 140.91 232.988 140.46C232.558 140 232.343 139.34 232.343 138.48V134.655H230.918V133.71H232.343V131.475H233.558V133.71H235.868V134.655H233.558V138.36C233.558 138.93 233.678 139.365 233.918 139.665C234.158 139.955 234.548 140.1 235.088 140.1C235.248 140.1 235.408 140.08 235.568 140.04C235.728 140 235.873 139.96 236.003 139.92L236.213 140.85C236.083 140.92 235.893 140.985 235.643 141.045C235.393 141.105 235.153 141.135 234.923 141.135ZM239.977 141.135C239.117 141.135 238.472 140.91 238.042 140.46C237.612 140 237.397 139.34 237.397 138.48V134.655H235.972V133.71H237.397V131.475H238.612V133.71H240.922V134.655H238.612V138.36C238.612 138.93 238.732 139.365 238.972 139.665C239.212 139.955 239.602 140.1 240.142 140.1C240.302 140.1 240.462 140.08 240.622 140.04C240.782 140 240.927 139.96 241.057 139.92L241.267 140.85C241.137 140.92 240.947 140.985 240.697 141.045C240.447 141.105 240.207 141.135 239.977 141.135ZM245.508 141.135C244.358 141.135 243.448 140.8 242.778 140.13C242.108 139.45 241.773 138.53 241.773 137.37C241.773 136.62 241.923 135.96 242.223 135.39C242.523 134.81 242.933 134.365 243.453 134.055C243.983 133.735 244.593 133.575 245.283 133.575C246.273 133.575 247.048 133.895 247.608 134.535C248.168 135.165 248.448 136.035 248.448 137.145V137.61H242.958C242.998 138.44 243.238 139.075 243.678 139.515C244.118 139.945 244.728 140.16 245.508 140.16C245.948 140.16 246.368 140.095 246.768 139.965C247.168 139.825 247.548 139.6 247.908 139.29L248.328 140.145C247.998 140.455 247.578 140.7 247.068 140.88C246.558 141.05 246.038 141.135 245.508 141.135ZM245.313 134.475C244.623 134.475 244.078 134.69 243.678 135.12C243.278 135.55 243.043 136.115 242.973 136.815H247.398C247.368 136.075 247.173 135.5 246.813 135.09C246.463 134.68 245.963 134.475 245.313 134.475ZM250.206 141V133.71H251.391V135.015C251.781 134.135 252.581 133.65 253.791 133.56L254.226 133.515L254.316 134.565L253.551 134.655C252.861 134.715 252.336 134.935 251.976 135.315C251.616 135.685 251.436 136.195 251.436 136.845V141H250.206ZM256.876 143.7L258.121 140.88L255.046 133.71H256.366L258.781 139.62L261.211 133.71H262.486L258.151 143.7H256.876ZM269.529 141L266.814 133.71H268.089L270.144 139.575L272.274 133.71H273.309L275.409 139.59L277.494 133.71H278.709L275.979 141H274.824L272.769 135.345L270.699 141H269.529ZM280.056 131.895V130.53H281.556V131.895H280.056ZM280.206 141V133.71H281.421V141H280.206ZM285.928 141.135C285.188 141.135 284.628 140.92 284.248 140.49C283.878 140.05 283.693 139.415 283.693 138.585V130.425H284.908V138.495C284.908 139.565 285.333 140.1 286.183 140.1C286.433 140.1 286.658 140.07 286.858 140.01L286.828 141.03C286.518 141.1 286.218 141.135 285.928 141.135ZM290.366 141.135C289.626 141.135 289.066 140.92 288.686 140.49C288.316 140.05 288.131 139.415 288.131 138.585V130.425H289.346V138.495C289.346 139.565 289.771 140.1 290.621 140.1C290.871 140.1 291.096 140.07 291.296 140.01L291.266 141.03C290.956 141.1 290.656 141.135 290.366 141.135ZM300.112 141.135C299.532 141.135 299.022 141.005 298.582 140.745C298.152 140.485 297.827 140.13 297.607 139.68V141H296.422V130.425H297.637V134.97C297.847 134.54 298.172 134.2 298.612 133.95C299.052 133.7 299.552 133.575 300.112 133.575C300.762 133.575 301.327 133.73 301.807 134.04C302.297 134.34 302.672 134.775 302.932 135.345C303.202 135.905 303.337 136.575 303.337 137.355C303.337 138.125 303.202 138.795 302.932 139.365C302.672 139.925 302.297 140.36 301.807 140.67C301.327 140.98 300.762 141.135 300.112 141.135ZM299.857 140.16C300.537 140.16 301.082 139.92 301.492 139.44C301.902 138.95 302.107 138.255 302.107 137.355C302.107 136.445 301.902 135.75 301.492 135.27C301.082 134.79 300.537 134.55 299.857 134.55C299.177 134.55 298.632 134.79 298.222 135.27C297.812 135.75 297.607 136.445 297.607 137.355C297.607 138.255 297.812 138.95 298.222 139.44C298.632 139.92 299.177 140.16 299.857 140.16ZM308.452 141.135C307.302 141.135 306.392 140.8 305.722 140.13C305.052 139.45 304.717 138.53 304.717 137.37C304.717 136.62 304.867 135.96 305.167 135.39C305.467 134.81 305.877 134.365 306.397 134.055C306.927 133.735 307.537 133.575 308.227 133.575C309.217 133.575 309.992 133.895 310.552 134.535C311.112 135.165 311.392 136.035 311.392 137.145V137.61H305.902C305.942 138.44 306.182 139.075 306.622 139.515C307.062 139.945 307.672 140.16 308.452 140.16C308.892 140.16 309.312 140.095 309.712 139.965C310.112 139.825 310.492 139.6 310.852 139.29L311.272 140.145C310.942 140.455 310.522 140.7 310.012 140.88C309.502 141.05 308.982 141.135 308.452 141.135ZM308.257 134.475C307.567 134.475 307.022 134.69 306.622 135.12C306.222 135.55 305.987 136.115 305.917 136.815H310.342C310.312 136.075 310.117 135.5 309.757 135.09C309.407 134.68 308.907 134.475 308.257 134.475ZM57.35 165V164.07L60.965 160.17C61.475 159.61 61.84 159.1 62.06 158.64C62.29 158.18 62.405 157.71 62.405 157.23C62.405 156 61.69 155.385 60.26 155.385C59.19 155.385 58.245 155.785 57.425 156.585L56.96 155.625C57.35 155.225 57.845 154.905 58.445 154.665C59.055 154.415 59.695 154.29 60.365 154.29C61.425 154.29 62.235 154.54 62.795 155.04C63.365 155.53 63.65 156.23 63.65 157.14C63.65 157.77 63.495 158.39 63.185 159C62.875 159.6 62.4 160.24 61.76 160.92L58.925 163.95H64.085V165H57.35ZM69.7191 165.135C69.0391 165.135 68.3891 165.025 67.7691 164.805C67.1491 164.585 66.6241 164.275 66.1941 163.875L66.6591 162.9C67.5891 163.66 68.6041 164.04 69.7041 164.04C70.4341 164.04 71.0091 163.835 71.4291 163.425C71.8491 163.015 72.0591 162.475 72.0591 161.805C72.0591 161.115 71.8591 160.55 71.4591 160.11C71.0591 159.67 70.5091 159.45 69.8091 159.45C68.7991 159.45 68.0041 159.87 67.4241 160.71H66.5241V154.425H72.6591V155.475H67.7391V159.255C68.3191 158.675 69.0841 158.385 70.0341 158.385C70.6941 158.385 71.2691 158.525 71.7591 158.805C72.2491 159.085 72.6241 159.48 72.8841 159.99C73.1541 160.49 73.2891 161.075 73.2891 161.745C73.2891 162.405 73.1441 162.99 72.8541 163.5C72.5641 164.01 72.1491 164.41 71.6091 164.7C71.0791 164.99 70.4491 165.135 69.7191 165.135ZM75.5633 166.71L74.9933 166.275C75.2133 166.045 75.3683 165.825 75.4583 165.615C75.5583 165.415 75.6233 165.21 75.6533 165H74.9333V163.47H76.4633V164.55C76.4633 164.96 76.3983 165.34 76.2683 165.69C76.1383 166.04 75.9033 166.38 75.5633 166.71ZM82.2614 165.135C81.0114 165.135 80.0464 164.685 79.3664 163.785C78.6964 162.875 78.3614 161.605 78.3614 159.975C78.3614 158.145 78.7364 156.74 79.4864 155.76C80.2364 154.78 81.2864 154.29 82.6364 154.29C83.1764 154.29 83.7164 154.405 84.2564 154.635C84.8064 154.865 85.2564 155.175 85.6064 155.565L85.1564 156.525C84.7864 156.145 84.3814 155.86 83.9414 155.67C83.5114 155.48 83.0664 155.385 82.6064 155.385C81.6264 155.385 80.8714 155.75 80.3414 156.48C79.8214 157.21 79.5614 158.295 79.5614 159.735V160.47C79.7514 159.81 80.1014 159.295 80.6114 158.925C81.1314 158.555 81.7414 158.37 82.4414 158.37C83.0614 158.37 83.6114 158.515 84.0914 158.805C84.5714 159.085 84.9464 159.475 85.2164 159.975C85.4864 160.475 85.6214 161.05 85.6214 161.7C85.6214 162.37 85.4764 162.965 85.1864 163.485C84.9064 163.995 84.5114 164.4 84.0014 164.7C83.5014 164.99 82.9214 165.135 82.2614 165.135ZM82.1864 164.085C82.8564 164.085 83.3964 163.87 83.8064 163.44C84.2264 163.01 84.4364 162.445 84.4364 161.745C84.4364 161.055 84.2264 160.495 83.8064 160.065C83.3964 159.625 82.8564 159.405 82.1864 159.405C81.5164 159.405 80.9714 159.625 80.5514 160.065C80.1414 160.495 79.9364 161.055 79.9364 161.745C79.9364 162.445 80.1414 163.01 80.5514 163.44C80.9714 163.87 81.5164 164.085 82.1864 164.085ZM90.8955 165.135C89.6855 165.135 88.7655 164.67 88.1355 163.74C87.5055 162.81 87.1905 161.465 87.1905 159.705C87.1905 157.935 87.5055 156.59 88.1355 155.67C88.7655 154.75 89.6855 154.29 90.8955 154.29C92.1155 154.29 93.0355 154.75 93.6555 155.67C94.2855 156.58 94.6005 157.92 94.6005 159.69C94.6005 161.46 94.2805 162.81 93.6405 163.74C93.0105 164.67 92.0955 165.135 90.8955 165.135ZM90.8955 164.07C91.7355 164.07 92.3555 163.715 92.7555 163.005C93.1655 162.295 93.3705 161.19 93.3705 159.69C93.3705 158.19 93.1705 157.095 92.7705 156.405C92.3705 155.705 91.7455 155.355 90.8955 155.355C90.0555 155.355 89.4305 155.705 89.0205 156.405C88.6205 157.105 88.4205 158.2 88.4205 159.69C88.4205 161.19 88.6205 162.295 89.0205 163.005C89.4305 163.715 90.0555 164.07 90.8955 164.07ZM99.8896 165.135C98.6796 165.135 97.7596 164.67 97.1296 163.74C96.4996 162.81 96.1846 161.465 96.1846 159.705C96.1846 157.935 96.4996 156.59 97.1296 155.67C97.7596 154.75 98.6796 154.29 99.8896 154.29C101.11 154.29 102.03 154.75 102.65 155.67C103.28 156.58 103.595 157.92 103.595 159.69C103.595 161.46 103.275 162.81 102.635 163.74C102.005 164.67 101.09 165.135 99.8896 165.135ZM99.8896 164.07C100.73 164.07 101.35 163.715 101.75 163.005C102.16 162.295 102.365 161.19 102.365 159.69C102.365 158.19 102.165 157.095 101.765 156.405C101.365 155.705 100.74 155.355 99.8896 155.355C99.0496 155.355 98.4246 155.705 98.0146 156.405C97.6146 157.105 97.4146 158.2 97.4146 159.69C97.4146 161.19 97.6146 162.295 98.0146 163.005C98.4246 163.715 99.0496 164.07 99.8896 164.07ZM109.406 165V157.71H110.591V158.94C110.811 158.5 111.116 158.165 111.506 157.935C111.896 157.695 112.351 157.575 112.871 157.575C114.011 157.575 114.741 158.07 115.061 159.06C115.281 158.6 115.606 158.24 116.036 157.98C116.466 157.71 116.961 157.575 117.521 157.575C119.141 157.575 119.951 158.535 119.951 160.455V165H118.736V160.515C118.736 159.845 118.616 159.355 118.376 159.045C118.146 158.725 117.761 158.565 117.221 158.565C116.631 158.565 116.161 158.775 115.811 159.195C115.461 159.615 115.286 160.175 115.286 160.875V165H114.071V160.515C114.071 159.845 113.951 159.355 113.711 159.045C113.481 158.725 113.096 158.565 112.556 158.565C111.956 158.565 111.481 158.775 111.131 159.195C110.791 159.615 110.621 160.175 110.621 160.875V165H109.406ZM121.368 165L126.033 154.425H127.083L131.748 165H130.473L129.303 162.3H123.798L122.643 165H121.368ZM126.543 155.865L124.248 161.265H128.868L126.573 155.865H126.543ZM133.151 165V154.425H134.366V158.91C134.606 158.47 134.941 158.14 135.371 157.92C135.811 157.69 136.301 157.575 136.841 157.575C138.571 157.575 139.436 158.535 139.436 160.455V165H138.221V160.53C138.221 159.85 138.086 159.355 137.816 159.045C137.556 158.725 137.136 158.565 136.556 158.565C135.886 158.565 135.351 158.775 134.951 159.195C134.561 159.605 134.366 160.155 134.366 160.845V165H133.151ZM147.749 167.88C147.109 166.78 146.644 165.665 146.354 164.535C146.064 163.395 145.919 162.235 145.919 161.055C145.919 159.875 146.064 158.72 146.354 157.59C146.644 156.46 147.109 155.34 147.749 154.23L148.619 154.56C148.139 155.68 147.784 156.77 147.554 157.83C147.324 158.88 147.209 159.955 147.209 161.055C147.209 162.155 147.324 163.235 147.554 164.295C147.784 165.345 148.139 166.43 148.619 167.55L147.749 167.88ZM150.319 165V157.71H151.504V158.94C151.724 158.5 152.029 158.165 152.419 157.935C152.809 157.695 153.264 157.575 153.784 157.575C154.924 157.575 155.654 158.07 155.974 159.06C156.194 158.6 156.519 158.24 156.949 157.98C157.379 157.71 157.874 157.575 158.434 157.575C160.054 157.575 160.864 158.535 160.864 160.455V165H159.649V160.515C159.649 159.845 159.529 159.355 159.289 159.045C159.059 158.725 158.674 158.565 158.134 158.565C157.544 158.565 157.074 158.775 156.724 159.195C156.374 159.615 156.199 160.175 156.199 160.875V165H154.984V160.515C154.984 159.845 154.864 159.355 154.624 159.045C154.394 158.725 154.009 158.565 153.469 158.565C152.869 158.565 152.394 158.775 152.044 159.195C151.704 159.615 151.534 160.175 151.534 160.875V165H150.319ZM162.986 155.895V154.53H164.486V155.895H162.986ZM163.136 165V157.71H164.351V165H163.136ZM168.857 165.135C168.117 165.135 167.557 164.92 167.177 164.49C166.807 164.05 166.622 163.415 166.622 162.585V154.425H167.837V162.495C167.837 163.565 168.262 164.1 169.112 164.1C169.362 164.1 169.587 164.07 169.787 164.01L169.757 165.03C169.447 165.1 169.147 165.135 168.857 165.135ZM173.296 165.135C172.556 165.135 171.996 164.92 171.616 164.49C171.246 164.05 171.061 163.415 171.061 162.585V154.425H172.276V162.495C172.276 163.565 172.701 164.1 173.551 164.1C173.801 164.1 174.026 164.07 174.226 164.01L174.196 165.03C173.886 165.1 173.586 165.135 173.296 165.135ZM175.349 155.895V154.53H176.849V155.895H175.349ZM175.499 165V157.71H176.714V165H175.499ZM181.281 165.135C180.781 165.135 180.331 165.04 179.931 164.85C179.541 164.65 179.231 164.38 179.001 164.04C178.771 163.7 178.656 163.32 178.656 162.9C178.656 162.37 178.791 161.95 179.061 161.64C179.341 161.33 179.796 161.11 180.426 160.98C181.066 160.84 181.936 160.77 183.036 160.77H183.516V160.305C183.516 159.685 183.386 159.24 183.126 158.97C182.876 158.69 182.471 158.55 181.911 158.55C181.471 158.55 181.046 158.615 180.636 158.745C180.226 158.865 179.806 159.065 179.376 159.345L178.956 158.46C179.336 158.19 179.796 157.975 180.336 157.815C180.886 157.655 181.411 157.575 181.911 157.575C182.851 157.575 183.546 157.805 183.996 158.265C184.456 158.725 184.686 159.44 184.686 160.41V165H183.546V163.74C183.356 164.17 183.061 164.51 182.661 164.76C182.271 165.01 181.811 165.135 181.281 165.135ZM181.476 164.22C182.076 164.22 182.566 164.015 182.946 163.605C183.326 163.185 183.516 162.655 183.516 162.015V161.565H183.051C182.241 161.565 181.601 161.605 181.131 161.685C180.671 161.755 180.346 161.885 180.156 162.075C179.976 162.255 179.886 162.505 179.886 162.825C179.886 163.235 180.026 163.57 180.306 163.83C180.596 164.09 180.986 164.22 181.476 164.22ZM186.97 165V157.71H188.155V158.94C188.375 158.5 188.68 158.165 189.07 157.935C189.46 157.695 189.915 157.575 190.435 157.575C191.575 157.575 192.305 158.07 192.625 159.06C192.845 158.6 193.17 158.24 193.6 157.98C194.03 157.71 194.525 157.575 195.085 157.575C196.705 157.575 197.515 158.535 197.515 160.455V165H196.3V160.515C196.3 159.845 196.18 159.355 195.94 159.045C195.71 158.725 195.325 158.565 194.785 158.565C194.195 158.565 193.725 158.775 193.375 159.195C193.025 159.615 192.85 160.175 192.85 160.875V165H191.635V160.515C191.635 159.845 191.515 159.355 191.275 159.045C191.045 158.725 190.66 158.565 190.12 158.565C189.52 158.565 189.045 158.775 188.695 159.195C188.355 159.615 188.185 160.175 188.185 160.875V165H186.97ZM199.786 167.7V157.71H200.971V159.015C201.191 158.565 201.516 158.215 201.946 157.965C202.386 157.705 202.896 157.575 203.476 157.575C204.126 157.575 204.691 157.73 205.171 158.04C205.661 158.34 206.036 158.775 206.296 159.345C206.566 159.905 206.701 160.575 206.701 161.355C206.701 162.125 206.566 162.795 206.296 163.365C206.036 163.925 205.661 164.36 205.171 164.67C204.691 164.98 204.126 165.135 203.476 165.135C202.916 165.135 202.416 165.01 201.976 164.76C201.536 164.51 201.211 164.165 201.001 163.725V167.7H199.786ZM203.221 164.16C203.901 164.16 204.446 163.92 204.856 163.44C205.266 162.95 205.471 162.255 205.471 161.355C205.471 160.445 205.266 159.75 204.856 159.27C204.446 158.79 203.901 158.55 203.221 158.55C202.541 158.55 201.996 158.79 201.586 159.27C201.176 159.75 200.971 160.445 200.971 161.355C200.971 162.255 201.176 162.95 201.586 163.44C201.996 163.92 202.541 164.16 203.221 164.16ZM211.817 165.135C210.667 165.135 209.757 164.8 209.087 164.13C208.417 163.45 208.082 162.53 208.082 161.37C208.082 160.62 208.232 159.96 208.532 159.39C208.832 158.81 209.242 158.365 209.762 158.055C210.292 157.735 210.902 157.575 211.592 157.575C212.582 157.575 213.357 157.895 213.917 158.535C214.477 159.165 214.757 160.035 214.757 161.145V161.61H209.267C209.307 162.44 209.547 163.075 209.987 163.515C210.427 163.945 211.037 164.16 211.817 164.16C212.257 164.16 212.677 164.095 213.077 163.965C213.477 163.825 213.857 163.6 214.217 163.29L214.637 164.145C214.307 164.455 213.887 164.7 213.377 164.88C212.867 165.05 212.347 165.135 211.817 165.135ZM211.622 158.475C210.932 158.475 210.387 158.69 209.987 159.12C209.587 159.55 209.352 160.115 209.282 160.815H213.707C213.677 160.075 213.482 159.5 213.122 159.09C212.772 158.68 212.272 158.475 211.622 158.475ZM216.515 165V157.71H217.7V159.015C218.09 158.135 218.89 157.65 220.1 157.56L220.535 157.515L220.625 158.565L219.86 158.655C219.17 158.715 218.645 158.935 218.285 159.315C217.925 159.685 217.745 160.195 217.745 160.845V165H216.515ZM225.088 165.135C223.938 165.135 223.028 164.8 222.358 164.13C221.688 163.45 221.353 162.53 221.353 161.37C221.353 160.62 221.503 159.96 221.803 159.39C222.103 158.81 222.513 158.365 223.033 158.055C223.563 157.735 224.173 157.575 224.863 157.575C225.853 157.575 226.628 157.895 227.188 158.535C227.748 159.165 228.028 160.035 228.028 161.145V161.61H222.538C222.578 162.44 222.818 163.075 223.258 163.515C223.698 163.945 224.308 164.16 225.088 164.16C225.528 164.16 225.948 164.095 226.348 163.965C226.748 163.825 227.128 163.6 227.488 163.29L227.908 164.145C227.578 164.455 227.158 164.7 226.648 164.88C226.138 165.05 225.618 165.135 225.088 165.135ZM224.893 158.475C224.203 158.475 223.658 158.69 223.258 159.12C222.858 159.55 222.623 160.115 222.553 160.815H226.978C226.948 160.075 226.753 159.5 226.393 159.09C226.043 158.68 225.543 158.475 224.893 158.475ZM229.888 161.505V160.5H234.088V161.505H229.888ZM236.305 165V154.425H237.52V158.91C237.76 158.47 238.095 158.14 238.525 157.92C238.965 157.69 239.455 157.575 239.995 157.575C241.725 157.575 242.59 158.535 242.59 160.455V165H241.375V160.53C241.375 159.85 241.24 159.355 240.97 159.045C240.71 158.725 240.29 158.565 239.71 158.565C239.04 158.565 238.505 158.775 238.105 159.195C237.715 159.605 237.52 160.155 237.52 160.845V165H236.305ZM247.86 165.135C247.15 165.135 246.535 164.98 246.015 164.67C245.495 164.36 245.09 163.925 244.8 163.365C244.52 162.795 244.38 162.125 244.38 161.355C244.38 160.585 244.52 159.92 244.8 159.36C245.09 158.79 245.495 158.35 246.015 158.04C246.535 157.73 247.15 157.575 247.86 157.575C248.56 157.575 249.17 157.73 249.69 158.04C250.22 158.35 250.625 158.79 250.905 159.36C251.195 159.92 251.34 160.585 251.34 161.355C251.34 162.125 251.195 162.795 250.905 163.365C250.625 163.925 250.22 164.36 249.69 164.67C249.17 164.98 248.56 165.135 247.86 165.135ZM247.86 164.16C248.54 164.16 249.085 163.92 249.495 163.44C249.905 162.95 250.11 162.255 250.11 161.355C250.11 160.445 249.905 159.75 249.495 159.27C249.085 158.79 248.54 158.55 247.86 158.55C247.17 158.55 246.62 158.79 246.21 159.27C245.81 159.75 245.61 160.445 245.61 161.355C245.61 162.255 245.81 162.95 246.21 163.44C246.62 163.92 247.17 164.16 247.86 164.16ZM255.745 165.135C253.995 165.135 253.12 164.17 253.12 162.24V157.71H254.335V162.225C254.335 162.875 254.465 163.355 254.725 163.665C254.995 163.975 255.415 164.13 255.985 164.13C256.605 164.13 257.11 163.925 257.5 163.515C257.89 163.095 258.085 162.54 258.085 161.85V157.71H259.3V165H258.115V163.77C257.885 164.21 257.56 164.55 257.14 164.79C256.73 165.02 256.265 165.135 255.745 165.135ZM261.574 165V157.71H262.759V159.015C263.149 158.135 263.949 157.65 265.159 157.56L265.594 157.515L265.684 158.565L264.919 158.655C264.229 158.715 263.704 158.935 263.344 159.315C262.984 159.685 262.804 160.195 262.804 160.845V165H261.574ZM267.468 167.88L266.598 167.55C267.078 166.42 267.428 165.33 267.648 164.28C267.878 163.22 267.993 162.145 267.993 161.055C267.993 159.965 267.878 158.895 267.648 157.845C267.428 156.785 267.078 155.69 266.598 154.56L267.468 154.23C268.108 155.34 268.573 156.46 268.863 157.59C269.153 158.72 269.298 159.875 269.298 161.055C269.298 162.235 269.153 163.395 268.863 164.535C268.573 165.665 268.108 166.78 267.468 167.88Z" fill="#0E0D13"/>
</g>
<defs>
<filter id="filter0_d_1498_50742" x="0" y="0" width="404" height="220" filterUnits="userSpaceOnUse" color-interpolation-filters="sRGB">
<feFlood flood-opacity="0" result="BackgroundImageFix"/>
<feColorMatrix in="SourceAlpha" type="matrix" values="0 0 0 0 0 0 0 0 0 0 0 0 0 0 0 0 0 0 127 0" result="hardAlpha"/>
<feOffset/>
<feGaussianBlur stdDeviation="20"/>
<feComposite in2="hardAlpha" operator="out"/>
<feColorMatrix type="matrix" values="0 0 0 0 0.733333 0 0 0 0 0.733333 0 0 0 0 0.733333 0 0 0 0.4 0"/>
<feBlend mode="normal" in2="BackgroundImageFix" result="effect1_dropShadow_1498_50742"/>
<feBlend mode="normal" in="SourceGraphic" in2="effect1_dropShadow_1498_50742" result="shape"/>
</filter>
</defs>
</svg>
