<svg width="404" height="220" viewBox="0 0 404 220" fill="none" xmlns="http://www.w3.org/2000/svg">
<g filter="url(#filter0_d_1498_50737)">
<rect x="40" y="40" width="324" height="140" rx="4" fill="white" shape-rendering="crispEdges"/>
<path fill-rule="evenodd" clip-rule="evenodd" d="M63.1019 54.2502L63.134 54.2502L74.534 54.2502L74.5661 54.2502C75.3789 54.2502 76.0345 54.2502 76.5655 54.2936C77.1121 54.3382 77.5922 54.4326 78.0364 54.6589C78.7421 55.0184 79.3157 55.5921 79.6753 56.2977C79.8996 56.7381 79.9943 57.2137 80.0394 57.7544C80.1632 57.7569 80.2778 57.761 80.3838 57.7677C80.6747 57.7859 80.95 57.8251 81.2193 57.9264C81.9605 58.2054 82.5454 58.7903 82.8244 59.5315C82.9258 59.8008 82.965 60.0761 82.9832 60.367C83.0007 60.6466 83.0007 60.9865 83.0007 61.3937V61.3938V61.4169V62.5835V62.6066V62.6067C83.0007 63.0139 83.0007 63.3538 82.9832 63.6334C82.965 63.9242 82.9258 64.1996 82.8244 64.4689C82.5454 65.21 81.9605 65.795 81.2193 66.0739C80.95 66.1753 80.6747 66.2145 80.3838 66.2327C80.2778 66.2393 80.1632 66.2434 80.0394 66.246C79.9943 66.7867 79.8996 67.2623 79.6753 67.7027C79.3157 68.4083 78.7421 68.9819 78.0365 69.3415C77.5922 69.5678 77.1121 69.6622 76.5655 69.7068C76.0345 69.7502 75.3789 69.7502 74.5661 69.7502H74.534L63.134 69.7502H63.1019H63.1018C62.289 69.7502 61.6334 69.7502 61.1025 69.7068C60.5559 69.6622 60.0757 69.5678 59.6315 69.3415C58.9259 68.9819 58.3522 68.4083 57.9927 67.7027C57.7664 67.2584 57.672 66.7783 57.6273 66.2317C57.584 65.7008 57.584 65.0451 57.584 64.2323L57.584 64.2002L57.584 59.8002L57.584 59.7681C57.584 58.9552 57.584 58.2996 57.6273 57.7687C57.672 57.2221 57.7664 56.7419 57.9927 56.2977C58.3522 55.5921 58.9259 55.0184 59.6315 54.6589C60.0757 54.4326 60.5559 54.3382 61.1025 54.2936C61.6334 54.2502 62.289 54.2502 63.1019 54.2502ZM80.0835 64.7446C80.1586 64.7425 80.2269 64.7396 80.2901 64.7356C80.5113 64.7218 80.6197 64.6969 80.691 64.6701C81.0279 64.5433 81.2937 64.2774 81.4205 63.9405C81.4474 63.8692 81.4723 63.7608 81.4861 63.5397C81.5003 63.3125 81.5007 63.0198 81.5007 62.5835V61.4169C81.5007 60.9806 81.5003 60.6878 81.4861 60.4607C81.4722 60.2395 81.4474 60.1312 81.4205 60.0599C81.2937 59.723 81.0279 59.4571 80.691 59.3303C80.6197 59.3035 80.5113 59.2786 80.2901 59.2647C80.2269 59.2608 80.1586 59.2579 80.0835 59.2558C80.084 59.4192 80.084 59.5899 80.084 59.7681V59.8002L80.084 64.2002V64.2323C80.084 64.4105 80.084 64.5811 80.0835 64.7446ZM71.4719 50.8148C71.8504 50.9831 72.0209 51.4263 71.8527 51.8048L67.6547 61.2502L71.1673 61.2502C71.4212 61.2502 71.6578 61.3786 71.7962 61.5915C71.9345 61.8044 71.9558 62.0728 71.8527 62.3048L67.186 72.8048C67.0178 73.1833 66.5746 73.3538 66.1961 73.1855C65.8175 73.0173 65.6471 72.5741 65.8153 72.1956L70.0132 62.7502L66.5007 62.7502C66.2468 62.7502 66.0101 62.6217 65.8718 62.4089C65.7334 62.196 65.7122 61.9276 65.8153 61.6956L70.482 51.1956C70.6502 50.8171 71.0934 50.6466 71.4719 50.8148Z" fill="#F9B572"/>
<path d="M63.467 108.19C62.175 108.19 61.0413 107.905 60.066 107.335C59.1033 106.765 58.356 105.967 57.824 104.941C57.292 103.902 57.026 102.686 57.026 101.293C57.026 99.887 57.292 98.671 57.824 97.645C58.356 96.619 59.1033 95.8273 60.066 95.27C61.0287 94.7 62.1623 94.415 63.467 94.415C64.7717 94.415 65.9053 94.7 66.868 95.27C67.8307 95.8273 68.578 96.619 69.11 97.645C69.642 98.671 69.908 99.8807 69.908 101.274C69.908 102.68 69.642 103.902 69.11 104.941C68.578 105.967 67.8307 106.765 66.868 107.335C65.9053 107.905 64.7717 108.19 63.467 108.19ZM63.467 106.1C64.6957 106.1 65.652 105.676 66.336 104.827C67.02 103.978 67.362 102.8 67.362 101.293C67.362 99.773 67.02 98.595 66.336 97.759C65.6647 96.923 64.7083 96.505 63.467 96.505C62.2383 96.505 61.282 96.923 60.598 97.759C59.914 98.595 59.572 99.773 59.572 101.293C59.572 102.8 59.914 103.978 60.598 104.827C61.282 105.676 62.2383 106.1 63.467 106.1ZM75.516 108.19C73.236 108.19 72.096 106.911 72.096 104.352V98.709H74.471V104.39C74.471 105.049 74.604 105.536 74.87 105.853C75.136 106.17 75.5603 106.328 76.143 106.328C76.7763 106.328 77.2956 106.113 77.701 105.682C78.1063 105.239 78.309 104.656 78.309 103.934V98.709H80.684V108H78.366V106.613C77.7453 107.664 76.7953 108.19 75.516 108.19ZM87.4119 108.19C84.9546 108.19 83.7259 106.974 83.7259 104.542V100.495H81.9399V98.709H83.7259V95.935H86.1009V98.709H88.9129V100.495H86.1009V104.409C86.1009 105.017 86.2339 105.473 86.4999 105.777C86.7659 106.081 87.1966 106.233 87.7919 106.233C87.9692 106.233 88.1529 106.214 88.3429 106.176C88.5329 106.125 88.7292 106.075 88.9319 106.024L89.2929 107.772C89.0649 107.899 88.7736 108 88.4189 108.076C88.0769 108.152 87.7412 108.19 87.4119 108.19ZM90.4479 111.42V98.709H92.7659V100.191C93.0319 99.6843 93.4309 99.279 93.9629 98.975C94.5076 98.671 95.1219 98.519 95.8059 98.519C96.6166 98.519 97.3259 98.7153 97.9339 99.108C98.5546 99.5007 99.0359 100.058 99.3779 100.78C99.7199 101.489 99.8909 102.344 99.8909 103.345C99.8909 104.333 99.7199 105.194 99.3779 105.929C99.0359 106.651 98.5609 107.208 97.9529 107.601C97.3449 107.994 96.6292 108.19 95.8059 108.19C95.1472 108.19 94.5519 108.051 94.0199 107.772C93.5006 107.481 93.1016 107.094 92.8229 106.613V111.42H90.4479ZM95.1409 106.385C95.8502 106.385 96.4202 106.132 96.8509 105.625C97.2816 105.106 97.4969 104.346 97.4969 103.345C97.4969 102.332 97.2816 101.578 96.8509 101.084C96.4202 100.577 95.8502 100.324 95.1409 100.324C94.4316 100.324 93.8616 100.577 93.4309 101.084C93.0002 101.578 92.7849 102.332 92.7849 103.345C92.7849 104.346 93.0002 105.106 93.4309 105.625C93.8616 106.132 94.4316 106.385 95.1409 106.385ZM105.203 108.19C102.923 108.19 101.783 106.911 101.783 104.352V98.709H104.158V104.39C104.158 105.049 104.291 105.536 104.557 105.853C104.823 106.17 105.248 106.328 105.83 106.328C106.464 106.328 106.983 106.113 107.388 105.682C107.794 105.239 107.996 104.656 107.996 103.934V98.709H110.371V108H108.053V106.613C107.433 107.664 106.483 108.19 105.203 108.19ZM117.099 108.19C114.642 108.19 113.413 106.974 113.413 104.542V100.495H111.627V98.709H113.413V95.935H115.788V98.709H118.6V100.495H115.788V104.409C115.788 105.017 115.921 105.473 116.187 105.777C116.453 106.081 116.884 106.233 117.479 106.233C117.657 106.233 117.84 106.214 118.03 106.176C118.22 106.125 118.417 106.075 118.619 106.024L118.98 107.772C118.752 107.899 118.461 108 118.106 108.076C117.764 108.152 117.429 108.19 117.099 108.19Z" fill="#0E0D13"/>
<path opacity="0.7" d="M57.86 141V139.95H60.275V131.91L58.37 133.11L57.845 132.195L60.62 130.425H61.505V139.95H63.77V141H57.86ZM69.7191 141.135C69.0391 141.135 68.3891 141.025 67.7691 140.805C67.1491 140.585 66.6241 140.275 66.1941 139.875L66.6591 138.9C67.5891 139.66 68.6041 140.04 69.7041 140.04C70.4341 140.04 71.0091 139.835 71.4291 139.425C71.8491 139.015 72.0591 138.475 72.0591 137.805C72.0591 137.115 71.8591 136.55 71.4591 136.11C71.0591 135.67 70.5091 135.45 69.8091 135.45C68.7991 135.45 68.0041 135.87 67.4241 136.71H66.5241V130.425H72.6591V131.475H67.7391V135.255C68.3191 134.675 69.0841 134.385 70.0341 134.385C70.6941 134.385 71.2691 134.525 71.7591 134.805C72.2491 135.085 72.6241 135.48 72.8841 135.99C73.1541 136.49 73.2891 137.075 73.2891 137.745C73.2891 138.405 73.1441 138.99 72.8541 139.5C72.5641 140.01 72.1491 140.41 71.6091 140.7C71.0791 140.99 70.4491 141.135 69.7191 141.135ZM82.4458 141L77.8258 130.425H79.1458L83.0308 139.44L86.9008 130.425H88.1908L83.5558 141H82.4458ZM91.4737 141.135C90.7637 141.135 90.1487 140.98 89.6287 140.67C89.1087 140.36 88.7037 139.925 88.4137 139.365C88.1337 138.795 87.9937 138.125 87.9937 137.355C87.9937 136.585 88.1337 135.92 88.4137 135.36C88.7037 134.79 89.1087 134.35 89.6287 134.04C90.1487 133.73 90.7637 133.575 91.4737 133.575C92.1737 133.575 92.7837 133.73 93.3037 134.04C93.8337 134.35 94.2387 134.79 94.5187 135.36C94.8087 135.92 94.9537 136.585 94.9537 137.355C94.9537 138.125 94.8087 138.795 94.5187 139.365C94.2387 139.925 93.8337 140.36 93.3037 140.67C92.7837 140.98 92.1737 141.135 91.4737 141.135ZM91.4737 140.16C92.1537 140.16 92.6987 139.92 93.1087 139.44C93.5187 138.95 93.7237 138.255 93.7237 137.355C93.7237 136.445 93.5187 135.75 93.1087 135.27C92.6987 134.79 92.1537 134.55 91.4737 134.55C90.7837 134.55 90.2337 134.79 89.8237 135.27C89.4237 135.75 89.2237 136.445 89.2237 137.355C89.2237 138.255 89.4237 138.95 89.8237 139.44C90.2337 139.92 90.7837 140.16 91.4737 140.16ZM99.0137 141.135C98.2737 141.135 97.7137 140.92 97.3337 140.49C96.9637 140.05 96.7787 139.415 96.7787 138.585V130.425H97.9937V138.495C97.9937 139.565 98.4187 140.1 99.2687 140.1C99.5187 140.1 99.7437 140.07 99.9437 140.01L99.9137 141.03C99.6037 141.1 99.3037 141.135 99.0137 141.135ZM104.01 141.135C103.15 141.135 102.505 140.91 102.075 140.46C101.645 140 101.43 139.34 101.43 138.48V134.655H100.005V133.71H101.43V131.475H102.645V133.71H104.955V134.655H102.645V138.36C102.645 138.93 102.765 139.365 103.005 139.665C103.245 139.955 103.635 140.1 104.175 140.1C104.335 140.1 104.495 140.08 104.655 140.04C104.815 140 104.96 139.96 105.09 139.92L105.3 140.85C105.17 140.92 104.98 140.985 104.73 141.045C104.48 141.105 104.24 141.135 104.01 141.135ZM110.347 141V130.425H114.577C115.667 130.425 116.507 130.67 117.097 131.16C117.697 131.64 117.997 132.315 117.997 133.185C117.997 133.765 117.847 134.26 117.547 134.67C117.247 135.08 116.832 135.38 116.302 135.57C116.912 135.73 117.387 136.025 117.727 136.455C118.077 136.885 118.252 137.43 118.252 138.09C118.252 139.03 117.947 139.75 117.337 140.25C116.727 140.75 115.867 141 114.757 141H110.347ZM111.547 135.15H114.397C115.987 135.15 116.782 134.53 116.782 133.29C116.782 132.04 115.987 131.415 114.397 131.415H111.547V135.15ZM111.547 140.01H114.637C116.237 140.01 117.037 139.365 117.037 138.075C117.037 136.785 116.237 136.14 114.637 136.14H111.547V140.01ZM122.614 141.135C122.114 141.135 121.664 141.04 121.264 140.85C120.874 140.65 120.564 140.38 120.334 140.04C120.104 139.7 119.989 139.32 119.989 138.9C119.989 138.37 120.124 137.95 120.394 137.64C120.674 137.33 121.129 137.11 121.759 136.98C122.399 136.84 123.269 136.77 124.369 136.77H124.849V136.305C124.849 135.685 124.719 135.24 124.459 134.97C124.209 134.69 123.804 134.55 123.244 134.55C122.804 134.55 122.379 134.615 121.969 134.745C121.559 134.865 121.139 135.065 120.709 135.345L120.289 134.46C120.669 134.19 121.129 133.975 121.669 133.815C122.219 133.655 122.744 133.575 123.244 133.575C124.184 133.575 124.879 133.805 125.329 134.265C125.789 134.725 126.019 135.44 126.019 136.41V141H124.879V139.74C124.689 140.17 124.394 140.51 123.994 140.76C123.604 141.01 123.144 141.135 122.614 141.135ZM122.809 140.22C123.409 140.22 123.899 140.015 124.279 139.605C124.659 139.185 124.849 138.655 124.849 138.015V137.565H124.384C123.574 137.565 122.934 137.605 122.464 137.685C122.004 137.755 121.679 137.885 121.489 138.075C121.309 138.255 121.219 138.505 121.219 138.825C121.219 139.235 121.359 139.57 121.639 139.83C121.929 140.09 122.319 140.22 122.809 140.22ZM131.198 141.135C130.338 141.135 129.693 140.91 129.263 140.46C128.833 140 128.618 139.34 128.618 138.48V134.655H127.193V133.71H128.618V131.475H129.833V133.71H132.143V134.655H129.833V138.36C129.833 138.93 129.953 139.365 130.193 139.665C130.433 139.955 130.823 140.1 131.363 140.1C131.523 140.1 131.683 140.08 131.843 140.04C132.003 140 132.148 139.96 132.278 139.92L132.488 140.85C132.358 140.92 132.168 140.985 131.918 141.045C131.668 141.105 131.428 141.135 131.198 141.135ZM136.252 141.135C135.392 141.135 134.747 140.91 134.317 140.46C133.887 140 133.672 139.34 133.672 138.48V134.655H132.247V133.71H133.672V131.475H134.887V133.71H137.197V134.655H134.887V138.36C134.887 138.93 135.007 139.365 135.247 139.665C135.487 139.955 135.877 140.1 136.417 140.1C136.577 140.1 136.737 140.08 136.897 140.04C137.057 140 137.202 139.96 137.332 139.92L137.542 140.85C137.412 140.92 137.222 140.985 136.972 141.045C136.722 141.105 136.482 141.135 136.252 141.135ZM141.782 141.135C140.632 141.135 139.722 140.8 139.052 140.13C138.382 139.45 138.047 138.53 138.047 137.37C138.047 136.62 138.197 135.96 138.497 135.39C138.797 134.81 139.207 134.365 139.727 134.055C140.257 133.735 140.867 133.575 141.557 133.575C142.547 133.575 143.322 133.895 143.882 134.535C144.442 135.165 144.722 136.035 144.722 137.145V137.61H139.232C139.272 138.44 139.512 139.075 139.952 139.515C140.392 139.945 141.002 140.16 141.782 140.16C142.222 140.16 142.642 140.095 143.042 139.965C143.442 139.825 143.822 139.6 144.182 139.29L144.602 140.145C144.272 140.455 143.852 140.7 143.342 140.88C142.832 141.05 142.312 141.135 141.782 141.135ZM141.587 134.475C140.897 134.475 140.352 134.69 139.952 135.12C139.552 135.55 139.317 136.115 139.247 136.815H143.672C143.642 136.075 143.447 135.5 143.087 135.09C142.737 134.68 142.237 134.475 141.587 134.475ZM146.481 141V133.71H147.666V135.015C148.056 134.135 148.856 133.65 150.066 133.56L150.501 133.515L150.591 134.565L149.826 134.655C149.136 134.715 148.611 134.935 148.251 135.315C147.891 135.685 147.711 136.195 147.711 136.845V141H146.481ZM153.151 143.7L154.396 140.88L151.321 133.71H152.641L155.056 139.62L157.486 133.71H158.761L154.426 143.7H153.151ZM163.809 137.505V136.5H168.009V137.505H163.809ZM178.683 141.135C177.703 141.135 176.848 140.915 176.118 140.475C175.398 140.025 174.838 139.395 174.438 138.585C174.048 137.775 173.853 136.815 173.853 135.705C173.853 134.595 174.048 133.635 174.438 132.825C174.828 132.015 175.383 131.39 176.103 130.95C176.833 130.51 177.693 130.29 178.683 130.29C179.683 130.29 180.543 130.51 181.263 130.95C181.993 131.39 182.553 132.015 182.943 132.825C183.343 133.625 183.543 134.58 183.543 135.69C183.543 136.8 183.343 137.765 182.943 138.585C182.543 139.395 181.978 140.025 181.248 140.475C180.528 140.915 179.673 141.135 178.683 141.135ZM178.683 140.04C179.813 140.04 180.688 139.66 181.308 138.9C181.928 138.14 182.238 137.075 182.238 135.705C182.238 134.335 181.928 133.275 181.308 132.525C180.688 131.765 179.813 131.385 178.683 131.385C177.573 131.385 176.708 131.765 176.088 132.525C175.468 133.275 175.158 134.335 175.158 135.705C175.158 137.065 175.468 138.13 176.088 138.9C176.708 139.66 177.573 140.04 178.683 140.04ZM188.158 141.135C186.408 141.135 185.533 140.17 185.533 138.24V133.71H186.748V138.225C186.748 138.875 186.878 139.355 187.138 139.665C187.408 139.975 187.828 140.13 188.397 140.13C189.018 140.13 189.523 139.925 189.913 139.515C190.303 139.095 190.498 138.54 190.498 137.85V133.71H191.713V141H190.528V139.77C190.298 140.21 189.973 140.55 189.553 140.79C189.143 141.02 188.678 141.135 188.158 141.135ZM196.911 141.135C196.051 141.135 195.406 140.91 194.976 140.46C194.546 140 194.331 139.34 194.331 138.48V134.655H192.906V133.71H194.331V131.475H195.546V133.71H197.856V134.655H195.546V138.36C195.546 138.93 195.666 139.365 195.906 139.665C196.146 139.955 196.536 140.1 197.076 140.1C197.236 140.1 197.396 140.08 197.556 140.04C197.716 140 197.861 139.96 197.991 139.92L198.201 140.85C198.071 140.92 197.881 140.985 197.631 141.045C197.381 141.105 197.141 141.135 196.911 141.135ZM199.23 143.7V133.71H200.415V135.015C200.635 134.565 200.96 134.215 201.39 133.965C201.83 133.705 202.34 133.575 202.92 133.575C203.57 133.575 204.135 133.73 204.615 134.04C205.105 134.34 205.48 134.775 205.74 135.345C206.01 135.905 206.145 136.575 206.145 137.355C206.145 138.125 206.01 138.795 205.74 139.365C205.48 139.925 205.105 140.36 204.615 140.67C204.135 140.98 203.57 141.135 202.92 141.135C202.36 141.135 201.86 141.01 201.42 140.76C200.98 140.51 200.655 140.165 200.445 139.725V143.7H199.23ZM202.665 140.16C203.345 140.16 203.89 139.92 204.3 139.44C204.71 138.95 204.915 138.255 204.915 137.355C204.915 136.445 204.71 135.75 204.3 135.27C203.89 134.79 203.345 134.55 202.665 134.55C201.985 134.55 201.44 134.79 201.03 135.27C200.62 135.75 200.415 136.445 200.415 137.355C200.415 138.255 200.62 138.95 201.03 139.44C201.44 139.92 201.985 140.16 202.665 140.16ZM210.555 141.135C208.805 141.135 207.93 140.17 207.93 138.24V133.71H209.145V138.225C209.145 138.875 209.275 139.355 209.535 139.665C209.805 139.975 210.225 140.13 210.795 140.13C211.415 140.13 211.92 139.925 212.31 139.515C212.7 139.095 212.895 138.54 212.895 137.85V133.71H214.11V141H212.925V139.77C212.695 140.21 212.37 140.55 211.95 140.79C211.54 141.02 211.075 141.135 210.555 141.135ZM219.308 141.135C218.448 141.135 217.803 140.91 217.373 140.46C216.943 140 216.728 139.34 216.728 138.48V134.655H215.303V133.71H216.728V131.475H217.943V133.71H220.253V134.655H217.943V138.36C217.943 138.93 218.063 139.365 218.303 139.665C218.543 139.955 218.933 140.1 219.473 140.1C219.633 140.1 219.793 140.08 219.953 140.04C220.113 140 220.258 139.96 220.388 139.92L220.598 140.85C220.468 140.92 220.278 140.985 220.028 141.045C219.778 141.105 219.538 141.135 219.308 141.135ZM221.432 135.24V133.71H222.962V135.24H221.432ZM221.432 141V139.47H222.962V141H221.432ZM233.408 141V138.735H228.533V137.805L233.618 130.425H234.653V137.685H236.228V138.735H234.653V141H233.408ZM233.408 137.685V132.45L229.808 137.685H233.408ZM237.692 141V139.47H239.222V141H237.692ZM244.54 141.135C243.84 141.135 243.175 141.03 242.545 140.82C241.915 140.6 241.385 140.285 240.955 139.875L241.405 138.9C241.895 139.3 242.39 139.59 242.89 139.77C243.39 139.95 243.93 140.04 244.51 140.04C245.27 140.04 245.85 139.875 246.25 139.545C246.66 139.205 246.865 138.71 246.865 138.06C246.865 137.44 246.66 136.97 246.25 136.65C245.84 136.33 245.245 136.17 244.465 136.17H242.905V135.105H244.36C245.04 135.105 245.575 134.93 245.965 134.58C246.365 134.22 246.565 133.73 246.565 133.11C246.565 132.56 246.38 132.135 246.01 131.835C245.65 131.535 245.135 131.385 244.465 131.385C243.365 131.385 242.405 131.785 241.585 132.585L241.135 131.625C241.525 131.205 242.02 130.88 242.62 130.65C243.23 130.41 243.87 130.29 244.54 130.29C245.56 130.29 246.355 130.53 246.925 131.01C247.505 131.49 247.795 132.155 247.795 133.005C247.795 133.595 247.645 134.115 247.345 134.565C247.045 135.005 246.63 135.325 246.1 135.525C246.73 135.695 247.22 136.01 247.57 136.47C247.92 136.92 248.095 137.48 248.095 138.15C248.095 139.06 247.775 139.785 247.135 140.325C246.505 140.865 245.64 141.135 244.54 141.135ZM256.442 141.135C255.942 141.135 255.492 141.04 255.092 140.85C254.702 140.65 254.392 140.38 254.162 140.04C253.932 139.7 253.817 139.32 253.817 138.9C253.817 138.37 253.952 137.95 254.222 137.64C254.502 137.33 254.957 137.11 255.587 136.98C256.227 136.84 257.097 136.77 258.197 136.77H258.677V136.305C258.677 135.685 258.547 135.24 258.287 134.97C258.037 134.69 257.632 134.55 257.072 134.55C256.632 134.55 256.207 134.615 255.797 134.745C255.387 134.865 254.967 135.065 254.537 135.345L254.117 134.46C254.497 134.19 254.957 133.975 255.497 133.815C256.047 133.655 256.572 133.575 257.072 133.575C258.012 133.575 258.707 133.805 259.157 134.265C259.617 134.725 259.847 135.44 259.847 136.41V141H258.707V139.74C258.517 140.17 258.222 140.51 257.822 140.76C257.432 141.01 256.972 141.135 256.442 141.135ZM256.637 140.22C257.237 140.22 257.727 140.015 258.107 139.605C258.487 139.185 258.677 138.655 258.677 138.015V137.565H258.212C257.402 137.565 256.762 137.605 256.292 137.685C255.832 137.755 255.507 137.885 255.317 138.075C255.137 138.255 255.047 138.505 255.047 138.825C255.047 139.235 255.187 139.57 255.467 139.83C255.757 140.09 256.147 140.22 256.637 140.22ZM262.131 141V133.71H263.316V134.94C263.536 134.5 263.841 134.165 264.231 133.935C264.621 133.695 265.076 133.575 265.596 133.575C266.736 133.575 267.466 134.07 267.786 135.06C268.006 134.6 268.331 134.24 268.761 133.98C269.191 133.71 269.686 133.575 270.246 133.575C271.866 133.575 272.676 134.535 272.676 136.455V141H271.461V136.515C271.461 135.845 271.341 135.355 271.101 135.045C270.871 134.725 270.486 134.565 269.946 134.565C269.356 134.565 268.886 134.775 268.536 135.195C268.186 135.615 268.011 136.175 268.011 136.875V141H266.796V136.515C266.796 135.845 266.676 135.355 266.436 135.045C266.206 134.725 265.821 134.565 265.281 134.565C264.681 134.565 264.206 134.775 263.856 135.195C263.516 135.615 263.346 136.175 263.346 136.875V141H262.131ZM274.948 143.7V133.71H276.133V135.015C276.353 134.565 276.678 134.215 277.108 133.965C277.548 133.705 278.058 133.575 278.638 133.575C279.288 133.575 279.853 133.73 280.333 134.04C280.823 134.34 281.198 134.775 281.458 135.345C281.728 135.905 281.863 136.575 281.863 137.355C281.863 138.125 281.728 138.795 281.458 139.365C281.198 139.925 280.823 140.36 280.333 140.67C279.853 140.98 279.288 141.135 278.638 141.135C278.078 141.135 277.578 141.01 277.138 140.76C276.698 140.51 276.373 140.165 276.163 139.725V143.7H274.948ZM278.383 140.16C279.063 140.16 279.608 139.92 280.018 139.44C280.428 138.95 280.633 138.255 280.633 137.355C280.633 136.445 280.428 135.75 280.018 135.27C279.608 134.79 279.063 134.55 278.383 134.55C277.703 134.55 277.158 134.79 276.748 135.27C276.338 135.75 276.133 136.445 276.133 137.355C276.133 138.255 276.338 138.95 276.748 139.44C277.158 139.92 277.703 140.16 278.383 140.16ZM286.153 141.135C285.583 141.135 285.043 141.055 284.533 140.895C284.023 140.735 283.603 140.51 283.273 140.22L283.663 139.365C284.023 139.655 284.418 139.87 284.848 140.01C285.288 140.14 285.733 140.205 286.183 140.205C286.753 140.205 287.183 140.1 287.473 139.89C287.763 139.68 287.908 139.395 287.908 139.035C287.908 138.755 287.813 138.535 287.623 138.375C287.433 138.205 287.133 138.075 286.723 137.985L285.358 137.685C284.118 137.415 283.498 136.775 283.498 135.765C283.498 135.105 283.758 134.575 284.278 134.175C284.808 133.775 285.498 133.575 286.348 133.575C286.848 133.575 287.323 133.655 287.773 133.815C288.233 133.965 288.613 134.19 288.913 134.49L288.508 135.345C288.218 135.075 287.878 134.87 287.488 134.73C287.108 134.58 286.728 134.505 286.348 134.505C285.788 134.505 285.363 134.615 285.073 134.835C284.783 135.055 284.638 135.345 284.638 135.705C284.638 136.265 285.008 136.625 285.748 136.785L287.113 137.07C287.753 137.21 288.238 137.435 288.568 137.745C288.898 138.045 289.063 138.455 289.063 138.975C289.063 139.645 288.798 140.175 288.268 140.565C287.738 140.945 287.033 141.135 286.153 141.135ZM294.707 137.505V136.5H298.907V137.505H294.707ZM307.737 141V131.49H303.897V130.425H312.822V131.49H308.982V141H307.737ZM315.888 141.135C315.178 141.135 314.563 140.98 314.043 140.67C313.523 140.36 313.118 139.925 312.828 139.365C312.548 138.795 312.408 138.125 312.408 137.355C312.408 136.585 312.548 135.92 312.828 135.36C313.118 134.79 313.523 134.35 314.043 134.04C314.563 133.73 315.178 133.575 315.888 133.575C316.588 133.575 317.198 133.73 317.718 134.04C318.248 134.35 318.653 134.79 318.933 135.36C319.223 135.92 319.368 136.585 319.368 137.355C319.368 138.125 319.223 138.795 318.933 139.365C318.653 139.925 318.248 140.36 317.718 140.67C317.198 140.98 316.588 141.135 315.888 141.135ZM315.888 140.16C316.568 140.16 317.113 139.92 317.523 139.44C317.933 138.95 318.138 138.255 318.138 137.355C318.138 136.445 317.933 135.75 317.523 135.27C317.113 134.79 316.568 134.55 315.888 134.55C315.198 134.55 314.648 134.79 314.238 135.27C313.838 135.75 313.638 136.445 313.638 137.355C313.638 138.255 313.838 138.95 314.238 139.44C314.648 139.92 315.198 140.16 315.888 140.16ZM324.044 141.135C323.184 141.135 322.539 140.91 322.109 140.46C321.679 140 321.464 139.34 321.464 138.48V134.655H320.039V133.71H321.464V131.475H322.679V133.71H324.989V134.655H322.679V138.36C322.679 138.93 322.799 139.365 323.039 139.665C323.279 139.955 323.669 140.1 324.209 140.1C324.369 140.1 324.529 140.08 324.689 140.04C324.849 140 324.994 139.96 325.124 139.92L325.334 140.85C325.204 140.92 325.014 140.985 324.764 141.045C324.514 141.105 324.274 141.135 324.044 141.135ZM328.659 141.135C328.159 141.135 327.709 141.04 327.309 140.85C326.919 140.65 326.609 140.38 326.379 140.04C326.149 139.7 326.034 139.32 326.034 138.9C326.034 138.37 326.169 137.95 326.439 137.64C326.719 137.33 327.174 137.11 327.804 136.98C328.444 136.84 329.314 136.77 330.414 136.77H330.894V136.305C330.894 135.685 330.764 135.24 330.504 134.97C330.254 134.69 329.849 134.55 329.289 134.55C328.849 134.55 328.424 134.615 328.014 134.745C327.604 134.865 327.184 135.065 326.754 135.345L326.334 134.46C326.714 134.19 327.174 133.975 327.714 133.815C328.264 133.655 328.789 133.575 329.289 133.575C330.229 133.575 330.924 133.805 331.374 134.265C331.834 134.725 332.064 135.44 332.064 136.41V141H330.924V139.74C330.734 140.17 330.439 140.51 330.039 140.76C329.649 141.01 329.189 141.135 328.659 141.135ZM328.854 140.22C329.454 140.22 329.944 140.015 330.324 139.605C330.704 139.185 330.894 138.655 330.894 138.015V137.565H330.429C329.619 137.565 328.979 137.605 328.509 137.685C328.049 137.755 327.724 137.885 327.534 138.075C327.354 138.255 327.264 138.505 327.264 138.825C327.264 139.235 327.404 139.57 327.684 139.83C327.974 140.09 328.364 140.22 328.854 140.22ZM336.553 141.135C335.813 141.135 335.253 140.92 334.873 140.49C334.503 140.05 334.318 139.415 334.318 138.585V130.425H335.533V138.495C335.533 139.565 335.958 140.1 336.808 140.1C337.058 140.1 337.283 140.07 337.483 140.01L337.453 141.03C337.143 141.1 336.843 141.135 336.553 141.135ZM61.745 165.135C60.765 165.135 59.91 164.915 59.18 164.475C58.46 164.025 57.9 163.395 57.5 162.585C57.11 161.775 56.915 160.815 56.915 159.705C56.915 158.595 57.11 157.635 57.5 156.825C57.89 156.015 58.445 155.39 59.165 154.95C59.895 154.51 60.755 154.29 61.745 154.29C62.745 154.29 63.605 154.51 64.325 154.95C65.055 155.39 65.615 156.015 66.005 156.825C66.405 157.625 66.605 158.58 66.605 159.69C66.605 160.8 66.405 161.765 66.005 162.585C65.605 163.395 65.04 164.025 64.31 164.475C63.59 164.915 62.735 165.135 61.745 165.135ZM61.745 164.04C62.875 164.04 63.75 163.66 64.37 162.9C64.99 162.14 65.3 161.075 65.3 159.705C65.3 158.335 64.99 157.275 64.37 156.525C63.75 155.765 62.875 155.385 61.745 155.385C60.635 155.385 59.77 155.765 59.15 156.525C58.53 157.275 58.22 158.335 58.22 159.705C58.22 161.065 58.53 162.13 59.15 162.9C59.77 163.66 60.635 164.04 61.745 164.04ZM71.219 165.135C69.469 165.135 68.594 164.17 68.594 162.24V157.71H69.809V162.225C69.809 162.875 69.939 163.355 70.199 163.665C70.469 163.975 70.889 164.13 71.459 164.13C72.079 164.13 72.584 163.925 72.974 163.515C73.364 163.095 73.559 162.54 73.559 161.85V157.71H74.774V165H73.589V163.77C73.359 164.21 73.034 164.55 72.614 164.79C72.204 165.02 71.739 165.135 71.219 165.135ZM79.9722 165.135C79.1122 165.135 78.4672 164.91 78.0372 164.46C77.6072 164 77.3922 163.34 77.3922 162.48V158.655H75.9672V157.71H77.3922V155.475H78.6072V157.71H80.9172V158.655H78.6072V162.36C78.6072 162.93 78.7272 163.365 78.9672 163.665C79.2072 163.955 79.5972 164.1 80.1372 164.1C80.2972 164.1 80.4572 164.08 80.6172 164.04C80.7772 164 80.9222 163.96 81.0522 163.92L81.2622 164.85C81.1322 164.92 80.9422 164.985 80.6922 165.045C80.4422 165.105 80.2022 165.135 79.9722 165.135ZM82.2914 167.7V157.71H83.4764V159.015C83.6964 158.565 84.0214 158.215 84.4514 157.965C84.8914 157.705 85.4014 157.575 85.9814 157.575C86.6314 157.575 87.1964 157.73 87.6764 158.04C88.1664 158.34 88.5414 158.775 88.8014 159.345C89.0714 159.905 89.2064 160.575 89.2064 161.355C89.2064 162.125 89.0714 162.795 88.8014 163.365C88.5414 163.925 88.1664 164.36 87.6764 164.67C87.1964 164.98 86.6314 165.135 85.9814 165.135C85.4214 165.135 84.9214 165.01 84.4814 164.76C84.0414 164.51 83.7164 164.165 83.5064 163.725V167.7H82.2914ZM85.7264 164.16C86.4064 164.16 86.9514 163.92 87.3614 163.44C87.7714 162.95 87.9764 162.255 87.9764 161.355C87.9764 160.445 87.7714 159.75 87.3614 159.27C86.9514 158.79 86.4064 158.55 85.7264 158.55C85.0464 158.55 84.5014 158.79 84.0914 159.27C83.6814 159.75 83.4764 160.445 83.4764 161.355C83.4764 162.255 83.6814 162.95 84.0914 163.44C84.5014 163.92 85.0464 164.16 85.7264 164.16ZM93.6165 165.135C91.8665 165.135 90.9915 164.17 90.9915 162.24V157.71H92.2065V162.225C92.2065 162.875 92.3365 163.355 92.5965 163.665C92.8665 163.975 93.2865 164.13 93.8565 164.13C94.4765 164.13 94.9815 163.925 95.3715 163.515C95.7615 163.095 95.9565 162.54 95.9565 161.85V157.71H97.1715V165H95.9865V163.77C95.7565 164.21 95.4315 164.55 95.0115 164.79C94.6015 165.02 94.1365 165.135 93.6165 165.135ZM102.37 165.135C101.51 165.135 100.865 164.91 100.435 164.46C100.005 164 99.7897 163.34 99.7897 162.48V158.655H98.3647V157.71H99.7897V155.475H101.005V157.71H103.315V158.655H101.005V162.36C101.005 162.93 101.125 163.365 101.365 163.665C101.605 163.955 101.995 164.1 102.535 164.1C102.695 164.1 102.855 164.08 103.015 164.04C103.175 164 103.32 163.96 103.45 163.92L103.66 164.85C103.53 164.92 103.34 164.985 103.09 165.045C102.84 165.105 102.6 165.135 102.37 165.135ZM104.494 159.24V157.71H106.024V159.24H104.494ZM104.494 165V163.47H106.024V165H104.494ZM115.674 165.135C114.424 165.135 113.459 164.685 112.779 163.785C112.109 162.875 111.774 161.605 111.774 159.975C111.774 158.145 112.149 156.74 112.899 155.76C113.649 154.78 114.699 154.29 116.049 154.29C116.589 154.29 117.129 154.405 117.669 154.635C118.219 154.865 118.669 155.175 119.019 155.565L118.569 156.525C118.199 156.145 117.794 155.86 117.354 155.67C116.924 155.48 116.479 155.385 116.019 155.385C115.039 155.385 114.284 155.75 113.754 156.48C113.234 157.21 112.974 158.295 112.974 159.735V160.47C113.164 159.81 113.514 159.295 114.024 158.925C114.544 158.555 115.154 158.37 115.854 158.37C116.474 158.37 117.024 158.515 117.504 158.805C117.984 159.085 118.359 159.475 118.629 159.975C118.899 160.475 119.034 161.05 119.034 161.7C119.034 162.37 118.889 162.965 118.599 163.485C118.319 163.995 117.924 164.4 117.414 164.7C116.914 164.99 116.334 165.135 115.674 165.135ZM115.599 164.085C116.269 164.085 116.809 163.87 117.219 163.44C117.639 163.01 117.849 162.445 117.849 161.745C117.849 161.055 117.639 160.495 117.219 160.065C116.809 159.625 116.269 159.405 115.599 159.405C114.929 159.405 114.384 159.625 113.964 160.065C113.554 160.495 113.349 161.055 113.349 161.745C113.349 162.445 113.554 163.01 113.964 163.44C114.384 163.87 114.929 164.085 115.599 164.085ZM125.464 165V162.735H120.589V161.805L125.674 154.425H126.709V161.685H128.284V162.735H126.709V165H125.464ZM125.464 161.685V156.45L121.864 161.685H125.464ZM129.748 165V163.47H131.278V165H129.748ZM137.076 165.135C135.826 165.135 134.861 164.685 134.181 163.785C133.511 162.875 133.176 161.605 133.176 159.975C133.176 158.145 133.551 156.74 134.301 155.76C135.051 154.78 136.101 154.29 137.451 154.29C137.991 154.29 138.531 154.405 139.071 154.635C139.621 154.865 140.071 155.175 140.421 155.565L139.971 156.525C139.601 156.145 139.196 155.86 138.756 155.67C138.326 155.48 137.881 155.385 137.421 155.385C136.441 155.385 135.686 155.75 135.156 156.48C134.636 157.21 134.376 158.295 134.376 159.735V160.47C134.566 159.81 134.916 159.295 135.426 158.925C135.946 158.555 136.556 158.37 137.256 158.37C137.876 158.37 138.426 158.515 138.906 158.805C139.386 159.085 139.761 159.475 140.031 159.975C140.301 160.475 140.436 161.05 140.436 161.7C140.436 162.37 140.291 162.965 140.001 163.485C139.721 163.995 139.326 164.4 138.816 164.7C138.316 164.99 137.736 165.135 137.076 165.135ZM137.001 164.085C137.671 164.085 138.211 163.87 138.621 163.44C139.041 163.01 139.251 162.445 139.251 161.745C139.251 161.055 139.041 160.495 138.621 160.065C138.211 159.625 137.671 159.405 137.001 159.405C136.331 159.405 135.786 159.625 135.366 160.065C134.956 160.495 134.751 161.055 134.751 161.745C134.751 162.445 134.956 163.01 135.366 163.44C135.786 163.87 136.331 164.085 137.001 164.085ZM148.138 165L145.423 157.71H146.698L148.753 163.575L150.883 157.71H151.918L154.018 163.59L156.103 157.71H157.318L154.588 165H153.433L151.378 159.345L149.308 165H148.138ZM160.963 165.135C160.463 165.135 160.013 165.04 159.613 164.85C159.223 164.65 158.913 164.38 158.683 164.04C158.453 163.7 158.338 163.32 158.338 162.9C158.338 162.37 158.473 161.95 158.743 161.64C159.023 161.33 159.478 161.11 160.108 160.98C160.748 160.84 161.618 160.77 162.718 160.77H163.198V160.305C163.198 159.685 163.068 159.24 162.808 158.97C162.558 158.69 162.153 158.55 161.593 158.55C161.153 158.55 160.728 158.615 160.318 158.745C159.908 158.865 159.488 159.065 159.058 159.345L158.638 158.46C159.018 158.19 159.478 157.975 160.018 157.815C160.568 157.655 161.093 157.575 161.593 157.575C162.533 157.575 163.228 157.805 163.678 158.265C164.138 158.725 164.368 159.44 164.368 160.41V165H163.228V163.74C163.038 164.17 162.743 164.51 162.343 164.76C161.953 165.01 161.493 165.135 160.963 165.135ZM161.158 164.22C161.758 164.22 162.248 164.015 162.628 163.605C163.008 163.185 163.198 162.655 163.198 162.015V161.565H162.733C161.923 161.565 161.283 161.605 160.813 161.685C160.353 161.755 160.028 161.885 159.838 162.075C159.658 162.255 159.568 162.505 159.568 162.825C159.568 163.235 159.708 163.57 159.988 163.83C160.278 164.09 160.668 164.22 161.158 164.22ZM169.547 165.135C168.687 165.135 168.042 164.91 167.612 164.46C167.182 164 166.967 163.34 166.967 162.48V158.655H165.542V157.71H166.967V155.475H168.182V157.71H170.492V158.655H168.182V162.36C168.182 162.93 168.302 163.365 168.542 163.665C168.782 163.955 169.172 164.1 169.712 164.1C169.872 164.1 170.032 164.08 170.192 164.04C170.352 164 170.497 163.96 170.627 163.92L170.837 164.85C170.707 164.92 170.517 164.985 170.267 165.045C170.017 165.105 169.777 165.135 169.547 165.135ZM174.601 165.135C173.741 165.135 173.096 164.91 172.666 164.46C172.236 164 172.021 163.34 172.021 162.48V158.655H170.596V157.71H172.021V155.475H173.236V157.71H175.546V158.655H173.236V162.36C173.236 162.93 173.356 163.365 173.596 163.665C173.836 163.955 174.226 164.1 174.766 164.1C174.926 164.1 175.086 164.08 175.246 164.04C175.406 164 175.551 163.96 175.681 163.92L175.891 164.85C175.761 164.92 175.571 164.985 175.321 165.045C175.071 165.105 174.831 165.135 174.601 165.135ZM179.38 165.135C178.81 165.135 178.27 165.055 177.76 164.895C177.25 164.735 176.83 164.51 176.5 164.22L176.89 163.365C177.25 163.655 177.645 163.87 178.075 164.01C178.515 164.14 178.96 164.205 179.41 164.205C179.98 164.205 180.41 164.1 180.7 163.89C180.99 163.68 181.135 163.395 181.135 163.035C181.135 162.755 181.04 162.535 180.85 162.375C180.66 162.205 180.36 162.075 179.95 161.985L178.585 161.685C177.345 161.415 176.725 160.775 176.725 159.765C176.725 159.105 176.985 158.575 177.505 158.175C178.035 157.775 178.725 157.575 179.575 157.575C180.075 157.575 180.55 157.655 181 157.815C181.46 157.965 181.84 158.19 182.14 158.49L181.735 159.345C181.445 159.075 181.105 158.87 180.715 158.73C180.335 158.58 179.955 158.505 179.575 158.505C179.015 158.505 178.59 158.615 178.3 158.835C178.01 159.055 177.865 159.345 177.865 159.705C177.865 160.265 178.235 160.625 178.975 160.785L180.34 161.07C180.98 161.21 181.465 161.435 181.795 161.745C182.125 162.045 182.29 162.455 182.29 162.975C182.29 163.645 182.025 164.175 181.495 164.565C180.965 164.945 180.26 165.135 179.38 165.135Z" fill="#0E0D13"/>
</g>
<defs>
<filter id="filter0_d_1498_50737" x="0" y="0" width="404" height="220" filterUnits="userSpaceOnUse" color-interpolation-filters="sRGB">
<feFlood flood-opacity="0" result="BackgroundImageFix"/>
<feColorMatrix in="SourceAlpha" type="matrix" values="0 0 0 0 0 0 0 0 0 0 0 0 0 0 0 0 0 0 127 0" result="hardAlpha"/>
<feOffset/>
<feGaussianBlur stdDeviation="20"/>
<feComposite in2="hardAlpha" operator="out"/>
<feColorMatrix type="matrix" values="0 0 0 0 0.733333 0 0 0 0 0.733333 0 0 0 0 0.733333 0 0 0 0.4 0"/>
<feBlend mode="normal" in2="BackgroundImageFix" result="effect1_dropShadow_1498_50737"/>
<feBlend mode="normal" in="SourceGraphic" in2="effect1_dropShadow_1498_50737" result="shape"/>
</filter>
</defs>
</svg>
