<svg width="25" height="24" viewBox="0 0 25 24" fill="none" xmlns="http://www.w3.org/2000/svg">
<g clip-path="url(#clip0_7422_1296)">
<path d="M24.1393 12.2763C24.1393 11.4605 24.0732 10.6404 23.9321 9.83789H12.6133V14.4589H19.095C18.826 15.9492 17.9618 17.2676 16.6963 18.1054V21.1037H20.5633C22.8341 19.0137 24.1393 15.9272 24.1393 12.2763Z" fill="#4285F4"/>
<path d="M12.6141 24.0008C15.8506 24.0008 18.58 22.9382 20.5686 21.1039L16.7016 18.1055C15.6257 18.8375 14.2368 19.252 12.6185 19.252C9.48791 19.252 6.83349 17.1399 5.88107 14.3003H1.89062V17.3912C3.92774 21.4434 8.07692 24.0008 12.6141 24.0008Z" fill="#18BA92"/>
<path d="M5.87582 14.3002C5.37316 12.8099 5.37316 11.196 5.87582 9.70569V6.61475H1.88978C0.187781 10.0055 0.187781 14.0004 1.88978 17.3912L5.87582 14.3002Z" fill="#FBBC04"/>
<path d="M12.6141 4.74966C14.3249 4.7232 15.9784 5.36697 17.2175 6.54867L20.6435 3.12262C18.4741 1.0855 15.5948 -0.034466 12.6141 0.000808666C8.07692 0.000808666 3.92774 2.55822 1.89062 6.61481L5.87666 9.70575C6.82467 6.86173 9.4835 4.74966 12.6141 4.74966Z" fill="#EA4335"/>
</g>
<defs>
<clipPath id="clip0_7422_1296">
<rect width="24" height="24" fill="white" transform="translate(0.375)"/>
</clipPath>
</defs>
</svg>
