<svg width="20" height="20" viewBox="0 0 20 20" fill="none" xmlns="http://www.w3.org/2000/svg">
<path fill-rule="evenodd" clip-rule="evenodd" d="M8.60944 5.89995C7.36105 4.62319 5.30675 4.62319 4.05837 5.89995C2.84903 7.13677 2.84903 9.11307 4.05837 10.3499L9.97434 16.4003C9.98873 16.415 10.0124 16.415 10.0268 16.4003L15.9428 10.3499C17.1521 9.11307 17.1521 7.13677 15.9428 5.89995C14.6944 4.62319 12.6401 4.62319 11.3917 5.89995L10.5368 6.77426C10.3957 6.91857 10.2024 6.99992 10.0006 6.99992C9.79873 6.99992 9.60542 6.91857 9.46431 6.77426L8.60944 5.89995ZM2.98586 4.85128C4.82264 2.97275 7.84517 2.97275 9.68195 4.85128L10.0006 5.17714L10.3192 4.85128C12.156 2.97275 15.1785 2.97275 17.0153 4.85128C18.7946 6.67104 18.7946 9.5788 17.0153 11.3986L11.0993 17.449C10.4965 18.0655 9.50461 18.0655 8.90183 17.449L2.98586 11.3986C1.20654 9.5788 1.20653 6.67104 2.98586 4.85128Z" fill="#333333"/>
</svg>
