<svg width="990" height="255" viewBox="0 0 990 255" fill="none" xmlns="http://www.w3.org/2000/svg">
<g style="mix-blend-mode:exclusion">
<path d="M17.1133 105H0.853516V1.37109H17.1133V45.8145H35.6133V1.37109H52.2344V105H35.6133V60.6289H17.1133V105ZM80.2734 45.0918H102.676V59.834H80.2734V90.1855H108.385V105H64.0137V1.37109H108.385V16.1855H80.2734V45.0918ZM171.184 105H154.779L151.961 86.2109H132.016L129.197 105H114.238L130.787 1.37109H154.635L171.184 105ZM134.039 72.1191H149.793L141.916 19.7266L134.039 72.1191ZM174.363 1.37109H224.66V16.1855H207.678V105H191.418V16.1855H174.363V1.37109ZM302.346 66.3379V80.1406C302.346 97.4844 294.252 106.156 278.064 106.156C261.877 106.156 253.783 97.4844 253.783 80.1406V26.2305C253.783 8.88672 261.877 0.214844 278.064 0.214844C294.252 0.214844 302.346 8.88672 302.346 26.2305V36.3477H286.953V25.2188C286.953 18.4258 284.135 15.0293 278.498 15.0293C272.861 15.0293 270.043 18.4258 270.043 25.2188V81.1523C270.043 87.8971 272.861 91.2695 278.498 91.2695C284.135 91.2695 286.953 87.8971 286.953 81.1523V66.3379H302.346ZM327.133 81.1523C327.133 87.9935 329.951 91.4141 335.588 91.4141C341.225 91.4141 344.043 87.9935 344.043 81.1523V25.2188C344.043 18.4258 341.225 15.0293 335.588 15.0293C329.951 15.0293 327.133 18.4258 327.133 25.2188V81.1523ZM310.873 26.2305C310.873 8.88672 319.111 0.214844 335.588 0.214844C352.064 0.214844 360.303 8.88672 360.303 26.2305V80.1406C360.303 97.4844 352.064 106.156 335.588 106.156C319.111 106.156 310.873 97.4844 310.873 80.1406V26.2305ZM385.379 29.9883V105H370.709V1.37109H391.16L407.854 63.4473V1.37109H422.379V105H405.613L385.379 29.9883ZM429.605 1.37109H479.902V16.1855H462.92V105H446.66V16.1855H429.605V1.37109ZM521.383 105C520.853 103.362 520.492 101.965 520.299 100.809C520.058 98.9297 519.938 96.0872 519.938 92.2812V76.0215C519.938 67.2051 516.372 62.7969 509.242 62.7969H503.605V105H487.346V1.37109H511.916C528.007 1.37109 536.053 9.32031 536.053 25.2188V33.3848C536.053 44.0319 532.488 51.0417 525.357 54.4141C532.584 57.401 536.197 64.748 536.197 76.4551V92.4258C536.197 98.0143 536.775 102.206 537.932 105H521.383ZM503.605 16.1855V48.0547H509.965C516.517 48.0547 519.793 44.3932 519.793 37.0703V26.8809C519.793 19.7507 517.023 16.1855 511.482 16.1855H503.605ZM558.383 81.1523C558.383 87.9935 561.201 91.4141 566.838 91.4141C572.475 91.4141 575.293 87.9935 575.293 81.1523V25.2188C575.293 18.4258 572.475 15.0293 566.838 15.0293C561.201 15.0293 558.383 18.4258 558.383 25.2188V81.1523ZM542.123 26.2305C542.123 8.88672 550.361 0.214844 566.838 0.214844C583.314 0.214844 591.553 8.88672 591.553 26.2305V80.1406C591.553 97.4844 583.314 106.156 566.838 106.156C550.361 106.156 542.123 97.4844 542.123 80.1406V26.2305ZM602.104 1.37109H618.363V90.1855H645.174V105H602.104V1.37109ZM691.785 105H675.525V1.37109H691.785V45.8145H710.285V1.37109H726.906V105H710.285V60.6289H691.785V105ZM753.645 81.1523C753.645 87.9935 756.463 91.4141 762.1 91.4141C767.736 91.4141 770.555 87.9935 770.555 81.1523V25.2188C770.555 18.4258 767.736 15.0293 762.1 15.0293C756.463 15.0293 753.645 18.4258 753.645 25.2188V81.1523ZM737.385 26.2305C737.385 8.88672 745.623 0.214844 762.1 0.214844C778.576 0.214844 786.814 8.88672 786.814 26.2305V80.1406C786.814 97.4844 778.576 106.156 762.1 106.156C745.623 106.156 737.385 97.4844 737.385 80.1406V26.2305ZM812.324 81.1523C812.324 87.9935 815.143 91.4141 820.779 91.4141C826.416 91.4141 829.234 87.9935 829.234 81.1523V25.2188C829.234 18.4258 826.416 15.0293 820.779 15.0293C815.143 15.0293 812.324 18.4258 812.324 25.2188V81.1523ZM796.064 26.2305C796.064 8.88672 804.303 0.214844 820.779 0.214844C837.256 0.214844 845.494 8.88672 845.494 26.2305V80.1406C845.494 97.4844 837.256 106.156 820.779 106.156C804.303 106.156 796.064 97.4844 796.064 80.1406V26.2305ZM856.045 1.37109H881.771C897.959 1.37109 906.053 9.92253 906.053 27.0254V79.418C906.053 96.4727 897.959 105 881.771 105H856.045V1.37109ZM872.305 16.1855V90.1855H881.482C887.023 90.1855 889.793 86.8372 889.793 80.1406V26.2305C889.793 19.5339 887.023 16.1855 881.482 16.1855H872.305ZM916.459 1.37109H932.719V105H916.459V1.37109ZM960.902 45.0918H983.305V59.834H960.902V90.1855H989.014V105H944.643V1.37109H989.014V16.1855H960.902V45.0918ZM17.1133 195.404H38.1426V210.219H17.1133V253H0.853516V149.371H43.9238V164.186H17.1133V195.404ZM104.41 253H88.0059L85.1875 234.211H65.2422L62.4238 253H47.4648L64.0137 149.371H87.8613L104.41 253ZM67.2656 220.119H83.0195L75.1426 167.727L67.2656 220.119ZM126.523 177.988V253H111.854V149.371H132.305L148.998 211.447V149.371H163.523V253H146.758L126.523 177.988ZM222.42 214.338V228.141C222.42 245.484 214.326 254.156 198.139 254.156C181.951 254.156 173.857 245.484 173.857 228.141V174.23C173.857 156.887 181.951 148.215 198.139 148.215C214.326 148.215 222.42 156.887 222.42 174.23V184.348H207.027V173.219C207.027 166.426 204.209 163.029 198.572 163.029C192.936 163.029 190.117 166.426 190.117 173.219V229.152C190.117 235.897 192.936 239.27 198.572 239.27C204.209 239.27 207.027 235.897 207.027 229.152V214.338H222.42ZM248.508 253H232.248V149.371H248.508V193.814H267.008V149.371H283.629V253H267.008V208.629H248.508V253ZM308.055 229.152C308.055 235.993 310.873 239.414 316.51 239.414C322.146 239.414 324.965 235.993 324.965 229.152V173.219C324.965 166.426 322.146 163.029 316.51 163.029C310.873 163.029 308.055 166.426 308.055 173.219V229.152ZM291.795 174.23C291.795 156.887 300.033 148.215 316.51 148.215C332.986 148.215 341.225 156.887 341.225 174.23V228.141C341.225 245.484 332.986 254.156 316.51 254.156C300.033 254.156 291.795 245.484 291.795 228.141V174.23ZM374.756 149.371H400.482C416.67 149.371 424.764 157.923 424.764 175.025V227.418C424.764 244.473 416.67 253 400.482 253H374.756V149.371ZM391.016 164.186V238.186H400.193C405.734 238.186 408.504 234.837 408.504 228.141V174.23C408.504 167.534 405.734 164.186 400.193 164.186H391.016ZM435.17 149.371H451.43V253H435.17V149.371ZM487.779 195.26H510.615V228.141C510.615 245.484 502.521 254.156 486.334 254.156C470.146 254.156 462.053 245.484 462.053 228.141V174.23C462.053 156.887 470.146 148.215 486.334 148.215C502.521 148.215 510.615 156.887 510.615 174.23V184.348H495.223V173.219C495.223 166.426 492.404 163.029 486.768 163.029C481.131 163.029 478.312 166.426 478.312 173.219V229.152C478.312 235.897 481.131 239.27 486.768 239.27C492.404 239.27 495.223 235.897 495.223 229.152V210.074H487.779V195.26ZM521.021 149.371H537.281V253H521.021V149.371ZM544.797 149.371H595.094V164.186H578.111V253H561.852V164.186H544.797V149.371ZM655.219 253H638.814L635.996 234.211H616.051L613.232 253H598.273L614.822 149.371H638.67L655.219 253ZM618.074 220.119H633.828L625.951 167.727L618.074 220.119ZM662.807 149.371H679.066V238.186H705.877V253H662.807V149.371Z" fill="white"/>
</g>
</svg>
