<svg width="417" height="16" viewBox="0 0 417 16" fill="none" xmlns="http://www.w3.org/2000/svg">
<line y1="7.5" x2="161.5" y2="7.5" stroke="#E1E5EB"/>
<path d="M176.896 12.108C176.304 12.108 175.792 11.984 175.36 11.736C174.928 11.488 174.592 11.14 174.352 10.692C174.12 10.236 174.004 9.696 174.004 9.072C174.004 8.448 174.12 7.912 174.352 7.464C174.592 7.008 174.928 6.656 175.36 6.408C175.792 6.16 176.304 6.036 176.896 6.036C177.472 6.036 177.976 6.16 178.408 6.408C178.84 6.656 179.176 7.008 179.416 7.464C179.656 7.912 179.776 8.448 179.776 9.072C179.776 9.696 179.656 10.236 179.416 10.692C179.176 11.14 178.84 11.488 178.408 11.736C177.976 11.984 177.472 12.108 176.896 12.108ZM176.896 11.172C177.392 11.172 177.792 10.992 178.096 10.632C178.4 10.272 178.552 9.752 178.552 9.072C178.552 8.392 178.4 7.876 178.096 7.524C177.792 7.164 177.392 6.984 176.896 6.984C176.392 6.984 175.988 7.164 175.684 7.524C175.38 7.876 175.228 8.392 175.228 9.072C175.228 9.752 175.38 10.272 175.684 10.632C175.988 10.992 176.392 11.172 176.896 11.172ZM181.137 12V6.144H182.313V7.188C182.617 6.492 183.249 6.104 184.209 6.024L184.605 6L184.689 7.032L183.957 7.104C182.893 7.208 182.361 7.756 182.361 8.748V12H181.137ZM190.674 12.108C190.034 12.108 189.554 11.928 189.234 11.568C188.922 11.208 188.766 10.68 188.766 9.984V3.54H189.978V9.912C189.978 10.704 190.302 11.1 190.95 11.1C191.046 11.1 191.134 11.096 191.214 11.088C191.302 11.08 191.39 11.064 191.478 11.04L191.454 12.012C191.182 12.076 190.922 12.108 190.674 12.108ZM194.919 12.108C194.327 12.108 193.815 11.984 193.383 11.736C192.951 11.488 192.615 11.14 192.375 10.692C192.143 10.236 192.027 9.696 192.027 9.072C192.027 8.448 192.143 7.912 192.375 7.464C192.615 7.008 192.951 6.656 193.383 6.408C193.815 6.16 194.327 6.036 194.919 6.036C195.495 6.036 195.999 6.16 196.431 6.408C196.863 6.656 197.199 7.008 197.439 7.464C197.679 7.912 197.799 8.448 197.799 9.072C197.799 9.696 197.679 10.236 197.439 10.692C197.199 11.14 196.863 11.488 196.431 11.736C195.999 11.984 195.495 12.108 194.919 12.108ZM194.919 11.172C195.415 11.172 195.815 10.992 196.119 10.632C196.423 10.272 196.575 9.752 196.575 9.072C196.575 8.392 196.423 7.876 196.119 7.524C195.815 7.164 195.415 6.984 194.919 6.984C194.415 6.984 194.011 7.164 193.707 7.524C193.403 7.876 193.251 8.392 193.251 9.072C193.251 9.752 193.403 10.272 193.707 10.632C194.011 10.992 194.415 11.172 194.919 11.172ZM201.813 14.268C201.285 14.268 200.793 14.204 200.337 14.076C199.881 13.956 199.477 13.764 199.125 13.5L199.497 12.636C199.849 12.876 200.209 13.052 200.577 13.164C200.945 13.276 201.329 13.332 201.729 13.332C202.849 13.332 203.409 12.772 203.409 11.652V10.728C203.241 11.08 202.977 11.356 202.617 11.556C202.265 11.756 201.869 11.856 201.429 11.856C200.901 11.856 200.441 11.736 200.049 11.496C199.657 11.248 199.353 10.908 199.137 10.476C198.921 10.036 198.813 9.524 198.813 8.94C198.813 8.364 198.921 7.86 199.137 7.428C199.353 6.988 199.657 6.648 200.049 6.408C200.441 6.16 200.901 6.036 201.429 6.036C201.877 6.036 202.277 6.136 202.629 6.336C202.981 6.536 203.241 6.812 203.409 7.164V6.144H204.585V11.508C204.585 12.428 204.349 13.116 203.877 13.572C203.405 14.036 202.717 14.268 201.813 14.268ZM201.717 10.908C202.229 10.908 202.637 10.732 202.941 10.38C203.245 10.028 203.397 9.548 203.397 8.94C203.397 8.332 203.245 7.856 202.941 7.512C202.637 7.16 202.229 6.984 201.717 6.984C201.205 6.984 200.797 7.16 200.493 7.512C200.189 7.856 200.037 8.332 200.037 8.94C200.037 9.548 200.189 10.028 200.493 10.38C200.797 10.732 201.205 10.908 201.717 10.908ZM206.178 4.788V3.528H207.594V4.788H206.178ZM206.286 12V6.144H207.498V12H206.286ZM209.204 12V6.144H210.38V7.116C210.58 6.764 210.852 6.496 211.196 6.312C211.548 6.128 211.94 6.036 212.372 6.036C213.756 6.036 214.448 6.82 214.448 8.388V12H213.236V8.46C213.236 7.956 213.136 7.588 212.936 7.356C212.744 7.124 212.44 7.008 212.024 7.008C211.536 7.008 211.144 7.164 210.848 7.476C210.56 7.78 210.416 8.184 210.416 8.688V12H209.204ZM220.854 12L218.622 6.144H219.87L221.442 10.584L223.062 6.144H223.998L225.594 10.608L227.19 6.144H228.378L226.146 12H225.042L223.494 7.812L221.958 12H220.854ZM229.31 4.788V3.528H230.726V4.788H229.31ZM229.418 12V6.144H230.63V12H229.418ZM234.832 12.108C234.096 12.108 233.548 11.92 233.188 11.544C232.828 11.168 232.648 10.624 232.648 9.912V7.08H231.508V6.144H232.648V4.38H233.86V6.144H235.672V7.08H233.86V9.816C233.86 10.24 233.948 10.56 234.124 10.776C234.308 10.992 234.604 11.1 235.012 11.1C235.14 11.1 235.264 11.088 235.384 11.064C235.504 11.032 235.624 10.996 235.744 10.956L235.936 11.868C235.816 11.94 235.648 11.996 235.432 12.036C235.224 12.084 235.024 12.108 234.832 12.108ZM236.719 12V3.54H237.931V7.056C238.131 6.72 238.399 6.468 238.735 6.3C239.079 6.124 239.463 6.036 239.887 6.036C241.271 6.036 241.963 6.82 241.963 8.388V12H240.751V8.46C240.751 7.956 240.651 7.588 240.451 7.356C240.259 7.124 239.955 7.008 239.539 7.008C239.051 7.008 238.659 7.164 238.363 7.476C238.075 7.78 237.931 8.184 237.931 8.688V12H236.719Z" fill="#6A738A"/>
<line x1="255.5" y1="7.5" x2="417" y2="7.5" stroke="#E1E5EB"/>
</svg>
