<svg width="25" height="24" viewBox="0 0 25 24" fill="none" xmlns="http://www.w3.org/2000/svg">
<path fill-rule="evenodd" clip-rule="evenodd" d="M4.45898 11C4.45898 6.99594 7.70492 3.75 11.709 3.75C15.713 3.75 18.959 6.99594 18.959 11C18.959 15.0041 15.713 18.25 11.709 18.25C7.70492 18.25 4.45898 15.0041 4.45898 11ZM11.709 2.25C6.87649 2.25 2.95898 6.16751 2.95898 11C2.95898 15.8325 6.87649 19.75 11.709 19.75C13.8552 19.75 15.821 18.9773 17.3432 17.6949L20.1787 20.5303C20.4715 20.8232 20.9464 20.8232 21.2393 20.5303C21.5322 20.2374 21.5322 19.7626 21.2393 19.4697L18.4039 16.6342C19.6863 15.112 20.459 13.1462 20.459 11C20.459 6.16751 16.5415 2.25 11.709 2.25Z" fill="#F9B572"/>
</svg>
