<svg width="24" height="24" viewBox="0 0 24 24" fill="none" xmlns="http://www.w3.org/2000/svg">
<path fill-rule="evenodd" clip-rule="evenodd" d="M9.74994 5C9.74994 3.75736 10.7573 2.75 11.9999 2.75C13.2426 2.75 14.2499 3.75736 14.2499 5V6.25H9.74994V5ZM8.24994 7.75011V9C8.24994 9.41421 8.58573 9.75 8.99994 9.75C9.41415 9.75 9.74994 9.41421 9.74994 9V7.75H14.2499V9C14.2499 9.41421 14.5857 9.75 14.9999 9.75C15.4142 9.75 15.7499 9.41421 15.7499 9V7.75011C16.3831 7.75074 16.847 7.75508 17.2206 7.78455C17.6425 7.81784 17.8888 7.87987 18.0793 7.97125C18.4855 8.16607 18.8239 8.47835 19.0506 8.86766C19.157 9.05027 19.2385 9.29074 19.3055 9.70866C19.374 10.1357 19.4187 10.6852 19.4822 11.4756L19.8357 15.8756C19.9091 16.7885 19.9598 17.4267 19.9578 17.9246C19.9559 18.4143 19.9016 18.6953 19.8081 18.9074C19.6065 19.3648 19.2584 19.742 18.8186 19.9796C18.6147 20.0898 18.339 20.1665 17.8509 20.2076C17.3548 20.2494 16.7146 20.25 15.7988 20.25H8.20113C7.28527 20.25 6.64505 20.2494 6.14895 20.2076C5.66092 20.1665 5.38521 20.0898 5.18128 19.9796C4.7415 19.742 4.39335 19.3648 4.19177 18.9074C4.09829 18.6953 4.04393 18.4143 4.04204 17.9246C4.04012 17.4267 4.09078 16.7885 4.16414 15.8756L4.51771 11.4756C4.58123 10.6852 4.62593 10.1357 4.69436 9.70866C4.76134 9.29073 4.84289 9.05027 4.94924 8.86766C5.17597 8.47835 5.51435 8.16607 5.92058 7.97125C6.11111 7.87987 6.35734 7.81784 6.77929 7.78455C7.1529 7.75508 7.61676 7.75074 8.24994 7.75011ZM8.24994 6.25007V5C8.24994 2.92893 9.92887 1.25 11.9999 1.25C14.071 1.25 15.7499 2.92893 15.7499 5V6.25007C16.3805 6.25059 16.9031 6.25485 17.3386 6.2892C17.8515 6.32966 18.3034 6.41513 18.7279 6.61874C19.405 6.94344 19.969 7.46391 20.3468 8.11277C20.5838 8.51966 20.7052 8.96325 20.7866 9.4713C20.8655 9.96361 20.9144 10.5722 20.9749 11.3249L20.9774 11.3555L21.3309 15.7555L21.3336 15.7888C21.4037 16.6606 21.46 17.3618 21.4578 17.9304C21.4556 18.5142 21.3931 19.0303 21.1807 19.5123C20.8447 20.2747 20.2645 20.9034 19.5315 21.2994C19.0681 21.5497 18.5586 21.6533 17.9769 21.7023C17.4104 21.75 16.7069 21.75 15.8323 21.75H15.8322H15.7988H8.20113H8.16764H8.16755C7.29303 21.75 6.58952 21.75 6.02303 21.7023C5.44124 21.6533 4.93177 21.5497 4.46834 21.2994C3.73538 20.9034 3.15513 20.2747 2.81916 19.5123C2.60674 19.0303 2.54431 18.5142 2.54205 17.9304C2.53986 17.3619 2.59622 16.6606 2.66628 15.7889L2.66896 15.7555L3.02253 11.3554L3.02499 11.3249C3.08546 10.5722 3.13436 9.96362 3.21326 9.4713C3.29468 8.96325 3.41607 8.51966 3.65303 8.11277C4.03092 7.46391 4.59489 6.94344 5.27193 6.61874C5.6965 6.41513 6.14838 6.32966 6.66132 6.2892C7.09679 6.25485 7.61937 6.25059 8.24994 6.25007Z" fill="white"/>
</svg>
