<svg width="16" height="19" viewBox="0 0 16 19" fill="none" xmlns="http://www.w3.org/2000/svg">
<path fill-rule="evenodd" clip-rule="evenodd" d="M6.24994 4.16651C6.24994 3.20001 7.03344 2.4165 7.99994 2.4165C8.96644 2.4165 9.74994 3.20001 9.74994 4.1665V5.08317H6.24994V4.16651ZM4.74994 6.58929V7.49984C4.74994 7.91405 5.08573 8.24984 5.49994 8.24984C5.91415 8.24984 6.24994 7.91405 6.24994 7.49984V6.58317H9.74994V7.49984C9.74994 7.91405 10.0857 8.24984 10.4999 8.24984C10.9142 8.24984 11.2499 7.91405 11.2499 7.49984V6.58929C11.5003 6.59407 11.7161 6.60258 11.9081 6.61772C12.33 6.65101 12.5763 6.71304 12.7668 6.80442C13.173 6.99924 13.5114 7.31152 13.7381 7.70083C13.8445 7.88344 13.926 8.12391 13.993 8.54183C14.0615 8.96885 14.1062 9.51835 14.1697 10.3088L14.3357 12.3754C14.4091 13.2883 14.4598 13.9266 14.4578 14.4244C14.4559 14.9142 14.4016 15.1951 14.3081 15.4072C14.1065 15.8646 13.7584 16.2419 13.3186 16.4795C13.1147 16.5896 12.839 16.6663 12.3509 16.7074C11.8548 16.7492 11.2146 16.7498 10.2988 16.7498H5.70113C4.78527 16.7498 4.14505 16.7492 3.64895 16.7074C3.16092 16.6663 2.88521 16.5896 2.68128 16.4795C2.2415 16.2419 1.89335 15.8646 1.69177 15.4072C1.59829 15.1951 1.54393 14.9142 1.54204 14.4244C1.54012 13.9266 1.59078 13.2883 1.66414 12.3754L1.83021 10.3088C1.89373 9.51835 1.93843 8.96885 2.00686 8.54183C2.07384 8.12391 2.15539 7.88344 2.26174 7.70083C2.48847 7.31152 2.82685 6.99924 3.23308 6.80442C3.42361 6.71304 3.66984 6.65101 4.09179 6.61772C4.28376 6.60258 4.49957 6.59407 4.74994 6.58929ZM4.74994 5.08906V4.16651C4.74994 2.37158 6.20501 0.916504 7.99994 0.916504C9.79486 0.916504 11.2499 2.37158 11.2499 4.1665V5.08906C11.5357 5.09425 11.7933 5.10401 12.0261 5.12237C12.539 5.16283 12.9909 5.2483 13.4154 5.45191C14.0925 5.77661 14.6565 6.29709 15.0343 6.94594C15.2713 7.35283 15.3927 7.79642 15.4741 8.30447C15.553 8.79678 15.6019 9.40537 15.6624 10.158L15.6624 10.1581L15.6648 10.1886L15.8309 12.2553L15.8336 12.2887L15.8336 12.2888C15.9037 13.1605 15.96 13.8617 15.9578 14.4302C15.9556 15.0141 15.8931 15.5302 15.6807 16.0122C15.3447 16.7745 14.7645 17.4032 14.0315 17.7992C13.5681 18.0495 13.0586 18.1531 12.4769 18.2021C11.9104 18.2499 11.2068 18.2498 10.3323 18.2498H10.2988H5.70113H5.66759C4.79304 18.2498 4.08953 18.2499 3.52303 18.2021C2.94124 18.1531 2.43177 18.0495 1.96834 17.7992C1.23538 17.4032 0.655131 16.7745 0.319161 16.0122C0.106739 15.5302 0.0443094 15.0141 0.0420542 14.4302C0.0398584 13.8617 0.0962165 13.1604 0.166276 12.2887L0.168959 12.2553L0.335031 10.1886L0.337486 10.1581C0.397962 9.40539 0.446862 8.79679 0.525759 8.30447C0.607179 7.79642 0.728567 7.35283 0.965535 6.94594C1.34342 6.29709 1.90739 5.77661 2.58443 5.45191C3.009 5.2483 3.46088 5.16283 3.97382 5.12237C4.20658 5.10401 4.46422 5.09425 4.74994 5.08906Z" fill="#333333"/>
</svg>
