<svg width="20" height="20" viewBox="0 0 20 20" fill="none" xmlns="http://www.w3.org/2000/svg">
<path fill-rule="evenodd" clip-rule="evenodd" d="M7.50033 3.25C6.07359 3.25 4.91699 4.4066 4.91699 5.83333C4.91699 7.26007 6.07359 8.41667 7.50033 8.41667C8.92706 8.41667 10.0837 7.26007 10.0837 5.83333C10.0837 4.4066 8.92706 3.25 7.50033 3.25ZM3.41699 5.83333C3.41699 3.57817 5.24516 1.75 7.50033 1.75C9.75549 1.75 11.5837 3.57817 11.5837 5.83333C11.5837 8.0885 9.75549 9.91667 7.50033 9.91667C5.24516 9.91667 3.41699 8.0885 3.41699 5.83333ZM5.00033 13.25C3.57359 13.25 2.41699 14.4066 2.41699 15.8333C2.41699 16.3396 2.8274 16.75 3.33366 16.75H11.667C12.1733 16.75 12.5837 16.3396 12.5837 15.8333C12.5837 14.4066 11.4271 13.25 10.0003 13.25H5.00033ZM0.916992 15.8333C0.916992 13.5782 2.74516 11.75 5.00033 11.75H10.0003C12.2555 11.75 14.0837 13.5782 14.0837 15.8333C14.0837 17.168 13.0017 18.25 11.667 18.25H3.33366C1.99897 18.25 0.916992 17.168 0.916992 15.8333ZM17.417 5.83333C17.417 5.41912 17.0812 5.08333 16.667 5.08333C16.2528 5.08333 15.917 5.41912 15.917 5.83333V7.58333H14.167C13.7528 7.58333 13.417 7.91912 13.417 8.33333C13.417 8.74755 13.7528 9.08333 14.167 9.08333H15.917V10.8333C15.917 11.2475 16.2528 11.5833 16.667 11.5833C17.0812 11.5833 17.417 11.2475 17.417 10.8333V9.08333H19.167C19.5812 9.08333 19.917 8.74755 19.917 8.33333C19.917 7.91912 19.5812 7.58333 19.167 7.58333H17.417V5.83333Z" fill="#333333"/>
</svg>
