<svg width="224" height="36" viewBox="0 0 224 36" fill="none" xmlns="http://www.w3.org/2000/svg">
<path d="M28.6202 5.35093C31.1884 5.35093 31.4724 8.22963 29.0783 9.99442L1.64221 30.2185C-0.75192 31.9833 -0.467906 34.862 2.10034 34.8619L51.8684 34.8618L53.669 29.9149H34.5719C32.0037 29.9149 31.7197 27.0362 34.1138 25.2714L61.55 5.04729C63.9441 3.2825 63.6601 0.403795 61.0918 0.403809L12.5754 0.404059L10.7749 5.35093H28.6202Z" fill="#C7EA99" style="fill:#C7EA99;fill:color(display-p3 0.7795 0.9196 0.6012);fill-opacity:1;"/>
<path d="M98.7156 35.013H59.9703C56.7254 35.013 54.9946 32.5412 56.1044 29.492L66.6365 0.555319H88.7703L79.0677 27.2131C78.5128 28.7377 79.3782 29.9736 81.0006 29.9736H100.55L98.7156 35.013Z" fill="#C7EA99" style="fill:#C7EA99;fill:color(display-p3 0.7795 0.9196 0.6012);fill-opacity:1;"/>
<path d="M105.202 35.0149H95.9878L124.592 0.557185H154.827L157.641 35.0149H134.096L132.229 13.0963C132.105 11.6426 130.933 10.6976 129.254 10.6976H128.358C126.712 10.6976 124.89 11.6057 123.703 13.0169L105.202 35.0149Z" fill="#C7EA99" style="fill:#C7EA99;fill:color(display-p3 0.7795 0.9196 0.6012);fill-opacity:1;"/>
<path fill-rule="evenodd" clip-rule="evenodd" d="M158.212 35.0149L170.753 0.557185H215.691C220.041 0.557185 224.642 2.90378 222.667 8.33037C220.692 13.757 214.368 15.8746 208.947 15.8746C218.25 15.8746 224.163 17.1708 221.159 25.4237C218.155 33.6766 209.677 35.0149 205.444 35.0149H158.212ZM203.907 6.12228H196.383L196.135 6.33214C189.615 11.8294 183.055 14.012 174.993 14.5784L174.087 17.069H185.458L176.348 30.1338H183.872L184.121 29.924C190.64 24.4267 197.201 22.2441 205.262 21.6777L206.169 19.1871H194.798L203.907 6.12228Z" fill="#C7EA99" style="fill:#C7EA99;fill:color(display-p3 0.7795 0.9196 0.6012);fill-opacity:1;"/>
</svg>
