<svg width="224" height="35" viewBox="0 0 224 35" fill="none" xmlns="http://www.w3.org/2000/svg">
<path d="M28.6202 5.06919C31.1884 5.06919 31.4724 7.94789 29.0783 9.71268L1.64221 29.9367C-0.75192 31.7015 -0.467906 34.5802 2.10034 34.5802L51.8684 34.5801L53.669 29.6332H34.5719C32.0037 29.6332 31.7197 26.7545 34.1138 24.9897L61.55 4.76556C63.9441 3.00076 63.6601 0.122057 61.0918 0.12207L12.5754 0.122321L10.7749 5.06919H28.6202Z" fill="#C7EA99" style="fill:#C7EA99;fill:color(display-p3 0.7795 0.9196 0.6012);fill-opacity:1;"/>
<path d="M98.7156 34.7313H59.9703C56.7254 34.7313 54.9946 32.2594 56.1044 29.2102L66.6365 0.273581H88.7703L79.0677 26.9314C78.5128 28.456 79.3782 29.6919 81.0006 29.6919H100.55L98.7156 34.7313Z" fill="#C7EA99" style="fill:#C7EA99;fill:color(display-p3 0.7795 0.9196 0.6012);fill-opacity:1;"/>
<path d="M105.202 34.7332H95.9878L124.592 0.275446H154.827L157.641 34.7332H134.096L132.229 12.8146C132.105 11.3608 130.933 10.4159 129.254 10.4159H128.358C126.712 10.4159 124.89 11.324 123.703 12.7351L105.202 34.7332Z" fill="#C7EA99" style="fill:#C7EA99;fill:color(display-p3 0.7795 0.9196 0.6012);fill-opacity:1;"/>
<path fill-rule="evenodd" clip-rule="evenodd" d="M158.212 34.7332L170.753 0.275446H215.691C220.041 0.275446 224.642 2.62204 222.667 8.04863C220.692 13.4752 214.368 15.5929 208.947 15.5929C218.25 15.5929 224.163 16.889 221.159 25.142C218.155 33.3949 209.677 34.7332 205.444 34.7332H158.212ZM203.907 5.84054H196.383L196.135 6.0504C189.615 11.5477 183.055 13.7303 174.993 14.2967L174.087 16.7873H185.458L176.348 29.852H183.872L184.121 29.6422C190.64 24.1449 197.201 21.9624 205.262 21.396L206.169 18.9054H194.798L203.907 5.84054Z" fill="#C7EA99" style="fill:#C7EA99;fill:color(display-p3 0.7795 0.9196 0.6012);fill-opacity:1;"/>
</svg>
