<svg width="61" height="60" viewBox="0 0 61 60" fill="none" xmlns="http://www.w3.org/2000/svg">
<path d="M30.4879 0.444092C26.3992 0.444092 22.5429 1.21071 18.9188 2.74398C15.2947 4.32371 12.1353 6.46096 9.44046 9.15579C6.74563 11.8506 4.63161 14.9868 3.09834 18.5644C1.51861 22.1885 0.72876 26.0449 0.72876 30.1336C0.72876 34.2223 1.51861 38.0786 3.09834 41.7027C4.63161 45.3268 6.74563 48.4862 9.44046 51.181C12.1353 53.8759 15.2947 55.9899 18.9188 57.5231C22.5429 59.1029 26.3992 59.8927 30.4879 59.8927C34.5766 59.8927 38.433 59.1029 42.0571 57.5231C45.6811 55.9899 48.8406 53.8759 51.5354 51.181C54.2302 48.4862 56.3442 45.3268 57.8775 41.7027C59.4572 38.0786 60.2471 34.2223 60.2471 30.1336C60.2471 26.0449 59.4572 22.1885 57.8775 18.5644C56.3442 14.9868 54.2302 11.8506 51.5354 9.15579C48.8406 6.46096 45.6811 4.32371 42.0571 2.74398C38.433 1.21071 34.5766 0.444092 30.4879 0.444092ZM30.4879 53.9688C27.1891 53.9688 24.0994 53.3415 21.2187 52.087C18.338 50.8326 15.8174 49.1251 13.6569 46.9646C11.4964 44.8041 9.81217 42.2835 8.60414 39.4028C7.34964 36.5221 6.72241 33.4324 6.72241 30.1336C6.72241 26.8812 7.34964 23.7915 8.60414 20.8643C9.81217 17.9836 11.4964 15.4747 13.6569 13.3374C15.8174 11.2001 18.338 9.50426 21.2187 8.24977C24.0994 6.99528 27.1891 6.36805 30.4879 6.36805C33.7868 6.36805 36.8765 6.99528 39.7572 8.24977C42.6379 9.50426 45.1584 11.2001 47.3189 13.3374C49.4794 15.4747 51.1637 17.9836 52.3717 20.8643C53.6262 23.7915 54.2534 26.8812 54.2534 30.1336C54.2534 33.4324 53.6262 36.5221 52.3717 39.4028C51.1637 42.2835 49.4794 44.8041 47.3189 46.9646C45.1584 49.1251 42.6379 50.8326 39.7572 52.087C36.8765 53.3415 33.7868 53.9688 30.4879 53.9688ZM21.5671 45.048L45.3327 30.1336L21.5671 15.2888V45.048Z" fill="#F5F4F0" style="fill:#F5F4F0;fill:color(display-p3 0.9608 0.9569 0.9412);fill-opacity:1;"/>
</svg>
