<svg width="32" height="32" viewBox="0 0 32 32" fill="none" xmlns="http://www.w3.org/2000/svg">
<path d="M16 0C18.2083 0 20.2864 0.416663 22.2344 1.25C24.1823 2.08334 25.8802 3.22395 27.3281 4.67188C28.776 6.1198 29.9167 7.8177 30.75 9.76562C31.5833 11.7136 32 13.7917 32 16C32 18.2083 31.5833 20.2864 30.75 22.2344C29.9167 24.1823 28.776 25.8802 27.3281 27.3281C25.8802 28.776 24.1823 29.9167 22.2344 30.75C20.2864 31.5833 18.2083 32 16 32C13.7917 32 11.7136 31.5833 9.76562 30.75C7.8177 29.9167 6.1198 28.776 4.67188 27.3281C3.22395 25.8802 2.08334 24.1823 1.25 22.2344C0.416662 20.2864 0 18.2083 0 16C0 13.7917 0.416662 11.7136 1.25 9.76562C2.08334 7.8177 3.22395 6.1198 4.67188 4.67188C6.1198 3.22395 7.8177 2.08334 9.76562 1.25C11.7136 0.416663 13.7917 0 16 0ZM9 17H19.5938L15.4688 21.125C15.2604 21.3125 15.1562 21.5469 15.1562 21.8281C15.1562 22.1094 15.2604 22.3437 15.4688 22.5312C15.6563 22.7396 15.8906 22.8438 16.1719 22.8438C16.4531 22.8438 16.6875 22.7396 16.875 22.5312L22.5312 16.875C22.6563 16.75 22.7396 16.6094 22.7812 16.4531C22.8229 16.2969 22.8229 16.1458 22.7812 16C22.8229 15.8542 22.8229 15.7031 22.7812 15.5469C22.7396 15.3906 22.6563 15.25 22.5312 15.125L16.875 9.46875C16.6875 9.26042 16.4531 9.15625 16.1719 9.15625C15.8906 9.15625 15.6563 9.26042 15.4688 9.46875C15.2604 9.65625 15.1562 9.89062 15.1562 10.1719C15.1562 10.4531 15.2604 10.6875 15.4688 10.875L19.5938 15H9C8.72916 15 8.49479 15.099 8.29688 15.2969C8.09896 15.4948 8 15.7292 8 16C8 16.2708 8.09896 16.5052 8.29688 16.7031C8.49479 16.901 8.72916 17 9 17Z" fill="white" style="fill:white;fill-opacity:1;"/>
</svg>
