<svg width="65" height="65" viewBox="0 0 65 65" fill="none" xmlns="http://www.w3.org/2000/svg">
<path d="M32.6904 0.270752C28.2503 0.270752 24.0624 1.10327 20.1268 2.76833C16.1913 4.48384 12.7603 6.8048 9.83381 9.73127C6.90734 12.6577 4.61161 16.0635 2.94655 19.9486C1.23104 23.8842 0.373291 28.072 0.373291 32.5122C0.373291 36.9523 1.23104 41.1402 2.94655 45.0758C4.61161 49.0114 6.90734 52.4423 9.83381 55.3688C12.7603 58.2953 16.1913 60.591 20.1268 62.2561C24.0624 63.9716 28.2503 64.8293 32.6904 64.8293C37.1306 64.8293 41.3184 63.9716 45.254 62.2561C49.1896 60.591 52.6206 58.2953 55.547 55.3688C58.4735 52.4423 60.7692 49.0114 62.4343 45.0758C64.1498 41.1402 65.0075 36.9523 65.0075 32.5122C65.0075 28.072 64.1498 23.8842 62.4343 19.9486C60.7692 16.0635 58.4735 12.6577 55.547 9.73127C52.6206 6.8048 49.1896 4.48384 45.254 2.76833C41.3184 1.10327 37.1306 0.270752 32.6904 0.270752ZM32.6904 58.3962C29.108 58.3962 25.7527 57.715 22.6244 56.3527C19.4961 54.9904 16.7589 53.1361 14.4127 50.7899C12.0665 48.4437 10.2375 45.7065 8.9256 42.5782C7.56328 39.4499 6.88213 36.0946 6.88213 32.5122C6.88213 28.9802 7.56328 25.625 8.9256 22.4462C10.2375 19.3179 12.0665 16.5933 14.4127 14.2723C16.7589 11.9513 19.4961 10.1097 22.6244 8.74737C25.7527 7.38505 29.108 6.7039 32.6904 6.7039C36.2728 6.7039 39.6281 7.38505 42.7564 8.74737C45.8847 10.1097 48.6219 11.9513 50.9681 14.2723C53.3144 16.5933 55.1434 19.3179 56.4552 22.4462C57.8176 25.625 58.4987 28.9802 58.4987 32.5122C58.4987 36.0946 57.8176 39.4499 56.4552 42.5782C55.1434 45.7065 53.3144 48.4437 50.9681 50.7899C48.6219 53.1361 45.8847 54.9904 42.7564 56.3527C39.6281 57.715 36.2728 58.3962 32.6904 58.3962ZM23.0028 48.7086L48.8111 32.5122L23.0028 16.3915V48.7086Z" fill="white" style="fill:white;fill-opacity:1;"/>
</svg>
