<svg width="32" height="32" viewBox="0 0 32 32" fill="none" xmlns="http://www.w3.org/2000/svg">
<path d="M16 0C13.7917 0 11.7136 0.416663 9.76562 1.25C7.8177 2.08334 6.1198 3.22395 4.67188 4.67188C3.22395 6.1198 2.08334 7.8177 1.25 9.76562C0.416663 11.7136 0 13.7917 0 16C0 18.2083 0.416663 20.2864 1.25 22.2344C2.08334 24.1823 3.22395 25.8802 4.67188 27.3281C6.1198 28.776 7.8177 29.9167 9.76562 30.75C11.7136 31.5833 13.7917 32 16 32C18.2083 32 20.2864 31.5833 22.2344 30.75C24.1823 29.9167 25.8802 28.776 27.3281 27.3281C28.776 25.8802 29.9167 24.1823 30.75 22.2344C31.5833 20.2864 32 18.2083 32 16C32 13.7917 31.5833 11.7136 30.75 9.76562C29.9167 7.8177 28.776 6.1198 27.3281 4.67188C25.8802 3.22395 24.1823 2.08334 22.2344 1.25C20.2864 0.416663 18.2083 0 16 0ZM23 17H12.4062L16.5312 21.125C16.7396 21.3125 16.8438 21.5469 16.8438 21.8281C16.8438 22.1094 16.7396 22.3437 16.5312 22.5312C16.3437 22.7396 16.1094 22.8438 15.8281 22.8438C15.5469 22.8438 15.3125 22.7396 15.125 22.5312L9.46875 16.875C9.34375 16.75 9.26042 16.6094 9.21875 16.4531C9.17708 16.2969 9.17708 16.1458 9.21875 16C9.17708 15.8542 9.17708 15.7031 9.21875 15.5469C9.26042 15.3906 9.34375 15.25 9.46875 15.125L15.125 9.46875C15.3125 9.26042 15.5469 9.15625 15.8281 9.15625C16.1094 9.15625 16.3437 9.26042 16.5312 9.46875C16.7396 9.65625 16.8438 9.89062 16.8438 10.1719C16.8438 10.4531 16.7396 10.6875 16.5312 10.875L12.4062 15H23C23.2708 15 23.5052 15.099 23.7031 15.2969C23.901 15.4948 24 15.7292 24 16C24 16.2708 23.901 16.5052 23.7031 16.7031C23.5052 16.901 23.2708 17 23 17Z" fill="black" style="fill:black;fill-opacity:1;"/>
</svg>
