<svg width="258" height="40" viewBox="0 0 258 40" fill="none" xmlns="http://www.w3.org/2000/svg">
<path d="M33.0763 5.71738C36.0444 5.71738 36.3726 9.04428 33.6057 11.0839L1.8979 34.4567C-0.868993 36.4963 -0.540758 39.8232 2.42736 39.8232L59.9443 39.8231L62.0251 34.106H39.9547C36.9866 34.106 36.6584 30.7791 39.4253 28.7395L71.1332 5.36647C73.9001 3.32689 73.5719 -1.5333e-05 70.6037 0L14.5333 0.000289654L12.4525 5.71738H33.0763Z" fill="white" style="fill:white;fill-opacity:1;"/>
<path d="M114.085 39.9978H69.3076C65.5574 39.9978 63.5571 37.1411 64.8398 33.6172L77.0117 0.175101H102.592L91.3784 30.9835C90.7371 32.7454 91.7372 34.1738 93.6123 34.1738H116.205L114.085 39.9978Z" fill="white" style="fill:white;fill-opacity:1;"/>
<path d="M121.582 40H110.933L143.99 0.177256H178.933L182.186 40H154.974L152.817 14.6687C152.674 12.9886 151.319 11.8965 149.379 11.8965H148.343C146.441 11.8965 144.335 12.946 142.963 14.5769L121.582 40Z" fill="white" style="fill:white;fill-opacity:1;"/>
<path fill-rule="evenodd" clip-rule="evenodd" d="M182.845 40L197.339 0.177256H249.274C254.301 0.177256 259.618 2.88921 257.336 9.16072C255.053 15.4322 247.745 17.8796 241.479 17.8796C252.231 17.8796 259.065 19.3776 255.593 28.9154C252.121 38.4533 242.323 40 237.432 40H182.845ZM235.655 6.60883H226.96L226.672 6.85136C219.138 13.2046 211.556 15.727 202.239 16.3816L201.192 19.26H214.333L203.805 34.3589H212.501L212.788 34.1164C220.322 27.7632 227.905 25.2408 237.221 24.5862L238.269 21.7078H225.127L235.655 6.60883Z" fill="white" style="fill:white;fill-opacity:1;"/>
</svg>
