<svg width="1840" height="286" viewBox="0 0 1840 286" fill="none" xmlns="http://www.w3.org/2000/svg">
<path d="M236.003 40.7941C257.18 40.7941 259.522 64.5319 239.78 79.0844L13.5417 245.852C-6.20035 260.405 -3.85836 284.143 17.3195 284.143L427.708 284.141L442.555 243.349H285.081C263.903 243.349 261.561 219.612 281.303 205.059L507.542 38.2903C527.285 23.7377 524.942 -0.000109402 503.765 3.78735e-10L103.697 0.00206671L88.8497 40.7941H236.003Z" fill="white" style="fill:white;fill-opacity:1;"/>
<path d="M814.011 285.389H494.516C467.759 285.389 453.486 265.005 462.638 239.862L549.486 1.24936H732.002L651.994 221.07C647.418 233.642 654.554 243.833 667.933 243.833H829.136L814.011 285.389Z" fill="white" style="fill:white;fill-opacity:1;"/>
<path d="M867.496 285.404H791.517L1027.38 1.26474H1276.71L1299.91 285.404H1105.75L1090.36 104.663C1089.34 92.675 1079.68 84.8828 1065.83 84.8828H1058.44C1044.87 84.8828 1029.84 92.3712 1020.06 104.008L867.496 285.404Z" fill="white" style="fill:white;fill-opacity:1;"/>
<path fill-rule="evenodd" clip-rule="evenodd" d="M1304.62 285.404L1408.04 1.26474H1778.6C1814.46 1.26474 1852.4 20.6148 1836.11 65.3626C1819.83 110.11 1767.68 127.573 1722.98 127.573C1799.69 127.573 1848.45 138.261 1823.68 206.315C1798.91 274.368 1729 285.404 1694.1 285.404H1304.62ZM1681.42 47.1546H1619.38L1617.33 48.8851C1563.57 94.2161 1509.47 112.214 1443 116.884L1435.52 137.422H1529.29L1454.17 245.154H1516.21L1518.26 243.424C1572.02 198.093 1626.12 180.096 1692.6 175.425L1700.07 154.888H1606.3L1681.42 47.1546Z" fill="white" style="fill:white;fill-opacity:1;"/>
</svg>
